<ttFont>
    <TTGlyph name="A" xMin="18" yMin="0" xMax="655" yMax="710">
      <contour>
        <pt x="328" y="710" on="1"/>
        <pt x="346" y="710" on="1"/>
        <pt x="655" y="0" on="1"/>
        <pt x="633" y="0" on="1"/>
        <pt x="522" y="254" on="1"/>
        <pt x="151" y="254" on="1"/>
        <pt x="40" y="0" on="1"/>
        <pt x="18" y="0" on="1"/>
      </contour>
      <contour>
        <pt x="513" y="274" on="1"/>
        <pt x="337" y="681" on="1"/>
        <pt x="159" y="274" on="1"/>
      </contour>
    </TTGlyph>
    <TTGlyph name="A.sc" xMin="28" yMin="0" xMax="551" yMax="540">
      <contour>
        <pt x="28" y="0" on="1"/>
        <pt x="281" y="540" on="1"/>
        <pt x="299" y="540" on="1"/>
        <pt x="551" y="0" on="1"/>
        <pt x="529" y="0" on="1"/>
        <pt x="440" y="190" on="1"/>
        <pt x="140" y="190" on="1"/>
        <pt x="50" y="0" on="1"/>
      </contour>
      <contour>
        <pt x="290" y="512" on="1"/>
        <pt x="147" y="209" on="1"/>
        <pt x="432" y="209" on="1"/>
      </contour>
    </TTGlyph>
    <TTGlyph name="AE" xMin="-29" yMin="0" xMax="910" yMax="710">
      <contour>
        <pt x="439" y="710" on="1"/>
        <pt x="901" y="710" on="1"/>
        <pt x="901" y="690" on="1"/>
        <pt x="464" y="690" on="1"/>
        <pt x="464" y="373" on="1"/>
        <pt x="847" y="373" on="1"/>
        <pt x="847" y="353" on="1"/>
        <pt x="464" y="353" on="1"/>
        <pt x="464" y="20" on="1"/>
        <pt x="910" y="20" on="1"/>
        <pt x="910" y="0" on="1"/>
        <pt x="444" y="0" on="1"/>
        <pt x="444" y="254" on="1"/>
        <pt x="163" y="254" on="1"/>
        <pt x="-4" y="0" on="1"/>
        <pt x="-29" y="0" on="1"/>
      </contour>
      <contour>
        <pt x="444" y="274" on="1"/>
        <pt x="444" y="678" on="1"/>
        <pt x="175" y="274" on="1"/>
      </contour>
    </TTGlyph>
    <TTGlyph name="AEacute" xMin="-29" yMin="0" xMax="910" yMax="918">
      <contour>
        <pt x="439" y="710" on="1"/>
        <pt x="901" y="710" on="1"/>
        <pt x="901" y="690" on="1"/>
        <pt x="464" y="690" on="1"/>
        <pt x="464" y="373" on="1"/>
        <pt x="847" y="373" on="1"/>
        <pt x="847" y="353" on="1"/>
        <pt x="464" y="353" on="1"/>
        <pt x="464" y="20" on="1"/>
        <pt x="910" y="20" on="1"/>
        <pt x="910" y="0" on="1"/>
        <pt x="444" y="0" on="1"/>
        <pt x="444" y="254" on="1"/>
        <pt x="163" y="254" on="1"/>
        <pt x="-4" y="0" on="1"/>
        <pt x="-29" y="0" on="1"/>
      </contour>
      <contour>
        <pt x="444" y="274" on="1"/>
        <pt x="444" y="678" on="1"/>
        <pt x="175" y="274" on="1"/>
      </contour>
      <contour>
        <pt x="450" y="833" on="1"/>
        <pt x="434" y="845" on="1"/>
        <pt x="498" y="918" on="1"/>
        <pt x="532" y="918" on="1"/>
      </contour>
    </TTGlyph>
    <TTGlyph name="Aacute" xMin="18" yMin="0" xMax="655" yMax="918">
      <contour>
        <pt x="328" y="710" on="1"/>
        <pt x="346" y="710" on="1"/>
        <pt x="655" y="0" on="1"/>
        <pt x="633" y="0" on="1"/>
        <pt x="522" y="254" on="1"/>
        <pt x="151" y="254" on="1"/>
        <pt x="40" y="0" on="1"/>
        <pt x="18" y="0" on="1"/>
      </contour>
      <contour>
        <pt x="513" y="274" on="1"/>
        <pt x="337" y="681" on="1"/>
        <pt x="159" y="274" on="1"/>
      </contour>
      <contour>
        <pt x="323" y="833" on="1"/>
        <pt x="307" y="845" on="1"/>
        <pt x="371" y="918" on="1"/>
        <pt x="405" y="918" on="1"/>
      </contour>
    </TTGlyph>
    <TTGlyph name="Abreve" xMin="18" yMin="0" xMax="655" yMax="918">
      <contour>
        <pt x="328" y="710" on="1"/>
        <pt x="346" y="710" on="1"/>
        <pt x="655" y="0" on="1"/>
        <pt x="633" y="0" on="1"/>
        <pt x="522" y="254" on="1"/>
        <pt x="151" y="254" on="1"/>
        <pt x="40" y="0" on="1"/>
        <pt x="18" y="0" on="1"/>
      </contour>
      <contour>
        <pt x="513" y="274" on="1"/>
        <pt x="337" y="681" on="1"/>
        <pt x="159" y="274" on="1"/>
      </contour>
      <contour>
        <pt x="337" y="858" on="1"/>
        <pt x="357" y="858" on="0"/>
        <pt x="390" y="893" on="0"/>
        <pt x="393" y="918" on="1"/>
        <pt x="411" y="918" on="1"/>
        <pt x="411" y="903" on="0"/>
        <pt x="399" y="875" on="0"/>
        <pt x="378" y="854" on="0"/>
        <pt x="352" y="841" on="0"/>
        <pt x="337" y="841" on="1"/>
        <pt x="322" y="841" on="0"/>
        <pt x="296" y="854" on="0"/>
        <pt x="275" y="875" on="0"/>
        <pt x="263" y="903" on="0"/>
        <pt x="263" y="918" on="1"/>
        <pt x="282" y="918" on="1"/>
        <pt x="282" y="895" on="0"/>
        <pt x="316" y="858" on="0"/>
      </contour>
    </TTGlyph>
    <TTGlyph name="Acircumflex" xMin="18" yMin="0" xMax="655" yMax="918">
      <contour>
        <pt x="328" y="710" on="1"/>
        <pt x="346" y="710" on="1"/>
        <pt x="655" y="0" on="1"/>
        <pt x="633" y="0" on="1"/>
        <pt x="522" y="254" on="1"/>
        <pt x="151" y="254" on="1"/>
        <pt x="40" y="0" on="1"/>
        <pt x="18" y="0" on="1"/>
      </contour>
      <contour>
        <pt x="513" y="274" on="1"/>
        <pt x="337" y="681" on="1"/>
        <pt x="159" y="274" on="1"/>
      </contour>
      <contour>
        <pt x="236" y="844" on="1"/>
        <pt x="329" y="918" on="1"/>
        <pt x="345" y="918" on="1"/>
        <pt x="438" y="844" on="1"/>
        <pt x="422" y="832" on="1"/>
        <pt x="337" y="895" on="1"/>
        <pt x="252" y="832" on="1"/>
      </contour>
    </TTGlyph>
    <TTGlyph name="Adblgrave" xMin="18" yMin="0" xMax="655" yMax="918">
      <contour>
        <pt x="328" y="710" on="1"/>
        <pt x="346" y="710" on="1"/>
        <pt x="655" y="0" on="1"/>
        <pt x="633" y="0" on="1"/>
        <pt x="522" y="254" on="1"/>
        <pt x="151" y="254" on="1"/>
        <pt x="40" y="0" on="1"/>
        <pt x="18" y="0" on="1"/>
      </contour>
      <contour>
        <pt x="513" y="274" on="1"/>
        <pt x="337" y="681" on="1"/>
        <pt x="159" y="274" on="1"/>
      </contour>
      <contour>
        <pt x="301" y="918" on="1"/>
        <pt x="335" y="918" on="1"/>
        <pt x="399" y="845" on="1"/>
        <pt x="383" y="833" on="1"/>
      </contour>
      <contour>
        <pt x="201" y="918" on="1"/>
        <pt x="235" y="918" on="1"/>
        <pt x="299" y="845" on="1"/>
        <pt x="283" y="833" on="1"/>
      </contour>
    </TTGlyph>
    <TTGlyph name="Adieresis" xMin="18" yMin="0" xMax="655" yMax="918">
      <contour>
        <pt x="328" y="710" on="1"/>
        <pt x="346" y="710" on="1"/>
        <pt x="655" y="0" on="1"/>
        <pt x="633" y="0" on="1"/>
        <pt x="522" y="254" on="1"/>
        <pt x="151" y="254" on="1"/>
        <pt x="40" y="0" on="1"/>
        <pt x="18" y="0" on="1"/>
      </contour>
      <contour>
        <pt x="513" y="274" on="1"/>
        <pt x="337" y="681" on="1"/>
        <pt x="159" y="274" on="1"/>
      </contour>
      <contour>
        <pt x="269" y="841" on="1"/>
        <pt x="269" y="918" on="1"/>
        <pt x="289" y="918" on="1"/>
        <pt x="289" y="841" on="1"/>
      </contour>
      <contour>
        <pt x="385" y="841" on="1"/>
        <pt x="385" y="918" on="1"/>
        <pt x="405" y="918" on="1"/>
        <pt x="405" y="841" on="1"/>
      </contour>
    </TTGlyph>
    <TTGlyph name="Agrave" xMin="18" yMin="0" xMax="655" yMax="918">
      <contour>
        <pt x="328" y="710" on="1"/>
        <pt x="346" y="710" on="1"/>
        <pt x="655" y="0" on="1"/>
        <pt x="633" y="0" on="1"/>
        <pt x="522" y="254" on="1"/>
        <pt x="151" y="254" on="1"/>
        <pt x="40" y="0" on="1"/>
        <pt x="18" y="0" on="1"/>
      </contour>
      <contour>
        <pt x="513" y="274" on="1"/>
        <pt x="337" y="681" on="1"/>
        <pt x="159" y="274" on="1"/>
      </contour>
      <contour>
        <pt x="269" y="918" on="1"/>
        <pt x="302" y="918" on="1"/>
        <pt x="367" y="845" on="1"/>
        <pt x="351" y="833" on="1"/>
      </contour>
    </TTGlyph>
    <TTGlyph name="Ainvertedbreve" xMin="18" yMin="0" xMax="655" yMax="918">
      <contour>
        <pt x="328" y="710" on="1"/>
        <pt x="346" y="710" on="1"/>
        <pt x="655" y="0" on="1"/>
        <pt x="633" y="0" on="1"/>
        <pt x="522" y="254" on="1"/>
        <pt x="151" y="254" on="1"/>
        <pt x="40" y="0" on="1"/>
        <pt x="18" y="0" on="1"/>
      </contour>
      <contour>
        <pt x="513" y="274" on="1"/>
        <pt x="337" y="681" on="1"/>
        <pt x="159" y="274" on="1"/>
      </contour>
      <contour>
        <pt x="337" y="901" on="1"/>
        <pt x="316" y="901" on="0"/>
        <pt x="282" y="864" on="0"/>
        <pt x="282" y="841" on="1"/>
        <pt x="263" y="841" on="1"/>
        <pt x="263" y="856" on="0"/>
        <pt x="275" y="884" on="0"/>
        <pt x="296" y="905" on="0"/>
        <pt x="322" y="918" on="0"/>
        <pt x="337" y="918" on="1"/>
        <pt x="352" y="918" on="0"/>
        <pt x="378" y="905" on="0"/>
        <pt x="399" y="884" on="0"/>
        <pt x="411" y="856" on="0"/>
        <pt x="411" y="841" on="1"/>
        <pt x="393" y="841" on="1"/>
        <pt x="390" y="866" on="0"/>
        <pt x="357" y="901" on="0"/>
      </contour>
    </TTGlyph>
    <TTGlyph name="Amacron" xMin="18" yMin="0" xMax="655" yMax="894">
      <contour>
        <pt x="328" y="710" on="1"/>
        <pt x="346" y="710" on="1"/>
        <pt x="655" y="0" on="1"/>
        <pt x="633" y="0" on="1"/>
        <pt x="522" y="254" on="1"/>
        <pt x="151" y="254" on="1"/>
        <pt x="40" y="0" on="1"/>
        <pt x="18" y="0" on="1"/>
      </contour>
      <contour>
        <pt x="513" y="274" on="1"/>
        <pt x="337" y="681" on="1"/>
        <pt x="159" y="274" on="1"/>
      </contour>
      <contour>
        <pt x="197" y="874" on="1"/>
        <pt x="197" y="894" on="1"/>
        <pt x="477" y="894" on="1"/>
        <pt x="477" y="874" on="1"/>
      </contour>
    </TTGlyph>
    <TTGlyph name="Aogonek" xMin="17" yMin="-159" xMax="654" yMax="710">
      <contour>
        <pt x="605" y="-159" on="1"/>
        <pt x="580" y="-153" on="0"/>
        <pt x="553" y="-121" on="0"/>
        <pt x="553" y="-98" on="1"/>
        <pt x="553" y="-73" on="0"/>
        <pt x="588" y="-26" on="0"/>
        <pt x="630" y="5" on="1"/>
        <pt x="521" y="254" on="1"/>
        <pt x="150" y="254" on="1"/>
        <pt x="39" y="0" on="1"/>
        <pt x="17" y="0" on="1"/>
        <pt x="327" y="710" on="1"/>
        <pt x="345" y="710" on="1"/>
        <pt x="654" y="0" on="1"/>
        <pt x="609" y="-31" on="0"/>
        <pt x="573" y="-72" on="0"/>
        <pt x="573" y="-95" on="1"/>
        <pt x="573" y="-133" on="0"/>
        <pt x="617" y="-142" on="1"/>
      </contour>
      <contour>
        <pt x="512" y="274" on="1"/>
        <pt x="336" y="681" on="1"/>
        <pt x="158" y="274" on="1"/>
      </contour>
    </TTGlyph>
    <TTGlyph name="Aring" xMin="18" yMin="0" xMax="655" yMax="918">
      <contour>
        <pt x="328" y="710" on="1"/>
        <pt x="346" y="710" on="1"/>
        <pt x="655" y="0" on="1"/>
        <pt x="633" y="0" on="1"/>
        <pt x="522" y="254" on="1"/>
        <pt x="151" y="254" on="1"/>
        <pt x="40" y="0" on="1"/>
        <pt x="18" y="0" on="1"/>
      </contour>
      <contour>
        <pt x="513" y="274" on="1"/>
        <pt x="337" y="681" on="1"/>
        <pt x="159" y="274" on="1"/>
      </contour>
      <contour>
        <pt x="280" y="861" on="1"/>
        <pt x="280" y="885" on="0"/>
        <pt x="313" y="918" on="0"/>
        <pt x="337" y="918" on="1"/>
        <pt x="361" y="918" on="0"/>
        <pt x="394" y="885" on="0"/>
        <pt x="394" y="861" on="1"/>
        <pt x="394" y="837" on="0"/>
        <pt x="361" y="804" on="0"/>
        <pt x="337" y="804" on="1"/>
        <pt x="313" y="804" on="0"/>
        <pt x="280" y="837" on="0"/>
      </contour>
      <contour>
        <pt x="337" y="902" on="1"/>
        <pt x="320" y="902" on="0"/>
        <pt x="296" y="880" on="0"/>
        <pt x="296" y="861" on="1"/>
        <pt x="296" y="844" on="0"/>
        <pt x="320" y="820" on="0"/>
        <pt x="337" y="820" on="1"/>
        <pt x="352" y="820" on="0"/>
        <pt x="378" y="843" on="0"/>
        <pt x="378" y="861" on="1"/>
        <pt x="378" y="880" on="0"/>
        <pt x="354" y="902" on="0"/>
      </contour>
    </TTGlyph>
    <TTGlyph name="Aringacute" xMin="18" yMin="0" xMax="655" yMax="918">
      <contour>
        <pt x="280" y="751" on="1"/>
        <pt x="280" y="775" on="0"/>
        <pt x="313" y="808" on="0"/>
        <pt x="337" y="808" on="1"/>
        <pt x="361" y="808" on="0"/>
        <pt x="394" y="775" on="0"/>
        <pt x="394" y="751" on="1"/>
        <pt x="394" y="731" on="0"/>
        <pt x="370" y="701" on="0"/>
        <pt x="352" y="696" on="1"/>
        <pt x="655" y="0" on="1"/>
        <pt x="633" y="0" on="1"/>
        <pt x="522" y="254" on="1"/>
        <pt x="151" y="254" on="1"/>
        <pt x="40" y="0" on="1"/>
        <pt x="18" y="0" on="1"/>
        <pt x="322" y="696" on="1"/>
        <pt x="303" y="701" on="0"/>
        <pt x="280" y="731" on="0"/>
      </contour>
      <contour>
        <pt x="513" y="274" on="1"/>
        <pt x="337" y="681" on="1"/>
        <pt x="159" y="274" on="1"/>
      </contour>
      <contour>
        <pt x="337" y="792" on="1"/>
        <pt x="320" y="792" on="0"/>
        <pt x="296" y="770" on="0"/>
        <pt x="296" y="751" on="1"/>
        <pt x="296" y="734" on="0"/>
        <pt x="317" y="711" on="0"/>
        <pt x="333" y="710" on="1"/>
        <pt x="340" y="710" on="1"/>
        <pt x="354" y="711" on="0"/>
        <pt x="378" y="734" on="0"/>
        <pt x="378" y="751" on="1"/>
        <pt x="378" y="770" on="0"/>
        <pt x="354" y="792" on="0"/>
      </contour>
      <contour>
        <pt x="323" y="833" on="1"/>
        <pt x="307" y="845" on="1"/>
        <pt x="371" y="918" on="1"/>
        <pt x="405" y="918" on="1"/>
      </contour>
    </TTGlyph>
    <TTGlyph name="Atilde" xMin="18" yMin="0" xMax="655" yMax="918">
      <contour>
        <pt x="328" y="710" on="1"/>
        <pt x="346" y="710" on="1"/>
        <pt x="655" y="0" on="1"/>
        <pt x="633" y="0" on="1"/>
        <pt x="522" y="254" on="1"/>
        <pt x="151" y="254" on="1"/>
        <pt x="40" y="0" on="1"/>
        <pt x="18" y="0" on="1"/>
      </contour>
      <contour>
        <pt x="513" y="274" on="1"/>
        <pt x="337" y="681" on="1"/>
        <pt x="159" y="274" on="1"/>
      </contour>
      <contour>
        <pt x="398" y="851" on="1"/>
        <pt x="376" y="851" on="0"/>
        <pt x="343" y="863" on="0"/>
        <pt x="315" y="877" on="0"/>
        <pt x="288" y="889" on="0"/>
        <pt x="273" y="889" on="1"/>
        <pt x="257" y="889" on="0"/>
        <pt x="237" y="876" on="0"/>
        <pt x="226" y="859" on="0"/>
        <pt x="222" y="843" on="0"/>
        <pt x="222" y="841" on="1"/>
        <pt x="202" y="841" on="1"/>
        <pt x="202" y="843" on="0"/>
        <pt x="206" y="865" on="0"/>
        <pt x="221" y="889" on="0"/>
        <pt x="250" y="908" on="0"/>
        <pt x="275" y="908" on="1"/>
        <pt x="294" y="908" on="0"/>
        <pt x="324" y="896" on="0"/>
        <pt x="352" y="882" on="0"/>
        <pt x="381" y="870" on="0"/>
        <pt x="400" y="870" on="1"/>
        <pt x="421" y="870" on="0"/>
        <pt x="444" y="884" on="0"/>
        <pt x="456" y="901" on="0"/>
        <pt x="459" y="916" on="0"/>
        <pt x="459" y="918" on="1"/>
        <pt x="479" y="918" on="1"/>
        <pt x="479" y="915" on="0"/>
        <pt x="474" y="893" on="0"/>
        <pt x="458" y="869" on="0"/>
        <pt x="425" y="851" on="0"/>
      </contour>
    </TTGlyph>
    <TTGlyph name="B" xMin="99" yMin="0" xMax="605" yMax="710">
      <contour>
        <pt x="605" y="184" on="1"/>
        <pt x="605" y="147" on="0"/>
        <pt x="577" y="81" on="0"/>
        <pt x="529" y="30" on="0"/>
        <pt x="464" y="0" on="0"/>
        <pt x="428" y="0" on="1"/>
        <pt x="99" y="0" on="1"/>
        <pt x="99" y="710" on="1"/>
        <pt x="413" y="710" on="1"/>
        <pt x="450" y="710" on="0"/>
        <pt x="510" y="678" on="0"/>
        <pt x="552" y="627" on="0"/>
        <pt x="575" y="562" on="0"/>
        <pt x="575" y="529" on="1"/>
        <pt x="575" y="475" on="0"/>
        <pt x="520" y="385" on="0"/>
        <pt x="473" y="364" on="1"/>
        <pt x="503" y="355" on="0"/>
        <pt x="552" y="319" on="0"/>
        <pt x="587" y="271" on="0"/>
        <pt x="605" y="214" on="0"/>
      </contour>
      <contour>
        <pt x="585" y="184" on="1"/>
        <pt x="585" y="216" on="0"/>
        <pt x="562" y="275" on="0"/>
        <pt x="522" y="321" on="0"/>
        <pt x="467" y="348" on="0"/>
        <pt x="435" y="348" on="1"/>
        <pt x="119" y="348" on="1"/>
        <pt x="119" y="20" on="1"/>
        <pt x="428" y="20" on="1"/>
        <pt x="461" y="20" on="0"/>
        <pt x="518" y="48" on="0"/>
        <pt x="561" y="94" on="0"/>
        <pt x="585" y="153" on="0"/>
      </contour>
      <contour>
        <pt x="119" y="690" on="1"/>
        <pt x="119" y="368" on="1"/>
        <pt x="407" y="368" on="1"/>
        <pt x="440" y="368" on="0"/>
        <pt x="494" y="396" on="0"/>
        <pt x="533" y="442" on="0"/>
        <pt x="555" y="499" on="0"/>
        <pt x="555" y="529" on="1"/>
        <pt x="555" y="561" on="0"/>
        <pt x="534" y="619" on="0"/>
        <pt x="497" y="664" on="0"/>
        <pt x="444" y="690" on="0"/>
        <pt x="413" y="690" on="1"/>
      </contour>
    </TTGlyph>
    <TTGlyph name="B.sc" xMin="95" yMin="0" xMax="512" yMax="540">
      <contour>
        <pt x="512" y="140" on="1"/>
        <pt x="512" y="111" on="0"/>
        <pt x="489" y="61" on="0"/>
        <pt x="449" y="22" on="0"/>
        <pt x="395" y="0" on="0"/>
        <pt x="365" y="0" on="1"/>
        <pt x="95" y="0" on="1"/>
        <pt x="95" y="540" on="1"/>
        <pt x="355" y="540" on="1"/>
        <pt x="386" y="540" on="0"/>
        <pt x="435" y="516" on="0"/>
        <pt x="469" y="477" on="0"/>
        <pt x="487" y="427" on="0"/>
        <pt x="487" y="402" on="1"/>
        <pt x="487" y="360" on="0"/>
        <pt x="442" y="293" on="0"/>
        <pt x="404" y="277" on="1"/>
        <pt x="454" y="263" on="0"/>
        <pt x="512" y="187" on="0"/>
      </contour>
      <contour>
        <pt x="492" y="141" on="1"/>
        <pt x="492" y="165" on="0"/>
        <pt x="474" y="209" on="0"/>
        <pt x="441" y="243" on="0"/>
        <pt x="397" y="263" on="0"/>
        <pt x="371" y="263" on="1"/>
        <pt x="115" y="263" on="1"/>
        <pt x="115" y="19" on="1"/>
        <pt x="365" y="19" on="1"/>
        <pt x="392" y="19" on="0"/>
        <pt x="438" y="40" on="0"/>
        <pt x="472" y="74" on="0"/>
        <pt x="492" y="118" on="0"/>
      </contour>
      <contour>
        <pt x="115" y="520" on="1"/>
        <pt x="115" y="282" on="1"/>
        <pt x="348" y="282" on="1"/>
        <pt x="374" y="282" on="0"/>
        <pt x="418" y="303" on="0"/>
        <pt x="449" y="336" on="0"/>
        <pt x="467" y="379" on="0"/>
        <pt x="467" y="401" on="1"/>
        <pt x="467" y="425" on="0"/>
        <pt x="450" y="468" on="0"/>
        <pt x="420" y="501" on="0"/>
        <pt x="378" y="520" on="0"/>
        <pt x="353" y="520" on="1"/>
      </contour>
    </TTGlyph>
    <TTGlyph name="C" xMin="48" yMin="-6" xMax="659" yMax="714">
      <contour>
        <pt x="48" y="360" on="1"/>
        <pt x="48" y="424" on="0"/>
        <pt x="93" y="550" on="0"/>
        <pt x="178" y="651" on="0"/>
        <pt x="303" y="714" on="0"/>
        <pt x="383" y="714" on="1"/>
        <pt x="478" y="714" on="0"/>
        <pt x="610" y="627" on="0"/>
        <pt x="642" y="559" on="1"/>
        <pt x="623" y="553" on="1"/>
        <pt x="602" y="592" on="0"/>
        <pt x="547" y="646" on="0"/>
        <pt x="482" y="679" on="0"/>
        <pt x="413" y="694" on="0"/>
        <pt x="379" y="694" on="1"/>
        <pt x="305" y="694" on="0"/>
        <pt x="189" y="635" on="0"/>
        <pt x="109" y="539" on="0"/>
        <pt x="68" y="418" on="0"/>
        <pt x="68" y="357" on="1"/>
        <pt x="68" y="289" on="0"/>
        <pt x="117" y="165" on="0"/>
        <pt x="202" y="70" on="0"/>
        <pt x="316" y="14" on="0"/>
        <pt x="382" y="14" on="1"/>
        <pt x="417" y="14" on="0"/>
        <pt x="491" y="32" on="0"/>
        <pt x="560" y="68" on="0"/>
        <pt x="619" y="125" on="0"/>
        <pt x="640" y="164" on="1"/>
        <pt x="659" y="159" on="1"/>
        <pt x="641" y="119" on="0"/>
        <pt x="579" y="57" on="0"/>
        <pt x="503" y="15" on="0"/>
        <pt x="418" y="-6" on="0"/>
        <pt x="378" y="-6" on="1"/>
        <pt x="306" y="-6" on="0"/>
        <pt x="184" y="58" on="0"/>
        <pt x="97" y="161" on="0"/>
        <pt x="48" y="292" on="0"/>
      </contour>
    </TTGlyph>
    <TTGlyph name="C.sc" xMin="52" yMin="-5" xMax="553" yMax="543">
      <contour>
        <pt x="52" y="274" on="1"/>
        <pt x="52" y="322" on="0"/>
        <pt x="89" y="419" on="0"/>
        <pt x="159" y="495" on="0"/>
        <pt x="261" y="543" on="0"/>
        <pt x="327" y="543" on="1"/>
        <pt x="405" y="543" on="0"/>
        <pt x="513" y="476" on="0"/>
        <pt x="540" y="425" on="1"/>
        <pt x="521" y="417" on="1"/>
        <pt x="504" y="447" on="0"/>
        <pt x="459" y="487" on="0"/>
        <pt x="407" y="512" on="0"/>
        <pt x="351" y="523" on="0"/>
        <pt x="324" y="523" on="1"/>
        <pt x="264" y="523" on="0"/>
        <pt x="170" y="479" on="0"/>
        <pt x="105" y="407" on="0"/>
        <pt x="72" y="317" on="0"/>
        <pt x="72" y="271" on="1"/>
        <pt x="72" y="220" on="0"/>
        <pt x="111" y="128" on="0"/>
        <pt x="180" y="57" on="0"/>
        <pt x="273" y="15" on="0"/>
        <pt x="326" y="15" on="1"/>
        <pt x="354" y="15" on="0"/>
        <pt x="414" y="28" on="0"/>
        <pt x="470" y="55" on="0"/>
        <pt x="518" y="98" on="0"/>
        <pt x="535" y="127" on="1"/>
        <pt x="553" y="121" on="1"/>
        <pt x="538" y="91" on="0"/>
        <pt x="487" y="44" on="0"/>
        <pt x="425" y="12" on="0"/>
        <pt x="356" y="-5" on="0"/>
        <pt x="323" y="-5" on="1"/>
        <pt x="263" y="-5" on="0"/>
        <pt x="164" y="44" on="0"/>
        <pt x="92" y="123" on="0"/>
        <pt x="52" y="223" on="0"/>
      </contour>
    </TTGlyph>
    <TTGlyph name="Cacute" xMin="48" yMin="-6" xMax="659" yMax="918">
      <contour>
        <pt x="48" y="360" on="1"/>
        <pt x="48" y="424" on="0"/>
        <pt x="93" y="550" on="0"/>
        <pt x="178" y="651" on="0"/>
        <pt x="303" y="714" on="0"/>
        <pt x="383" y="714" on="1"/>
        <pt x="478" y="714" on="0"/>
        <pt x="610" y="627" on="0"/>
        <pt x="642" y="559" on="1"/>
        <pt x="623" y="553" on="1"/>
        <pt x="602" y="592" on="0"/>
        <pt x="547" y="646" on="0"/>
        <pt x="482" y="679" on="0"/>
        <pt x="413" y="694" on="0"/>
        <pt x="379" y="694" on="1"/>
        <pt x="305" y="694" on="0"/>
        <pt x="189" y="635" on="0"/>
        <pt x="109" y="539" on="0"/>
        <pt x="68" y="418" on="0"/>
        <pt x="68" y="357" on="1"/>
        <pt x="68" y="289" on="0"/>
        <pt x="117" y="165" on="0"/>
        <pt x="202" y="70" on="0"/>
        <pt x="316" y="14" on="0"/>
        <pt x="382" y="14" on="1"/>
        <pt x="417" y="14" on="0"/>
        <pt x="491" y="32" on="0"/>
        <pt x="560" y="68" on="0"/>
        <pt x="619" y="125" on="0"/>
        <pt x="640" y="164" on="1"/>
        <pt x="659" y="159" on="1"/>
        <pt x="641" y="119" on="0"/>
        <pt x="579" y="57" on="0"/>
        <pt x="503" y="15" on="0"/>
        <pt x="418" y="-6" on="0"/>
        <pt x="378" y="-6" on="1"/>
        <pt x="306" y="-6" on="0"/>
        <pt x="184" y="58" on="0"/>
        <pt x="97" y="161" on="0"/>
        <pt x="48" y="292" on="0"/>
      </contour>
      <contour>
        <pt x="367" y="833" on="1"/>
        <pt x="351" y="845" on="1"/>
        <pt x="415" y="918" on="1"/>
        <pt x="449" y="918" on="1"/>
      </contour>
    </TTGlyph>
    <TTGlyph name="Ccaron" xMin="48" yMin="-6" xMax="659" yMax="918">
      <contour>
        <pt x="48" y="360" on="1"/>
        <pt x="48" y="424" on="0"/>
        <pt x="93" y="550" on="0"/>
        <pt x="178" y="651" on="0"/>
        <pt x="303" y="714" on="0"/>
        <pt x="383" y="714" on="1"/>
        <pt x="478" y="714" on="0"/>
        <pt x="610" y="627" on="0"/>
        <pt x="642" y="559" on="1"/>
        <pt x="623" y="553" on="1"/>
        <pt x="602" y="592" on="0"/>
        <pt x="547" y="646" on="0"/>
        <pt x="482" y="679" on="0"/>
        <pt x="413" y="694" on="0"/>
        <pt x="379" y="694" on="1"/>
        <pt x="305" y="694" on="0"/>
        <pt x="189" y="635" on="0"/>
        <pt x="109" y="539" on="0"/>
        <pt x="68" y="418" on="0"/>
        <pt x="68" y="357" on="1"/>
        <pt x="68" y="289" on="0"/>
        <pt x="117" y="165" on="0"/>
        <pt x="202" y="70" on="0"/>
        <pt x="316" y="14" on="0"/>
        <pt x="382" y="14" on="1"/>
        <pt x="417" y="14" on="0"/>
        <pt x="491" y="32" on="0"/>
        <pt x="560" y="68" on="0"/>
        <pt x="619" y="125" on="0"/>
        <pt x="640" y="164" on="1"/>
        <pt x="659" y="159" on="1"/>
        <pt x="641" y="119" on="0"/>
        <pt x="579" y="57" on="0"/>
        <pt x="503" y="15" on="0"/>
        <pt x="418" y="-6" on="0"/>
        <pt x="378" y="-6" on="1"/>
        <pt x="306" y="-6" on="0"/>
        <pt x="184" y="58" on="0"/>
        <pt x="97" y="161" on="0"/>
        <pt x="48" y="292" on="0"/>
      </contour>
      <contour>
        <pt x="296" y="918" on="1"/>
        <pt x="381" y="855" on="1"/>
        <pt x="466" y="918" on="1"/>
        <pt x="482" y="906" on="1"/>
        <pt x="389" y="832" on="1"/>
        <pt x="373" y="832" on="1"/>
        <pt x="280" y="906" on="1"/>
      </contour>
    </TTGlyph>
    <TTGlyph name="Ccedilla" xMin="44" yMin="-162" xMax="655" yMax="714">
      <contour>
        <pt x="306" y="-125" on="1"/>
        <pt x="321" y="-132" on="0"/>
        <pt x="367" y="-143" on="0"/>
        <pt x="393" y="-143" on="1"/>
        <pt x="451" y="-143" on="0"/>
        <pt x="451" y="-105" on="1"/>
        <pt x="451" y="-84" on="0"/>
        <pt x="424" y="-67" on="0"/>
        <pt x="403" y="-67" on="1"/>
        <pt x="382" y="-67" on="0"/>
        <pt x="336" y="-78" on="0"/>
        <pt x="322" y="-83" on="1"/>
        <pt x="366" y="-5" on="1"/>
        <pt x="295" y="-4" on="0"/>
        <pt x="177" y="61" on="0"/>
        <pt x="91" y="164" on="0"/>
        <pt x="44" y="293" on="0"/>
        <pt x="44" y="360" on="1"/>
        <pt x="44" y="424" on="0"/>
        <pt x="89" y="550" on="0"/>
        <pt x="174" y="651" on="0"/>
        <pt x="299" y="714" on="0"/>
        <pt x="379" y="714" on="1"/>
        <pt x="474" y="714" on="0"/>
        <pt x="606" y="627" on="0"/>
        <pt x="638" y="559" on="1"/>
        <pt x="619" y="553" on="1"/>
        <pt x="598" y="592" on="0"/>
        <pt x="543" y="646" on="0"/>
        <pt x="478" y="679" on="0"/>
        <pt x="409" y="694" on="0"/>
        <pt x="375" y="694" on="1"/>
        <pt x="301" y="694" on="0"/>
        <pt x="185" y="635" on="0"/>
        <pt x="105" y="539" on="0"/>
        <pt x="64" y="418" on="0"/>
        <pt x="64" y="357" on="1"/>
        <pt x="64" y="289" on="0"/>
        <pt x="113" y="165" on="0"/>
        <pt x="198" y="70" on="0"/>
        <pt x="312" y="14" on="0"/>
        <pt x="378" y="14" on="1"/>
        <pt x="413" y="14" on="0"/>
        <pt x="487" y="32" on="0"/>
        <pt x="556" y="68" on="0"/>
        <pt x="615" y="125" on="0"/>
        <pt x="636" y="164" on="1"/>
        <pt x="655" y="159" on="1"/>
        <pt x="637" y="121" on="0"/>
        <pt x="580" y="61" on="0"/>
        <pt x="509" y="20" on="0"/>
        <pt x="430" y="-3" on="0"/>
        <pt x="391" y="-5" on="1"/>
        <pt x="361" y="-57" on="1"/>
        <pt x="371" y="-53" on="0"/>
        <pt x="395" y="-51" on="0"/>
        <pt x="403" y="-51" on="1"/>
        <pt x="471" y="-51" on="0"/>
        <pt x="471" y="-105" on="1"/>
        <pt x="471" y="-135" on="0"/>
        <pt x="428" y="-162" on="0"/>
        <pt x="390" y="-162" on="1"/>
        <pt x="364" y="-162" on="0"/>
        <pt x="315" y="-151" on="0"/>
        <pt x="296" y="-143" on="1"/>
      </contour>
    </TTGlyph>
    <TTGlyph name="Ccircumflex" xMin="48" yMin="-6" xMax="659" yMax="918">
      <contour>
        <pt x="48" y="360" on="1"/>
        <pt x="48" y="424" on="0"/>
        <pt x="93" y="550" on="0"/>
        <pt x="178" y="651" on="0"/>
        <pt x="303" y="714" on="0"/>
        <pt x="383" y="714" on="1"/>
        <pt x="478" y="714" on="0"/>
        <pt x="610" y="627" on="0"/>
        <pt x="642" y="559" on="1"/>
        <pt x="623" y="553" on="1"/>
        <pt x="602" y="592" on="0"/>
        <pt x="547" y="646" on="0"/>
        <pt x="482" y="679" on="0"/>
        <pt x="413" y="694" on="0"/>
        <pt x="379" y="694" on="1"/>
        <pt x="305" y="694" on="0"/>
        <pt x="189" y="635" on="0"/>
        <pt x="109" y="539" on="0"/>
        <pt x="68" y="418" on="0"/>
        <pt x="68" y="357" on="1"/>
        <pt x="68" y="289" on="0"/>
        <pt x="117" y="165" on="0"/>
        <pt x="202" y="70" on="0"/>
        <pt x="316" y="14" on="0"/>
        <pt x="382" y="14" on="1"/>
        <pt x="417" y="14" on="0"/>
        <pt x="491" y="32" on="0"/>
        <pt x="560" y="68" on="0"/>
        <pt x="619" y="125" on="0"/>
        <pt x="640" y="164" on="1"/>
        <pt x="659" y="159" on="1"/>
        <pt x="641" y="119" on="0"/>
        <pt x="579" y="57" on="0"/>
        <pt x="503" y="15" on="0"/>
        <pt x="418" y="-6" on="0"/>
        <pt x="378" y="-6" on="1"/>
        <pt x="306" y="-6" on="0"/>
        <pt x="184" y="58" on="0"/>
        <pt x="97" y="161" on="0"/>
        <pt x="48" y="292" on="0"/>
      </contour>
      <contour>
        <pt x="280" y="844" on="1"/>
        <pt x="373" y="918" on="1"/>
        <pt x="389" y="918" on="1"/>
        <pt x="482" y="844" on="1"/>
        <pt x="466" y="832" on="1"/>
        <pt x="381" y="895" on="1"/>
        <pt x="296" y="832" on="1"/>
      </contour>
    </TTGlyph>
    <TTGlyph name="Cdotaccent" xMin="48" yMin="-6" xMax="659" yMax="918">
      <contour>
        <pt x="48" y="360" on="1"/>
        <pt x="48" y="424" on="0"/>
        <pt x="93" y="550" on="0"/>
        <pt x="178" y="651" on="0"/>
        <pt x="303" y="714" on="0"/>
        <pt x="383" y="714" on="1"/>
        <pt x="478" y="714" on="0"/>
        <pt x="610" y="627" on="0"/>
        <pt x="642" y="559" on="1"/>
        <pt x="623" y="553" on="1"/>
        <pt x="602" y="592" on="0"/>
        <pt x="547" y="646" on="0"/>
        <pt x="482" y="679" on="0"/>
        <pt x="413" y="694" on="0"/>
        <pt x="379" y="694" on="1"/>
        <pt x="305" y="694" on="0"/>
        <pt x="189" y="635" on="0"/>
        <pt x="109" y="539" on="0"/>
        <pt x="68" y="418" on="0"/>
        <pt x="68" y="357" on="1"/>
        <pt x="68" y="289" on="0"/>
        <pt x="117" y="165" on="0"/>
        <pt x="202" y="70" on="0"/>
        <pt x="316" y="14" on="0"/>
        <pt x="382" y="14" on="1"/>
        <pt x="417" y="14" on="0"/>
        <pt x="491" y="32" on="0"/>
        <pt x="560" y="68" on="0"/>
        <pt x="619" y="125" on="0"/>
        <pt x="640" y="164" on="1"/>
        <pt x="659" y="159" on="1"/>
        <pt x="641" y="119" on="0"/>
        <pt x="579" y="57" on="0"/>
        <pt x="503" y="15" on="0"/>
        <pt x="418" y="-6" on="0"/>
        <pt x="378" y="-6" on="1"/>
        <pt x="306" y="-6" on="0"/>
        <pt x="184" y="58" on="0"/>
        <pt x="97" y="161" on="0"/>
        <pt x="48" y="292" on="0"/>
      </contour>
      <contour>
        <pt x="371" y="841" on="1"/>
        <pt x="371" y="918" on="1"/>
        <pt x="391" y="918" on="1"/>
        <pt x="391" y="841" on="1"/>
      </contour>
    </TTGlyph>
    <TTGlyph name="D" xMin="99" yMin="0" xMax="660" yMax="710">
      <contour>
        <pt x="99" y="0" on="1"/>
        <pt x="99" y="710" on="1"/>
        <pt x="327" y="710" on="1"/>
        <pt x="411" y="710" on="0"/>
        <pt x="536" y="654" on="0"/>
        <pt x="619" y="558" on="0"/>
        <pt x="660" y="429" on="0"/>
        <pt x="660" y="356" on="1"/>
        <pt x="660" y="275" on="0"/>
        <pt x="613" y="144" on="0"/>
        <pt x="527" y="51" on="0"/>
        <pt x="403" y="0" on="0"/>
        <pt x="327" y="0" on="1"/>
      </contour>
      <contour>
        <pt x="640" y="356" on="1"/>
        <pt x="640" y="429" on="0"/>
        <pt x="599" y="551" on="0"/>
        <pt x="519" y="640" on="0"/>
        <pt x="402" y="690" on="0"/>
        <pt x="327" y="690" on="1"/>
        <pt x="119" y="690" on="1"/>
        <pt x="119" y="20" on="1"/>
        <pt x="327" y="20" on="1"/>
        <pt x="404" y="20" on="0"/>
        <pt x="521" y="71" on="0"/>
        <pt x="600" y="161" on="0"/>
        <pt x="640" y="284" on="0"/>
      </contour>
    </TTGlyph>
    <TTGlyph name="D.sc" xMin="95" yMin="0" xMax="557" yMax="540">
      <contour>
        <pt x="95" y="0" on="1"/>
        <pt x="95" y="540" on="1"/>
        <pt x="283" y="540" on="1"/>
        <pt x="352" y="540" on="0"/>
        <pt x="454" y="498" on="0"/>
        <pt x="523" y="425" on="0"/>
        <pt x="557" y="327" on="0"/>
        <pt x="557" y="271" on="1"/>
        <pt x="557" y="209" on="0"/>
        <pt x="518" y="109" on="0"/>
        <pt x="447" y="39" on="0"/>
        <pt x="346" y="0" on="0"/>
        <pt x="283" y="0" on="1"/>
      </contour>
      <contour>
        <pt x="536" y="271" on="1"/>
        <pt x="536" y="325" on="0"/>
        <pt x="503" y="417" on="0"/>
        <pt x="438" y="483" on="0"/>
        <pt x="344" y="520" on="0"/>
        <pt x="283" y="520" on="1"/>
        <pt x="115" y="520" on="1"/>
        <pt x="115" y="19" on="1"/>
        <pt x="283" y="19" on="1"/>
        <pt x="346" y="19" on="0"/>
        <pt x="440" y="58" on="0"/>
        <pt x="504" y="125" on="0"/>
        <pt x="536" y="217" on="0"/>
      </contour>
    </TTGlyph>
    <TTGlyph name="Dcaron" xMin="99" yMin="0" xMax="660" yMax="918">
      <contour>
        <pt x="99" y="0" on="1"/>
        <pt x="99" y="710" on="1"/>
        <pt x="327" y="710" on="1"/>
        <pt x="411" y="710" on="0"/>
        <pt x="536" y="654" on="0"/>
        <pt x="619" y="558" on="0"/>
        <pt x="660" y="429" on="0"/>
        <pt x="660" y="356" on="1"/>
        <pt x="660" y="275" on="0"/>
        <pt x="613" y="144" on="0"/>
        <pt x="527" y="51" on="0"/>
        <pt x="403" y="0" on="0"/>
        <pt x="327" y="0" on="1"/>
      </contour>
      <contour>
        <pt x="640" y="356" on="1"/>
        <pt x="640" y="429" on="0"/>
        <pt x="599" y="551" on="0"/>
        <pt x="519" y="640" on="0"/>
        <pt x="402" y="690" on="0"/>
        <pt x="327" y="690" on="1"/>
        <pt x="119" y="690" on="1"/>
        <pt x="119" y="20" on="1"/>
        <pt x="327" y="20" on="1"/>
        <pt x="404" y="20" on="0"/>
        <pt x="521" y="71" on="0"/>
        <pt x="600" y="161" on="0"/>
        <pt x="640" y="284" on="0"/>
      </contour>
      <contour>
        <pt x="268" y="918" on="1"/>
        <pt x="353" y="855" on="1"/>
        <pt x="438" y="918" on="1"/>
        <pt x="454" y="906" on="1"/>
        <pt x="361" y="832" on="1"/>
        <pt x="345" y="832" on="1"/>
        <pt x="252" y="906" on="1"/>
      </contour>
    </TTGlyph>
    <TTGlyph name="Dcroat" xMin="35" yMin="0" xMax="667" yMax="710">
      <contour>
        <pt x="106" y="0" on="1"/>
        <pt x="106" y="347" on="1"/>
        <pt x="35" y="347" on="1"/>
        <pt x="35" y="367" on="1"/>
        <pt x="106" y="367" on="1"/>
        <pt x="106" y="710" on="1"/>
        <pt x="334" y="710" on="1"/>
        <pt x="418" y="710" on="0"/>
        <pt x="543" y="654" on="0"/>
        <pt x="626" y="558" on="0"/>
        <pt x="667" y="429" on="0"/>
        <pt x="667" y="356" on="1"/>
        <pt x="667" y="275" on="0"/>
        <pt x="620" y="144" on="0"/>
        <pt x="534" y="51" on="0"/>
        <pt x="410" y="0" on="0"/>
        <pt x="334" y="0" on="1"/>
      </contour>
      <contour>
        <pt x="647" y="356" on="1"/>
        <pt x="647" y="429" on="0"/>
        <pt x="606" y="551" on="0"/>
        <pt x="526" y="640" on="0"/>
        <pt x="409" y="690" on="0"/>
        <pt x="334" y="690" on="1"/>
        <pt x="126" y="690" on="1"/>
        <pt x="126" y="367" on="1"/>
        <pt x="318" y="367" on="1"/>
        <pt x="318" y="347" on="1"/>
        <pt x="126" y="347" on="1"/>
        <pt x="126" y="20" on="1"/>
        <pt x="334" y="20" on="1"/>
        <pt x="411" y="20" on="0"/>
        <pt x="528" y="71" on="0"/>
        <pt x="607" y="161" on="0"/>
        <pt x="647" y="284" on="0"/>
      </contour>
    </TTGlyph>
    <TTGlyph name="Ddotbelow" xMin="99" yMin="-127" xMax="660" yMax="710">
      <contour>
        <pt x="99" y="0" on="1"/>
        <pt x="99" y="710" on="1"/>
        <pt x="327" y="710" on="1"/>
        <pt x="411" y="710" on="0"/>
        <pt x="536" y="654" on="0"/>
        <pt x="619" y="558" on="0"/>
        <pt x="660" y="429" on="0"/>
        <pt x="660" y="356" on="1"/>
        <pt x="660" y="275" on="0"/>
        <pt x="613" y="144" on="0"/>
        <pt x="527" y="51" on="0"/>
        <pt x="403" y="0" on="0"/>
        <pt x="327" y="0" on="1"/>
      </contour>
      <contour>
        <pt x="640" y="356" on="1"/>
        <pt x="640" y="429" on="0"/>
        <pt x="599" y="551" on="0"/>
        <pt x="519" y="640" on="0"/>
        <pt x="402" y="690" on="0"/>
        <pt x="327" y="690" on="1"/>
        <pt x="119" y="690" on="1"/>
        <pt x="119" y="20" on="1"/>
        <pt x="327" y="20" on="1"/>
        <pt x="404" y="20" on="0"/>
        <pt x="521" y="71" on="0"/>
        <pt x="600" y="161" on="0"/>
        <pt x="640" y="284" on="0"/>
      </contour>
      <contour>
        <pt x="328" y="-127" on="1"/>
        <pt x="328" y="-50" on="1"/>
        <pt x="348" y="-50" on="1"/>
        <pt x="348" y="-127" on="1"/>
      </contour>
    </TTGlyph>
    <TTGlyph name="Delta" xMin="3" yMin="0" xMax="602" yMax="710">
      <contour>
        <pt x="602" y="20" on="1"/>
        <pt x="602" y="0" on="1"/>
        <pt x="4" y="0" on="1"/>
        <pt x="3" y="20" on="1"/>
        <pt x="294" y="710" on="1"/>
        <pt x="312" y="710" on="1"/>
      </contour>
      <contour>
        <pt x="580" y="20" on="1"/>
        <pt x="303" y="681" on="1"/>
        <pt x="25" y="20" on="1"/>
      </contour>
    </TTGlyph>
    <TTGlyph name="E" xMin="99" yMin="0" xMax="565" yMax="710">
      <contour>
        <pt x="565" y="20" on="1"/>
        <pt x="565" y="0" on="1"/>
        <pt x="99" y="0" on="1"/>
        <pt x="99" y="710" on="1"/>
        <pt x="556" y="710" on="1"/>
        <pt x="556" y="690" on="1"/>
        <pt x="119" y="690" on="1"/>
        <pt x="119" y="373" on="1"/>
        <pt x="502" y="373" on="1"/>
        <pt x="502" y="353" on="1"/>
        <pt x="119" y="353" on="1"/>
        <pt x="119" y="20" on="1"/>
      </contour>
    </TTGlyph>
    <TTGlyph name="E.sc" xMin="95" yMin="0" xMax="478" yMax="540">
      <contour>
        <pt x="478" y="19" on="1"/>
        <pt x="478" y="0" on="1"/>
        <pt x="95" y="0" on="1"/>
        <pt x="95" y="540" on="1"/>
        <pt x="471" y="540" on="1"/>
        <pt x="471" y="520" on="1"/>
        <pt x="115" y="520" on="1"/>
        <pt x="115" y="285" on="1"/>
        <pt x="427" y="285" on="1"/>
        <pt x="427" y="266" on="1"/>
        <pt x="115" y="266" on="1"/>
        <pt x="115" y="19" on="1"/>
      </contour>
    </TTGlyph>
    <TTGlyph name="Eacute" xMin="99" yMin="0" xMax="565" yMax="918">
      <contour>
        <pt x="565" y="20" on="1"/>
        <pt x="565" y="0" on="1"/>
        <pt x="99" y="0" on="1"/>
        <pt x="99" y="710" on="1"/>
        <pt x="556" y="710" on="1"/>
        <pt x="556" y="690" on="1"/>
        <pt x="119" y="690" on="1"/>
        <pt x="119" y="373" on="1"/>
        <pt x="502" y="373" on="1"/>
        <pt x="502" y="353" on="1"/>
        <pt x="119" y="353" on="1"/>
        <pt x="119" y="20" on="1"/>
      </contour>
      <contour>
        <pt x="330" y="833" on="1"/>
        <pt x="314" y="845" on="1"/>
        <pt x="378" y="918" on="1"/>
        <pt x="412" y="918" on="1"/>
      </contour>
    </TTGlyph>
    <TTGlyph name="Ebreve" xMin="99" yMin="0" xMax="565" yMax="918">
      <contour>
        <pt x="565" y="20" on="1"/>
        <pt x="565" y="0" on="1"/>
        <pt x="99" y="0" on="1"/>
        <pt x="99" y="710" on="1"/>
        <pt x="556" y="710" on="1"/>
        <pt x="556" y="690" on="1"/>
        <pt x="119" y="690" on="1"/>
        <pt x="119" y="373" on="1"/>
        <pt x="502" y="373" on="1"/>
        <pt x="502" y="353" on="1"/>
        <pt x="119" y="353" on="1"/>
        <pt x="119" y="20" on="1"/>
      </contour>
      <contour>
        <pt x="344" y="858" on="1"/>
        <pt x="364" y="858" on="0"/>
        <pt x="397" y="893" on="0"/>
        <pt x="400" y="918" on="1"/>
        <pt x="418" y="918" on="1"/>
        <pt x="418" y="903" on="0"/>
        <pt x="406" y="875" on="0"/>
        <pt x="385" y="854" on="0"/>
        <pt x="359" y="841" on="0"/>
        <pt x="344" y="841" on="1"/>
        <pt x="329" y="841" on="0"/>
        <pt x="303" y="854" on="0"/>
        <pt x="282" y="875" on="0"/>
        <pt x="270" y="903" on="0"/>
        <pt x="270" y="918" on="1"/>
        <pt x="289" y="918" on="1"/>
        <pt x="289" y="895" on="0"/>
        <pt x="323" y="858" on="0"/>
      </contour>
    </TTGlyph>
    <TTGlyph name="Ecaron" xMin="99" yMin="0" xMax="565" yMax="918">
      <contour>
        <pt x="565" y="20" on="1"/>
        <pt x="565" y="0" on="1"/>
        <pt x="99" y="0" on="1"/>
        <pt x="99" y="710" on="1"/>
        <pt x="556" y="710" on="1"/>
        <pt x="556" y="690" on="1"/>
        <pt x="119" y="690" on="1"/>
        <pt x="119" y="373" on="1"/>
        <pt x="502" y="373" on="1"/>
        <pt x="502" y="353" on="1"/>
        <pt x="119" y="353" on="1"/>
        <pt x="119" y="20" on="1"/>
      </contour>
      <contour>
        <pt x="259" y="918" on="1"/>
        <pt x="344" y="855" on="1"/>
        <pt x="429" y="918" on="1"/>
        <pt x="445" y="906" on="1"/>
        <pt x="352" y="832" on="1"/>
        <pt x="336" y="832" on="1"/>
        <pt x="243" y="906" on="1"/>
      </contour>
    </TTGlyph>
    <TTGlyph name="Ecircumflex" xMin="99" yMin="0" xMax="565" yMax="918">
      <contour>
        <pt x="565" y="20" on="1"/>
        <pt x="565" y="0" on="1"/>
        <pt x="99" y="0" on="1"/>
        <pt x="99" y="710" on="1"/>
        <pt x="556" y="710" on="1"/>
        <pt x="556" y="690" on="1"/>
        <pt x="119" y="690" on="1"/>
        <pt x="119" y="373" on="1"/>
        <pt x="502" y="373" on="1"/>
        <pt x="502" y="353" on="1"/>
        <pt x="119" y="353" on="1"/>
        <pt x="119" y="20" on="1"/>
      </contour>
      <contour>
        <pt x="243" y="844" on="1"/>
        <pt x="336" y="918" on="1"/>
        <pt x="352" y="918" on="1"/>
        <pt x="445" y="844" on="1"/>
        <pt x="429" y="832" on="1"/>
        <pt x="344" y="895" on="1"/>
        <pt x="259" y="832" on="1"/>
      </contour>
    </TTGlyph>
    <TTGlyph name="Edblgrave" xMin="99" yMin="0" xMax="565" yMax="918">
      <contour>
        <pt x="565" y="20" on="1"/>
        <pt x="565" y="0" on="1"/>
        <pt x="99" y="0" on="1"/>
        <pt x="99" y="710" on="1"/>
        <pt x="556" y="710" on="1"/>
        <pt x="556" y="690" on="1"/>
        <pt x="119" y="690" on="1"/>
        <pt x="119" y="373" on="1"/>
        <pt x="502" y="373" on="1"/>
        <pt x="502" y="353" on="1"/>
        <pt x="119" y="353" on="1"/>
        <pt x="119" y="20" on="1"/>
      </contour>
      <contour>
        <pt x="304" y="918" on="1"/>
        <pt x="338" y="918" on="1"/>
        <pt x="402" y="845" on="1"/>
        <pt x="386" y="833" on="1"/>
      </contour>
      <contour>
        <pt x="204" y="918" on="1"/>
        <pt x="238" y="918" on="1"/>
        <pt x="302" y="845" on="1"/>
        <pt x="286" y="833" on="1"/>
      </contour>
    </TTGlyph>
    <TTGlyph name="Edieresis" xMin="99" yMin="0" xMax="565" yMax="918">
      <contour>
        <pt x="565" y="20" on="1"/>
        <pt x="565" y="0" on="1"/>
        <pt x="99" y="0" on="1"/>
        <pt x="99" y="710" on="1"/>
        <pt x="556" y="710" on="1"/>
        <pt x="556" y="690" on="1"/>
        <pt x="119" y="690" on="1"/>
        <pt x="119" y="373" on="1"/>
        <pt x="502" y="373" on="1"/>
        <pt x="502" y="353" on="1"/>
        <pt x="119" y="353" on="1"/>
        <pt x="119" y="20" on="1"/>
      </contour>
      <contour>
        <pt x="276" y="841" on="1"/>
        <pt x="276" y="918" on="1"/>
        <pt x="296" y="918" on="1"/>
        <pt x="296" y="841" on="1"/>
      </contour>
      <contour>
        <pt x="392" y="841" on="1"/>
        <pt x="392" y="918" on="1"/>
        <pt x="412" y="918" on="1"/>
        <pt x="412" y="841" on="1"/>
      </contour>
    </TTGlyph>
    <TTGlyph name="Edotaccent" xMin="99" yMin="0" xMax="565" yMax="918">
      <contour>
        <pt x="565" y="20" on="1"/>
        <pt x="565" y="0" on="1"/>
        <pt x="99" y="0" on="1"/>
        <pt x="99" y="710" on="1"/>
        <pt x="556" y="710" on="1"/>
        <pt x="556" y="690" on="1"/>
        <pt x="119" y="690" on="1"/>
        <pt x="119" y="373" on="1"/>
        <pt x="502" y="373" on="1"/>
        <pt x="502" y="353" on="1"/>
        <pt x="119" y="353" on="1"/>
        <pt x="119" y="20" on="1"/>
      </contour>
      <contour>
        <pt x="334" y="841" on="1"/>
        <pt x="334" y="918" on="1"/>
        <pt x="354" y="918" on="1"/>
        <pt x="354" y="841" on="1"/>
      </contour>
    </TTGlyph>
    <TTGlyph name="Edotbelow" xMin="99" yMin="-127" xMax="565" yMax="710">
      <contour>
        <pt x="565" y="20" on="1"/>
        <pt x="565" y="0" on="1"/>
        <pt x="99" y="0" on="1"/>
        <pt x="99" y="710" on="1"/>
        <pt x="556" y="710" on="1"/>
        <pt x="556" y="690" on="1"/>
        <pt x="119" y="690" on="1"/>
        <pt x="119" y="373" on="1"/>
        <pt x="502" y="373" on="1"/>
        <pt x="502" y="353" on="1"/>
        <pt x="119" y="353" on="1"/>
        <pt x="119" y="20" on="1"/>
      </contour>
      <contour>
        <pt x="329" y="-127" on="1"/>
        <pt x="329" y="-50" on="1"/>
        <pt x="349" y="-50" on="1"/>
        <pt x="349" y="-127" on="1"/>
      </contour>
    </TTGlyph>
    <TTGlyph name="Egrave" xMin="99" yMin="0" xMax="565" yMax="918">
      <contour>
        <pt x="565" y="20" on="1"/>
        <pt x="565" y="0" on="1"/>
        <pt x="99" y="0" on="1"/>
        <pt x="99" y="710" on="1"/>
        <pt x="556" y="710" on="1"/>
        <pt x="556" y="690" on="1"/>
        <pt x="119" y="690" on="1"/>
        <pt x="119" y="373" on="1"/>
        <pt x="502" y="373" on="1"/>
        <pt x="502" y="353" on="1"/>
        <pt x="119" y="353" on="1"/>
        <pt x="119" y="20" on="1"/>
      </contour>
      <contour>
        <pt x="276" y="918" on="1"/>
        <pt x="309" y="918" on="1"/>
        <pt x="374" y="845" on="1"/>
        <pt x="358" y="833" on="1"/>
      </contour>
    </TTGlyph>
    <TTGlyph name="Einvertedbreve" xMin="99" yMin="0" xMax="565" yMax="918">
      <contour>
        <pt x="565" y="20" on="1"/>
        <pt x="565" y="0" on="1"/>
        <pt x="99" y="0" on="1"/>
        <pt x="99" y="710" on="1"/>
        <pt x="556" y="710" on="1"/>
        <pt x="556" y="690" on="1"/>
        <pt x="119" y="690" on="1"/>
        <pt x="119" y="373" on="1"/>
        <pt x="502" y="373" on="1"/>
        <pt x="502" y="353" on="1"/>
        <pt x="119" y="353" on="1"/>
        <pt x="119" y="20" on="1"/>
      </contour>
      <contour>
        <pt x="329" y="901" on="1"/>
        <pt x="308" y="901" on="0"/>
        <pt x="274" y="864" on="0"/>
        <pt x="274" y="841" on="1"/>
        <pt x="255" y="841" on="1"/>
        <pt x="255" y="856" on="0"/>
        <pt x="267" y="884" on="0"/>
        <pt x="288" y="905" on="0"/>
        <pt x="314" y="918" on="0"/>
        <pt x="329" y="918" on="1"/>
        <pt x="344" y="918" on="0"/>
        <pt x="370" y="905" on="0"/>
        <pt x="391" y="884" on="0"/>
        <pt x="403" y="856" on="0"/>
        <pt x="403" y="841" on="1"/>
        <pt x="385" y="841" on="1"/>
        <pt x="382" y="866" on="0"/>
        <pt x="349" y="901" on="0"/>
      </contour>
    </TTGlyph>
    <TTGlyph name="Emacron" xMin="99" yMin="0" xMax="565" yMax="894">
      <contour>
        <pt x="565" y="20" on="1"/>
        <pt x="565" y="0" on="1"/>
        <pt x="99" y="0" on="1"/>
        <pt x="99" y="710" on="1"/>
        <pt x="556" y="710" on="1"/>
        <pt x="556" y="690" on="1"/>
        <pt x="119" y="690" on="1"/>
        <pt x="119" y="373" on="1"/>
        <pt x="502" y="373" on="1"/>
        <pt x="502" y="353" on="1"/>
        <pt x="119" y="353" on="1"/>
        <pt x="119" y="20" on="1"/>
      </contour>
      <contour>
        <pt x="204" y="874" on="1"/>
        <pt x="204" y="894" on="1"/>
        <pt x="484" y="894" on="1"/>
        <pt x="484" y="874" on="1"/>
      </contour>
    </TTGlyph>
    <TTGlyph name="Eng" xMin="99" yMin="-170" xMax="677" yMax="710">
      <contour>
        <pt x="119" y="671" on="1"/>
        <pt x="119" y="0" on="1"/>
        <pt x="99" y="0" on="1"/>
        <pt x="99" y="710" on="1"/>
        <pt x="114" y="710" on="1"/>
        <pt x="657" y="29" on="1"/>
        <pt x="657" y="709" on="1"/>
        <pt x="677" y="709" on="1"/>
        <pt x="677" y="-36" on="1"/>
        <pt x="677" y="-65" on="0"/>
        <pt x="653" y="-114" on="0"/>
        <pt x="615" y="-150" on="0"/>
        <pt x="567" y="-170" on="0"/>
        <pt x="544" y="-170" on="1"/>
        <pt x="515" y="-170" on="0"/>
        <pt x="464" y="-156" on="0"/>
        <pt x="444" y="-136" on="1"/>
        <pt x="460" y="-124" on="1"/>
        <pt x="478" y="-140" on="0"/>
        <pt x="522" y="-150" on="0"/>
        <pt x="543" y="-150" on="1"/>
        <pt x="564" y="-150" on="0"/>
        <pt x="604" y="-132" on="0"/>
        <pt x="637" y="-102" on="0"/>
        <pt x="657" y="-60" on="0"/>
        <pt x="657" y="-36" on="1"/>
        <pt x="657" y="-4" on="1"/>
      </contour>
    </TTGlyph>
    <TTGlyph name="Eogonek" xMin="99" yMin="-159" xMax="565" yMax="710">
      <contour>
        <pt x="516" y="-159" on="1"/>
        <pt x="491" y="-153" on="0"/>
        <pt x="464" y="-121" on="0"/>
        <pt x="464" y="-98" on="1"/>
        <pt x="464" y="-74" on="0"/>
        <pt x="496" y="-29" on="0"/>
        <pt x="534" y="0" on="1"/>
        <pt x="99" y="0" on="1"/>
        <pt x="99" y="710" on="1"/>
        <pt x="556" y="710" on="1"/>
        <pt x="556" y="690" on="1"/>
        <pt x="119" y="690" on="1"/>
        <pt x="119" y="373" on="1"/>
        <pt x="502" y="373" on="1"/>
        <pt x="502" y="353" on="1"/>
        <pt x="119" y="353" on="1"/>
        <pt x="119" y="20" on="1"/>
        <pt x="565" y="20" on="1"/>
        <pt x="565" y="0" on="1"/>
        <pt x="520" y="-31" on="0"/>
        <pt x="484" y="-72" on="0"/>
        <pt x="484" y="-95" on="1"/>
        <pt x="484" y="-133" on="0"/>
        <pt x="528" y="-142" on="1"/>
        <pt x="516" y="-159" on="1"/>
      </contour>
    </TTGlyph>
    <TTGlyph name="Eth" xMin="35" yMin="0" xMax="667" yMax="710">
      <contour>
        <pt x="106" y="0" on="1"/>
        <pt x="106" y="347" on="1"/>
        <pt x="35" y="347" on="1"/>
        <pt x="35" y="367" on="1"/>
        <pt x="106" y="367" on="1"/>
        <pt x="106" y="710" on="1"/>
        <pt x="334" y="710" on="1"/>
        <pt x="418" y="710" on="0"/>
        <pt x="543" y="654" on="0"/>
        <pt x="626" y="558" on="0"/>
        <pt x="667" y="429" on="0"/>
        <pt x="667" y="356" on="1"/>
        <pt x="667" y="275" on="0"/>
        <pt x="620" y="144" on="0"/>
        <pt x="534" y="51" on="0"/>
        <pt x="410" y="0" on="0"/>
        <pt x="334" y="0" on="1"/>
      </contour>
      <contour>
        <pt x="647" y="356" on="1"/>
        <pt x="647" y="429" on="0"/>
        <pt x="606" y="551" on="0"/>
        <pt x="526" y="640" on="0"/>
        <pt x="409" y="690" on="0"/>
        <pt x="334" y="690" on="1"/>
        <pt x="126" y="690" on="1"/>
        <pt x="126" y="367" on="1"/>
        <pt x="318" y="367" on="1"/>
        <pt x="318" y="347" on="1"/>
        <pt x="126" y="347" on="1"/>
        <pt x="126" y="20" on="1"/>
        <pt x="334" y="20" on="1"/>
        <pt x="411" y="20" on="0"/>
        <pt x="528" y="71" on="0"/>
        <pt x="607" y="161" on="0"/>
        <pt x="647" y="284" on="0"/>
      </contour>
    </TTGlyph>
    <TTGlyph name="Etilde" xMin="99" yMin="0" xMax="565" yMax="918">
      <contour>
        <pt x="565" y="20" on="1"/>
        <pt x="565" y="0" on="1"/>
        <pt x="99" y="0" on="1"/>
        <pt x="99" y="710" on="1"/>
        <pt x="556" y="710" on="1"/>
        <pt x="556" y="690" on="1"/>
        <pt x="119" y="690" on="1"/>
        <pt x="119" y="373" on="1"/>
        <pt x="502" y="373" on="1"/>
        <pt x="502" y="353" on="1"/>
        <pt x="119" y="353" on="1"/>
        <pt x="119" y="20" on="1"/>
      </contour>
      <contour>
        <pt x="405" y="851" on="1"/>
        <pt x="383" y="851" on="0"/>
        <pt x="350" y="863" on="0"/>
        <pt x="322" y="877" on="0"/>
        <pt x="295" y="889" on="0"/>
        <pt x="280" y="889" on="1"/>
        <pt x="264" y="889" on="0"/>
        <pt x="244" y="876" on="0"/>
        <pt x="233" y="859" on="0"/>
        <pt x="229" y="843" on="0"/>
        <pt x="229" y="841" on="1"/>
        <pt x="209" y="841" on="1"/>
        <pt x="209" y="843" on="0"/>
        <pt x="213" y="865" on="0"/>
        <pt x="228" y="889" on="0"/>
        <pt x="257" y="908" on="0"/>
        <pt x="282" y="908" on="1"/>
        <pt x="301" y="908" on="0"/>
        <pt x="331" y="896" on="0"/>
        <pt x="359" y="882" on="0"/>
        <pt x="388" y="870" on="0"/>
        <pt x="407" y="870" on="1"/>
        <pt x="428" y="870" on="0"/>
        <pt x="451" y="884" on="0"/>
        <pt x="463" y="901" on="0"/>
        <pt x="466" y="916" on="0"/>
        <pt x="466" y="918" on="1"/>
        <pt x="486" y="918" on="1"/>
        <pt x="486" y="915" on="0"/>
        <pt x="481" y="893" on="0"/>
        <pt x="465" y="869" on="0"/>
        <pt x="432" y="851" on="0"/>
      </contour>
    </TTGlyph>
    <TTGlyph name="Euro" xMin="33" yMin="-6" xMax="760" yMax="714">
      <contour>
        <pt x="151" y="401" on="1"/>
        <pt x="158" y="460" on="0"/>
        <pt x="208" y="572" on="0"/>
        <pt x="293" y="660" on="0"/>
        <pt x="410" y="714" on="0"/>
        <pt x="484" y="714" on="1"/>
        <pt x="579" y="714" on="0"/>
        <pt x="711" y="627" on="0"/>
        <pt x="743" y="559" on="1"/>
        <pt x="724" y="553" on="1"/>
        <pt x="703" y="592" on="0"/>
        <pt x="648" y="646" on="0"/>
        <pt x="583" y="679" on="0"/>
        <pt x="514" y="694" on="0"/>
        <pt x="480" y="694" on="1"/>
        <pt x="412" y="694" on="0"/>
        <pt x="304" y="644" on="0"/>
        <pt x="226" y="562" on="0"/>
        <pt x="179" y="457" on="0"/>
        <pt x="172" y="401" on="1"/>
        <pt x="566" y="401" on="1"/>
        <pt x="556" y="381" on="1"/>
        <pt x="170" y="381" on="1"/>
        <pt x="169" y="375" on="0"/>
        <pt x="169" y="363" on="0"/>
        <pt x="169" y="357" on="1"/>
        <pt x="169" y="333" on="0"/>
        <pt x="172" y="311" on="1"/>
        <pt x="526" y="311" on="1"/>
        <pt x="516" y="291" on="1"/>
        <pt x="175" y="291" on="1"/>
        <pt x="186" y="234" on="0"/>
        <pt x="242" y="133" on="0"/>
        <pt x="323" y="58" on="0"/>
        <pt x="425" y="14" on="0"/>
        <pt x="483" y="14" on="1"/>
        <pt x="518" y="14" on="0"/>
        <pt x="592" y="32" on="0"/>
        <pt x="661" y="68" on="0"/>
        <pt x="720" y="125" on="0"/>
        <pt x="741" y="164" on="1"/>
        <pt x="760" y="159" on="1"/>
        <pt x="742" y="119" on="0"/>
        <pt x="680" y="57" on="0"/>
        <pt x="604" y="15" on="0"/>
        <pt x="519" y="-6" on="0"/>
        <pt x="479" y="-6" on="1"/>
        <pt x="416" y="-6" on="0"/>
        <pt x="307" y="43" on="0"/>
        <pt x="223" y="125" on="0"/>
        <pt x="167" y="232" on="0"/>
        <pt x="156" y="291" on="1"/>
        <pt x="33" y="291" on="1"/>
        <pt x="43" y="311" on="1"/>
        <pt x="152" y="311" on="1"/>
        <pt x="149" y="335" on="0"/>
        <pt x="149" y="360" on="1"/>
        <pt x="149" y="381" on="1"/>
        <pt x="73" y="381" on="1"/>
        <pt x="83" y="401" on="1"/>
      </contour>
    </TTGlyph>
    <TTGlyph name="F" xMin="99" yMin="0" xMax="556" yMax="710">
      <contour>
        <pt x="99" y="0" on="1"/>
        <pt x="99" y="710" on="1"/>
        <pt x="556" y="710" on="1"/>
        <pt x="556" y="690" on="1"/>
        <pt x="119" y="690" on="1"/>
        <pt x="119" y="374" on="1"/>
        <pt x="492" y="374" on="1"/>
        <pt x="492" y="354" on="1"/>
        <pt x="119" y="354" on="1"/>
        <pt x="119" y="0" on="1"/>
      </contour>
    </TTGlyph>
    <TTGlyph name="F.sc" xMin="95" yMin="0" xMax="470" yMax="540">
      <contour>
        <pt x="95" y="0" on="1"/>
        <pt x="95" y="540" on="1"/>
        <pt x="470" y="540" on="1"/>
        <pt x="470" y="520" on="1"/>
        <pt x="115" y="520" on="1"/>
        <pt x="115" y="286" on="1"/>
        <pt x="418" y="286" on="1"/>
        <pt x="418" y="266" on="1"/>
        <pt x="115" y="266" on="1"/>
        <pt x="115" y="0" on="1"/>
      </contour>
    </TTGlyph>
    <TTGlyph name="G" xMin="48" yMin="-5" xMax="659" yMax="715">
      <contour>
        <pt x="639" y="121" on="1"/>
        <pt x="528" y="-5" on="0"/>
        <pt x="383" y="-5" on="1"/>
        <pt x="309" y="-5" on="0"/>
        <pt x="186" y="58" on="0"/>
        <pt x="97" y="160" on="0"/>
        <pt x="48" y="289" on="0"/>
        <pt x="48" y="355" on="1"/>
        <pt x="48" y="424" on="0"/>
        <pt x="96" y="554" on="0"/>
        <pt x="181" y="655" on="0"/>
        <pt x="300" y="715" on="0"/>
        <pt x="371" y="715" on="1"/>
        <pt x="426" y="715" on="0"/>
        <pt x="512" y="692" on="0"/>
        <pt x="578" y="651" on="0"/>
        <pt x="625" y="594" on="0"/>
        <pt x="642" y="560" on="1"/>
        <pt x="623" y="554" on="1"/>
        <pt x="582" y="629" on="0"/>
        <pt x="454" y="695" on="0"/>
        <pt x="371" y="695" on="1"/>
        <pt x="301" y="695" on="0"/>
        <pt x="189" y="636" on="0"/>
        <pt x="110" y="540" on="0"/>
        <pt x="68" y="418" on="0"/>
        <pt x="68" y="355" on="1"/>
        <pt x="68" y="288" on="0"/>
        <pt x="117" y="165" on="0"/>
        <pt x="203" y="71" on="0"/>
        <pt x="317" y="15" on="0"/>
        <pt x="383" y="15" on="1"/>
        <pt x="453" y="15" on="0"/>
        <pt x="579" y="79" on="0"/>
        <pt x="639" y="149" on="1"/>
        <pt x="639" y="318" on="1"/>
        <pt x="472" y="318" on="1"/>
        <pt x="472" y="338" on="1"/>
        <pt x="659" y="338" on="1"/>
        <pt x="659" y="0" on="1"/>
        <pt x="639" y="0" on="1"/>
      </contour>
    </TTGlyph>
    <TTGlyph name="G.alt" xMin="48" yMin="-5" xMax="708" yMax="715">
      <contour>
        <pt x="377" y="-5" on="1"/>
        <pt x="305" y="-5" on="0"/>
        <pt x="185" y="56" on="0"/>
        <pt x="97" y="157" on="0"/>
        <pt x="48" y="287" on="0"/>
        <pt x="48" y="356" on="1"/>
        <pt x="48" y="426" on="0"/>
        <pt x="99" y="556" on="0"/>
        <pt x="188" y="656" on="0"/>
        <pt x="309" y="715" on="0"/>
        <pt x="379" y="715" on="1"/>
        <pt x="423" y="715" on="0"/>
        <pt x="502" y="692" on="0"/>
        <pt x="571" y="650" on="0"/>
        <pt x="628" y="592" on="0"/>
        <pt x="649" y="558" on="1"/>
        <pt x="635" y="544" on="1"/>
        <pt x="593" y="611" on="0"/>
        <pt x="461" y="695" on="0"/>
        <pt x="378" y="695" on="1"/>
        <pt x="309" y="695" on="0"/>
        <pt x="195" y="636" on="0"/>
        <pt x="113" y="540" on="0"/>
        <pt x="68" y="417" on="0"/>
        <pt x="68" y="353" on="1"/>
        <pt x="68" y="288" on="0"/>
        <pt x="115" y="166" on="0"/>
        <pt x="197" y="72" on="0"/>
        <pt x="311" y="15" on="0"/>
        <pt x="379" y="15" on="1"/>
        <pt x="442" y="15" on="0"/>
        <pt x="548" y="64" on="0"/>
        <pt x="628" y="146" on="0"/>
        <pt x="678" y="252" on="0"/>
        <pt x="686" y="309" on="1"/>
        <pt x="440" y="309" on="1"/>
        <pt x="440" y="329" on="1"/>
        <pt x="708" y="329" on="1"/>
        <pt x="708" y="324" on="0"/>
        <pt x="707" y="315" on="0"/>
        <pt x="706" y="308" on="1"/>
        <pt x="698" y="246" on="0"/>
        <pt x="642" y="133" on="0"/>
        <pt x="556" y="47" on="0"/>
        <pt x="443" y="-5" on="0"/>
      </contour>
    </TTGlyph>
    <TTGlyph name="G.sc" xMin="52" yMin="-4" xMax="554" yMax="543">
      <contour>
        <pt x="534" y="90" on="1"/>
        <pt x="444" y="-4" on="0"/>
        <pt x="326" y="-4" on="1"/>
        <pt x="266" y="-4" on="0"/>
        <pt x="165" y="44" on="0"/>
        <pt x="92" y="122" on="0"/>
        <pt x="52" y="220" on="0"/>
        <pt x="52" y="270" on="1"/>
        <pt x="52" y="323" on="0"/>
        <pt x="91" y="421" on="0"/>
        <pt x="162" y="497" on="0"/>
        <pt x="259" y="543" on="0"/>
        <pt x="317" y="543" on="1"/>
        <pt x="407" y="543" on="0"/>
        <pt x="512" y="477" on="0"/>
        <pt x="540" y="426" on="1"/>
        <pt x="521" y="418" on="1"/>
        <pt x="489" y="475" on="0"/>
        <pt x="384" y="524" on="0"/>
        <pt x="317" y="524" on="1"/>
        <pt x="260" y="524" on="0"/>
        <pt x="170" y="480" on="0"/>
        <pt x="106" y="408" on="0"/>
        <pt x="72" y="317" on="0"/>
        <pt x="72" y="270" on="1"/>
        <pt x="72" y="220" on="0"/>
        <pt x="112" y="128" on="0"/>
        <pt x="181" y="58" on="0"/>
        <pt x="274" y="16" on="0"/>
        <pt x="327" y="16" on="1"/>
        <pt x="384" y="16" on="0"/>
        <pt x="486" y="64" on="0"/>
        <pt x="534" y="116" on="1"/>
        <pt x="534" y="239" on="1"/>
        <pt x="398" y="239" on="1"/>
        <pt x="398" y="258" on="1"/>
        <pt x="554" y="258" on="1"/>
        <pt x="554" y="0" on="1"/>
        <pt x="534" y="0" on="1"/>
      </contour>
    </TTGlyph>
    <TTGlyph name="Gacute" xMin="48" yMin="-5" xMax="659" yMax="918">
      <contour>
        <pt x="639" y="121" on="1"/>
        <pt x="528" y="-5" on="0"/>
        <pt x="383" y="-5" on="1"/>
        <pt x="309" y="-5" on="0"/>
        <pt x="186" y="58" on="0"/>
        <pt x="97" y="160" on="0"/>
        <pt x="48" y="289" on="0"/>
        <pt x="48" y="355" on="1"/>
        <pt x="48" y="424" on="0"/>
        <pt x="96" y="554" on="0"/>
        <pt x="181" y="655" on="0"/>
        <pt x="300" y="715" on="0"/>
        <pt x="371" y="715" on="1"/>
        <pt x="426" y="715" on="0"/>
        <pt x="512" y="692" on="0"/>
        <pt x="578" y="651" on="0"/>
        <pt x="625" y="594" on="0"/>
        <pt x="642" y="560" on="1"/>
        <pt x="623" y="554" on="1"/>
        <pt x="582" y="629" on="0"/>
        <pt x="454" y="695" on="0"/>
        <pt x="371" y="695" on="1"/>
        <pt x="301" y="695" on="0"/>
        <pt x="189" y="636" on="0"/>
        <pt x="110" y="540" on="0"/>
        <pt x="68" y="418" on="0"/>
        <pt x="68" y="355" on="1"/>
        <pt x="68" y="288" on="0"/>
        <pt x="117" y="165" on="0"/>
        <pt x="203" y="71" on="0"/>
        <pt x="317" y="15" on="0"/>
        <pt x="383" y="15" on="1"/>
        <pt x="453" y="15" on="0"/>
        <pt x="579" y="79" on="0"/>
        <pt x="639" y="149" on="1"/>
        <pt x="639" y="318" on="1"/>
        <pt x="472" y="318" on="1"/>
        <pt x="472" y="338" on="1"/>
        <pt x="659" y="338" on="1"/>
        <pt x="659" y="0" on="1"/>
        <pt x="639" y="0" on="1"/>
      </contour>
      <contour>
        <pt x="355" y="833" on="1"/>
        <pt x="339" y="845" on="1"/>
        <pt x="403" y="918" on="1"/>
        <pt x="437" y="918" on="1"/>
      </contour>
    </TTGlyph>
    <TTGlyph name="Gbreve" xMin="48" yMin="-5" xMax="659" yMax="918">
      <contour>
        <pt x="639" y="121" on="1"/>
        <pt x="528" y="-5" on="0"/>
        <pt x="383" y="-5" on="1"/>
        <pt x="309" y="-5" on="0"/>
        <pt x="186" y="58" on="0"/>
        <pt x="97" y="160" on="0"/>
        <pt x="48" y="289" on="0"/>
        <pt x="48" y="355" on="1"/>
        <pt x="48" y="424" on="0"/>
        <pt x="96" y="554" on="0"/>
        <pt x="181" y="655" on="0"/>
        <pt x="300" y="715" on="0"/>
        <pt x="371" y="715" on="1"/>
        <pt x="426" y="715" on="0"/>
        <pt x="512" y="692" on="0"/>
        <pt x="578" y="651" on="0"/>
        <pt x="625" y="594" on="0"/>
        <pt x="642" y="560" on="1"/>
        <pt x="623" y="554" on="1"/>
        <pt x="582" y="629" on="0"/>
        <pt x="454" y="695" on="0"/>
        <pt x="371" y="695" on="1"/>
        <pt x="301" y="695" on="0"/>
        <pt x="189" y="636" on="0"/>
        <pt x="110" y="540" on="0"/>
        <pt x="68" y="418" on="0"/>
        <pt x="68" y="355" on="1"/>
        <pt x="68" y="288" on="0"/>
        <pt x="117" y="165" on="0"/>
        <pt x="203" y="71" on="0"/>
        <pt x="317" y="15" on="0"/>
        <pt x="383" y="15" on="1"/>
        <pt x="453" y="15" on="0"/>
        <pt x="579" y="79" on="0"/>
        <pt x="639" y="149" on="1"/>
        <pt x="639" y="318" on="1"/>
        <pt x="472" y="318" on="1"/>
        <pt x="472" y="338" on="1"/>
        <pt x="659" y="338" on="1"/>
        <pt x="659" y="0" on="1"/>
        <pt x="639" y="0" on="1"/>
      </contour>
      <contour>
        <pt x="370" y="858" on="1"/>
        <pt x="390" y="858" on="0"/>
        <pt x="423" y="893" on="0"/>
        <pt x="426" y="918" on="1"/>
        <pt x="444" y="918" on="1"/>
        <pt x="444" y="903" on="0"/>
        <pt x="432" y="875" on="0"/>
        <pt x="411" y="854" on="0"/>
        <pt x="385" y="841" on="0"/>
        <pt x="370" y="841" on="1"/>
        <pt x="355" y="841" on="0"/>
        <pt x="329" y="854" on="0"/>
        <pt x="308" y="875" on="0"/>
        <pt x="296" y="903" on="0"/>
        <pt x="296" y="918" on="1"/>
        <pt x="315" y="918" on="1"/>
        <pt x="315" y="895" on="0"/>
        <pt x="349" y="858" on="0"/>
      </contour>
    </TTGlyph>
    <TTGlyph name="Gcircumflex" xMin="48" yMin="-5" xMax="659" yMax="918">
      <contour>
        <pt x="639" y="121" on="1"/>
        <pt x="528" y="-5" on="0"/>
        <pt x="383" y="-5" on="1"/>
        <pt x="309" y="-5" on="0"/>
        <pt x="186" y="58" on="0"/>
        <pt x="97" y="160" on="0"/>
        <pt x="48" y="289" on="0"/>
        <pt x="48" y="355" on="1"/>
        <pt x="48" y="424" on="0"/>
        <pt x="96" y="554" on="0"/>
        <pt x="181" y="655" on="0"/>
        <pt x="300" y="715" on="0"/>
        <pt x="371" y="715" on="1"/>
        <pt x="426" y="715" on="0"/>
        <pt x="512" y="692" on="0"/>
        <pt x="578" y="651" on="0"/>
        <pt x="625" y="594" on="0"/>
        <pt x="642" y="560" on="1"/>
        <pt x="623" y="554" on="1"/>
        <pt x="582" y="629" on="0"/>
        <pt x="454" y="695" on="0"/>
        <pt x="371" y="695" on="1"/>
        <pt x="301" y="695" on="0"/>
        <pt x="189" y="636" on="0"/>
        <pt x="110" y="540" on="0"/>
        <pt x="68" y="418" on="0"/>
        <pt x="68" y="355" on="1"/>
        <pt x="68" y="288" on="0"/>
        <pt x="117" y="165" on="0"/>
        <pt x="203" y="71" on="0"/>
        <pt x="317" y="15" on="0"/>
        <pt x="383" y="15" on="1"/>
        <pt x="453" y="15" on="0"/>
        <pt x="579" y="79" on="0"/>
        <pt x="639" y="149" on="1"/>
        <pt x="639" y="318" on="1"/>
        <pt x="472" y="318" on="1"/>
        <pt x="472" y="338" on="1"/>
        <pt x="659" y="338" on="1"/>
        <pt x="659" y="0" on="1"/>
        <pt x="639" y="0" on="1"/>
      </contour>
      <contour>
        <pt x="269" y="844" on="1"/>
        <pt x="362" y="918" on="1"/>
        <pt x="378" y="918" on="1"/>
        <pt x="471" y="844" on="1"/>
        <pt x="455" y="832" on="1"/>
        <pt x="370" y="895" on="1"/>
        <pt x="285" y="832" on="1"/>
      </contour>
    </TTGlyph>
    <TTGlyph name="Gcommaaccent" xMin="48" yMin="-167" xMax="659" yMax="715">
      <contour>
        <pt x="639" y="121" on="1"/>
        <pt x="528" y="-5" on="0"/>
        <pt x="383" y="-5" on="1"/>
        <pt x="309" y="-5" on="0"/>
        <pt x="186" y="58" on="0"/>
        <pt x="97" y="160" on="0"/>
        <pt x="48" y="289" on="0"/>
        <pt x="48" y="355" on="1"/>
        <pt x="48" y="424" on="0"/>
        <pt x="96" y="554" on="0"/>
        <pt x="181" y="655" on="0"/>
        <pt x="300" y="715" on="0"/>
        <pt x="371" y="715" on="1"/>
        <pt x="426" y="715" on="0"/>
        <pt x="512" y="692" on="0"/>
        <pt x="578" y="651" on="0"/>
        <pt x="625" y="594" on="0"/>
        <pt x="642" y="560" on="1"/>
        <pt x="623" y="554" on="1"/>
        <pt x="582" y="629" on="0"/>
        <pt x="454" y="695" on="0"/>
        <pt x="371" y="695" on="1"/>
        <pt x="301" y="695" on="0"/>
        <pt x="189" y="636" on="0"/>
        <pt x="110" y="540" on="0"/>
        <pt x="68" y="418" on="0"/>
        <pt x="68" y="355" on="1"/>
        <pt x="68" y="288" on="0"/>
        <pt x="117" y="165" on="0"/>
        <pt x="203" y="71" on="0"/>
        <pt x="317" y="15" on="0"/>
        <pt x="383" y="15" on="1"/>
        <pt x="453" y="15" on="0"/>
        <pt x="579" y="79" on="0"/>
        <pt x="639" y="149" on="1"/>
        <pt x="639" y="318" on="1"/>
        <pt x="472" y="318" on="1"/>
        <pt x="472" y="338" on="1"/>
        <pt x="659" y="338" on="1"/>
        <pt x="659" y="0" on="1"/>
        <pt x="639" y="0" on="1"/>
      </contour>
      <contour>
        <pt x="365" y="-167" on="1"/>
        <pt x="375" y="-109" on="1"/>
        <pt x="366" y="-109" on="1"/>
        <pt x="366" y="-50" on="1"/>
        <pt x="392" y="-50" on="1"/>
        <pt x="392" y="-109" on="1"/>
        <pt x="379" y="-167" on="1"/>
      </contour>
    </TTGlyph>
    <TTGlyph name="Gdotaccent" xMin="48" yMin="-5" xMax="659" yMax="918">
      <contour>
        <pt x="639" y="121" on="1"/>
        <pt x="528" y="-5" on="0"/>
        <pt x="383" y="-5" on="1"/>
        <pt x="309" y="-5" on="0"/>
        <pt x="186" y="58" on="0"/>
        <pt x="97" y="160" on="0"/>
        <pt x="48" y="289" on="0"/>
        <pt x="48" y="355" on="1"/>
        <pt x="48" y="424" on="0"/>
        <pt x="96" y="554" on="0"/>
        <pt x="181" y="655" on="0"/>
        <pt x="300" y="715" on="0"/>
        <pt x="371" y="715" on="1"/>
        <pt x="426" y="715" on="0"/>
        <pt x="512" y="692" on="0"/>
        <pt x="578" y="651" on="0"/>
        <pt x="625" y="594" on="0"/>
        <pt x="642" y="560" on="1"/>
        <pt x="623" y="554" on="1"/>
        <pt x="582" y="629" on="0"/>
        <pt x="454" y="695" on="0"/>
        <pt x="371" y="695" on="1"/>
        <pt x="301" y="695" on="0"/>
        <pt x="189" y="636" on="0"/>
        <pt x="110" y="540" on="0"/>
        <pt x="68" y="418" on="0"/>
        <pt x="68" y="355" on="1"/>
        <pt x="68" y="288" on="0"/>
        <pt x="117" y="165" on="0"/>
        <pt x="203" y="71" on="0"/>
        <pt x="317" y="15" on="0"/>
        <pt x="383" y="15" on="1"/>
        <pt x="453" y="15" on="0"/>
        <pt x="579" y="79" on="0"/>
        <pt x="639" y="149" on="1"/>
        <pt x="639" y="318" on="1"/>
        <pt x="472" y="318" on="1"/>
        <pt x="472" y="338" on="1"/>
        <pt x="659" y="338" on="1"/>
        <pt x="659" y="0" on="1"/>
        <pt x="639" y="0" on="1"/>
      </contour>
      <contour>
        <pt x="360" y="841" on="1"/>
        <pt x="360" y="918" on="1"/>
        <pt x="380" y="918" on="1"/>
        <pt x="380" y="841" on="1"/>
      </contour>
    </TTGlyph>
    <TTGlyph name="H" xMin="99" yMin="0" xMax="632" yMax="710">
      <contour>
        <pt x="632" y="710" on="1"/>
        <pt x="632" y="0" on="1"/>
        <pt x="612" y="0" on="1"/>
        <pt x="612" y="353" on="1"/>
        <pt x="119" y="353" on="1"/>
        <pt x="119" y="0" on="1"/>
        <pt x="99" y="0" on="1"/>
        <pt x="99" y="710" on="1"/>
        <pt x="119" y="710" on="1"/>
        <pt x="119" y="373" on="1"/>
        <pt x="612" y="373" on="1"/>
        <pt x="612" y="710" on="1"/>
      </contour>
    </TTGlyph>
    <TTGlyph name="H.sc" xMin="95" yMin="0" xMax="534" yMax="540">
      <contour>
        <pt x="534" y="540" on="1"/>
        <pt x="534" y="0" on="1"/>
        <pt x="514" y="0" on="1"/>
        <pt x="514" y="266" on="1"/>
        <pt x="115" y="266" on="1"/>
        <pt x="115" y="0" on="1"/>
        <pt x="95" y="0" on="1"/>
        <pt x="95" y="540" on="1"/>
        <pt x="115" y="540" on="1"/>
        <pt x="115" y="286" on="1"/>
        <pt x="514" y="286" on="1"/>
        <pt x="514" y="540" on="1"/>
      </contour>
    </TTGlyph>
    <TTGlyph name="Hbar" xMin="54" yMin="0" xMax="687" yMax="710">
      <contour>
        <pt x="637" y="710" on="1"/>
        <pt x="637" y="574" on="1"/>
        <pt x="687" y="574" on="1"/>
        <pt x="687" y="554" on="1"/>
        <pt x="637" y="554" on="1"/>
        <pt x="637" y="0" on="1"/>
        <pt x="617" y="0" on="1"/>
        <pt x="617" y="353" on="1"/>
        <pt x="124" y="353" on="1"/>
        <pt x="124" y="0" on="1"/>
        <pt x="104" y="0" on="1"/>
        <pt x="104" y="554" on="1"/>
        <pt x="54" y="554" on="1"/>
        <pt x="54" y="574" on="1"/>
        <pt x="104" y="574" on="1"/>
        <pt x="104" y="710" on="1"/>
        <pt x="124" y="710" on="1"/>
        <pt x="124" y="574" on="1"/>
        <pt x="617" y="574" on="1"/>
        <pt x="617" y="710" on="1"/>
      </contour>
      <contour>
        <pt x="617" y="373" on="1"/>
        <pt x="617" y="554" on="1"/>
        <pt x="124" y="554" on="1"/>
        <pt x="124" y="373" on="1"/>
      </contour>
    </TTGlyph>
    <TTGlyph name="Hcircumflex" xMin="99" yMin="0" xMax="632" yMax="918">
      <contour>
        <pt x="632" y="710" on="1"/>
        <pt x="632" y="0" on="1"/>
        <pt x="612" y="0" on="1"/>
        <pt x="612" y="353" on="1"/>
        <pt x="119" y="353" on="1"/>
        <pt x="119" y="0" on="1"/>
        <pt x="99" y="0" on="1"/>
        <pt x="99" y="710" on="1"/>
        <pt x="119" y="710" on="1"/>
        <pt x="119" y="373" on="1"/>
        <pt x="612" y="373" on="1"/>
        <pt x="612" y="710" on="1"/>
      </contour>
      <contour>
        <pt x="266" y="844" on="1"/>
        <pt x="359" y="918" on="1"/>
        <pt x="375" y="918" on="1"/>
        <pt x="468" y="844" on="1"/>
        <pt x="452" y="832" on="1"/>
        <pt x="367" y="895" on="1"/>
        <pt x="282" y="832" on="1"/>
      </contour>
    </TTGlyph>
    <TTGlyph name="Hdotbelow" xMin="99" yMin="-127" xMax="632" yMax="710">
      <contour>
        <pt x="632" y="710" on="1"/>
        <pt x="632" y="0" on="1"/>
        <pt x="612" y="0" on="1"/>
        <pt x="612" y="353" on="1"/>
        <pt x="119" y="353" on="1"/>
        <pt x="119" y="0" on="1"/>
        <pt x="99" y="0" on="1"/>
        <pt x="99" y="710" on="1"/>
        <pt x="119" y="710" on="1"/>
        <pt x="119" y="373" on="1"/>
        <pt x="612" y="373" on="1"/>
        <pt x="612" y="710" on="1"/>
      </contour>
      <contour>
        <pt x="362" y="-127" on="1"/>
        <pt x="362" y="-50" on="1"/>
        <pt x="382" y="-50" on="1"/>
        <pt x="382" y="-127" on="1"/>
      </contour>
    </TTGlyph>
    <TTGlyph name="I" xMin="99" yMin="0" xMax="119" yMax="710">
      <contour>
        <pt x="99" y="0" on="1"/>
        <pt x="99" y="710" on="1"/>
        <pt x="119" y="710" on="1"/>
        <pt x="119" y="0" on="1"/>
      </contour>
    </TTGlyph>
    <TTGlyph name="I.sc" xMin="95" yMin="0" xMax="115" yMax="539">
      <contour>
        <pt x="95" y="0" on="1"/>
        <pt x="95" y="539" on="1"/>
        <pt x="115" y="539" on="1"/>
        <pt x="115" y="0" on="1"/>
      </contour>
    </TTGlyph>
    <TTGlyph name="IJ" xMin="99" yMin="-11" xMax="601" yMax="710">
      <contour>
        <pt x="99" y="0" on="1"/>
        <pt x="99" y="710" on="1"/>
        <pt x="119" y="710" on="1"/>
        <pt x="119" y="0" on="1"/>
      </contour>
      <contour>
        <pt x="248" y="49" on="1"/>
        <pt x="306" y="9" on="0"/>
        <pt x="391" y="9" on="1"/>
        <pt x="455" y="9" on="0"/>
        <pt x="530" y="56" on="0"/>
        <pt x="569" y="143" on="0"/>
        <pt x="581" y="269" on="0"/>
        <pt x="581" y="349" on="1"/>
        <pt x="581" y="710" on="1"/>
        <pt x="601" y="710" on="1"/>
        <pt x="601" y="349" on="1"/>
        <pt x="601" y="268" on="0"/>
        <pt x="588" y="135" on="0"/>
        <pt x="544" y="41" on="0"/>
        <pt x="461" y="-11" on="0"/>
        <pt x="391" y="-11" on="1"/>
        <pt x="301" y="-11" on="0"/>
        <pt x="237" y="33" on="1"/>
      </contour>
    </TTGlyph>
    <TTGlyph name="Iacute" xMin="79" yMin="0" xMax="177" yMax="918">
      <contour>
        <pt x="99" y="0" on="1"/>
        <pt x="99" y="710" on="1"/>
        <pt x="119" y="710" on="1"/>
        <pt x="119" y="0" on="1"/>
      </contour>
      <contour>
        <pt x="95" y="833" on="1"/>
        <pt x="79" y="845" on="1"/>
        <pt x="143" y="918" on="1"/>
        <pt x="177" y="918" on="1"/>
      </contour>
    </TTGlyph>
    <TTGlyph name="Ibreve" xMin="35" yMin="0" xMax="183" yMax="918">
      <contour>
        <pt x="99" y="0" on="1"/>
        <pt x="99" y="710" on="1"/>
        <pt x="119" y="710" on="1"/>
        <pt x="119" y="0" on="1"/>
      </contour>
      <contour>
        <pt x="109" y="858" on="1"/>
        <pt x="129" y="858" on="0"/>
        <pt x="162" y="893" on="0"/>
        <pt x="165" y="918" on="1"/>
        <pt x="183" y="918" on="1"/>
        <pt x="183" y="903" on="0"/>
        <pt x="171" y="875" on="0"/>
        <pt x="150" y="854" on="0"/>
        <pt x="124" y="841" on="0"/>
        <pt x="109" y="841" on="1"/>
        <pt x="94" y="841" on="0"/>
        <pt x="68" y="854" on="0"/>
        <pt x="47" y="875" on="0"/>
        <pt x="35" y="903" on="0"/>
        <pt x="35" y="918" on="1"/>
        <pt x="54" y="918" on="1"/>
        <pt x="54" y="895" on="0"/>
        <pt x="88" y="858" on="0"/>
      </contour>
    </TTGlyph>
    <TTGlyph name="Icircumflex" xMin="8" yMin="0" xMax="210" yMax="918">
      <contour>
        <pt x="99" y="0" on="1"/>
        <pt x="99" y="710" on="1"/>
        <pt x="119" y="710" on="1"/>
        <pt x="119" y="0" on="1"/>
      </contour>
      <contour>
        <pt x="8" y="844" on="1"/>
        <pt x="101" y="918" on="1"/>
        <pt x="117" y="918" on="1"/>
        <pt x="210" y="844" on="1"/>
        <pt x="194" y="832" on="1"/>
        <pt x="109" y="895" on="1"/>
        <pt x="24" y="832" on="1"/>
      </contour>
    </TTGlyph>
    <TTGlyph name="Idblgrave" xMin="-19" yMin="0" xMax="179" yMax="918">
      <contour>
        <pt x="99" y="0" on="1"/>
        <pt x="99" y="710" on="1"/>
        <pt x="119" y="710" on="1"/>
        <pt x="119" y="0" on="1"/>
      </contour>
      <contour>
        <pt x="81" y="918" on="1"/>
        <pt x="115" y="918" on="1"/>
        <pt x="179" y="845" on="1"/>
        <pt x="163" y="833" on="1"/>
      </contour>
      <contour>
        <pt x="-19" y="918" on="1"/>
        <pt x="15" y="918" on="1"/>
        <pt x="79" y="845" on="1"/>
        <pt x="63" y="833" on="1"/>
      </contour>
    </TTGlyph>
    <TTGlyph name="Idieresis" xMin="41" yMin="0" xMax="177" yMax="918">
      <contour>
        <pt x="99" y="0" on="1"/>
        <pt x="99" y="710" on="1"/>
        <pt x="119" y="710" on="1"/>
        <pt x="119" y="0" on="1"/>
      </contour>
      <contour>
        <pt x="41" y="841" on="1"/>
        <pt x="41" y="918" on="1"/>
        <pt x="61" y="918" on="1"/>
        <pt x="61" y="841" on="1"/>
      </contour>
      <contour>
        <pt x="157" y="841" on="1"/>
        <pt x="157" y="918" on="1"/>
        <pt x="177" y="918" on="1"/>
        <pt x="177" y="841" on="1"/>
      </contour>
    </TTGlyph>
    <TTGlyph name="Idotaccent" xMin="99" yMin="0" xMax="119" yMax="918">
      <contour>
        <pt x="99" y="0" on="1"/>
        <pt x="99" y="710" on="1"/>
        <pt x="119" y="710" on="1"/>
        <pt x="119" y="0" on="1"/>
      </contour>
      <contour>
        <pt x="99" y="841" on="1"/>
        <pt x="99" y="918" on="1"/>
        <pt x="119" y="918" on="1"/>
        <pt x="119" y="841" on="1"/>
      </contour>
    </TTGlyph>
    <TTGlyph name="Idotbelow" xMin="99" yMin="-127" xMax="119" yMax="710">
      <contour>
        <pt x="99" y="0" on="1"/>
        <pt x="99" y="710" on="1"/>
        <pt x="119" y="710" on="1"/>
        <pt x="119" y="0" on="1"/>
      </contour>
      <contour>
        <pt x="99" y="-127" on="1"/>
        <pt x="99" y="-50" on="1"/>
        <pt x="119" y="-50" on="1"/>
        <pt x="119" y="-127" on="1"/>
      </contour>
    </TTGlyph>
    <TTGlyph name="Igrave" xMin="41" yMin="0" xMax="139" yMax="918">
      <contour>
        <pt x="99" y="0" on="1"/>
        <pt x="99" y="710" on="1"/>
        <pt x="119" y="710" on="1"/>
        <pt x="119" y="0" on="1"/>
      </contour>
      <contour>
        <pt x="41" y="918" on="1"/>
        <pt x="74" y="918" on="1"/>
        <pt x="139" y="845" on="1"/>
        <pt x="123" y="833" on="1"/>
      </contour>
    </TTGlyph>
    <TTGlyph name="Iinvertedbreve" xMin="35" yMin="0" xMax="183" yMax="918">
      <contour>
        <pt x="99" y="0" on="1"/>
        <pt x="99" y="710" on="1"/>
        <pt x="119" y="710" on="1"/>
        <pt x="119" y="0" on="1"/>
      </contour>
      <contour>
        <pt x="109" y="901" on="1"/>
        <pt x="88" y="901" on="0"/>
        <pt x="54" y="864" on="0"/>
        <pt x="54" y="841" on="1"/>
        <pt x="35" y="841" on="1"/>
        <pt x="35" y="856" on="0"/>
        <pt x="47" y="884" on="0"/>
        <pt x="68" y="905" on="0"/>
        <pt x="94" y="918" on="0"/>
        <pt x="109" y="918" on="1"/>
        <pt x="124" y="918" on="0"/>
        <pt x="150" y="905" on="0"/>
        <pt x="171" y="884" on="0"/>
        <pt x="183" y="856" on="0"/>
        <pt x="183" y="841" on="1"/>
        <pt x="165" y="841" on="1"/>
        <pt x="162" y="866" on="0"/>
        <pt x="129" y="901" on="0"/>
      </contour>
    </TTGlyph>
    <TTGlyph name="Imacron" xMin="-31" yMin="0" xMax="249" yMax="894">
      <contour>
        <pt x="99" y="0" on="1"/>
        <pt x="99" y="710" on="1"/>
        <pt x="119" y="710" on="1"/>
        <pt x="119" y="0" on="1"/>
      </contour>
      <contour>
        <pt x="-31" y="874" on="1"/>
        <pt x="-31" y="894" on="1"/>
        <pt x="249" y="894" on="1"/>
        <pt x="249" y="874" on="1"/>
      </contour>
    </TTGlyph>
    <TTGlyph name="Iogonek" xMin="18" yMin="-159" xMax="119" yMax="710">
      <contour>
        <pt x="70" y="-159" on="1"/>
        <pt x="45" y="-153" on="0"/>
        <pt x="18" y="-121" on="0"/>
        <pt x="18" y="-98" on="1"/>
        <pt x="18" y="-72" on="0"/>
        <pt x="55" y="-24" on="0"/>
        <pt x="99" y="8" on="1"/>
        <pt x="99" y="710" on="1"/>
        <pt x="119" y="710" on="1"/>
        <pt x="119" y="0" on="1"/>
        <pt x="74" y="-31" on="0"/>
        <pt x="38" y="-72" on="0"/>
        <pt x="38" y="-95" on="1"/>
        <pt x="38" y="-133" on="0"/>
        <pt x="82" y="-142" on="1"/>
        <pt x="70" y="-159" on="1"/>
      </contour>
    </TTGlyph>
    <TTGlyph name="Itilde" xMin="-26" yMin="0" xMax="251" yMax="918">
      <contour>
        <pt x="99" y="0" on="1"/>
        <pt x="99" y="710" on="1"/>
        <pt x="119" y="710" on="1"/>
        <pt x="119" y="0" on="1"/>
      </contour>
      <contour>
        <pt x="170" y="851" on="1"/>
        <pt x="148" y="851" on="0"/>
        <pt x="115" y="863" on="0"/>
        <pt x="87" y="877" on="0"/>
        <pt x="60" y="889" on="0"/>
        <pt x="45" y="889" on="1"/>
        <pt x="29" y="889" on="0"/>
        <pt x="9" y="876" on="0"/>
        <pt x="-2" y="859" on="0"/>
        <pt x="-6" y="843" on="0"/>
        <pt x="-6" y="841" on="1"/>
        <pt x="-26" y="841" on="1"/>
        <pt x="-26" y="843" on="0"/>
        <pt x="-22" y="865" on="0"/>
        <pt x="-7" y="889" on="0"/>
        <pt x="22" y="908" on="0"/>
        <pt x="47" y="908" on="1"/>
        <pt x="66" y="908" on="0"/>
        <pt x="96" y="896" on="0"/>
        <pt x="124" y="882" on="0"/>
        <pt x="153" y="870" on="0"/>
        <pt x="172" y="870" on="1"/>
        <pt x="193" y="870" on="0"/>
        <pt x="216" y="884" on="0"/>
        <pt x="228" y="901" on="0"/>
        <pt x="231" y="916" on="0"/>
        <pt x="231" y="918" on="1"/>
        <pt x="251" y="918" on="1"/>
        <pt x="251" y="915" on="0"/>
        <pt x="246" y="893" on="0"/>
        <pt x="230" y="869" on="0"/>
        <pt x="197" y="851" on="0"/>
      </contour>
    </TTGlyph>
    <TTGlyph name="J" xMin="19" yMin="-11" xMax="383" yMax="710">
      <contour>
        <pt x="30" y="49" on="1"/>
        <pt x="88" y="9" on="0"/>
        <pt x="173" y="9" on="1"/>
        <pt x="237" y="9" on="0"/>
        <pt x="312" y="56" on="0"/>
        <pt x="351" y="143" on="0"/>
        <pt x="363" y="269" on="0"/>
        <pt x="363" y="349" on="1"/>
        <pt x="363" y="710" on="1"/>
        <pt x="383" y="710" on="1"/>
        <pt x="383" y="349" on="1"/>
        <pt x="383" y="268" on="0"/>
        <pt x="370" y="135" on="0"/>
        <pt x="326" y="41" on="0"/>
        <pt x="243" y="-11" on="0"/>
        <pt x="173" y="-11" on="1"/>
        <pt x="83" y="-11" on="0"/>
        <pt x="19" y="33" on="1"/>
      </contour>
    </TTGlyph>
    <TTGlyph name="J.sc" xMin="27" yMin="-8" xMax="327" yMax="539">
      <contour>
        <pt x="37" y="41" on="1"/>
        <pt x="84" y="11" on="0"/>
        <pt x="153" y="11" on="1"/>
        <pt x="205" y="11" on="0"/>
        <pt x="266" y="46" on="0"/>
        <pt x="298" y="111" on="0"/>
        <pt x="307" y="205" on="0"/>
        <pt x="307" y="265" on="1"/>
        <pt x="307" y="539" on="1"/>
        <pt x="327" y="539" on="1"/>
        <pt x="327" y="265" on="1"/>
        <pt x="327" y="203" on="0"/>
        <pt x="316" y="103" on="0"/>
        <pt x="280" y="31" on="0"/>
        <pt x="211" y="-8" on="0"/>
        <pt x="153" y="-8" on="1"/>
        <pt x="78" y="-8" on="0"/>
        <pt x="27" y="25" on="1"/>
      </contour>
    </TTGlyph>
    <TTGlyph name="Jcircumflex" xMin="19" yMin="-11" xMax="474" yMax="918">
      <contour>
        <pt x="30" y="49" on="1"/>
        <pt x="88" y="9" on="0"/>
        <pt x="173" y="9" on="1"/>
        <pt x="237" y="9" on="0"/>
        <pt x="312" y="56" on="0"/>
        <pt x="351" y="143" on="0"/>
        <pt x="363" y="269" on="0"/>
        <pt x="363" y="349" on="1"/>
        <pt x="363" y="710" on="1"/>
        <pt x="383" y="710" on="1"/>
        <pt x="383" y="349" on="1"/>
        <pt x="383" y="268" on="0"/>
        <pt x="370" y="135" on="0"/>
        <pt x="326" y="41" on="0"/>
        <pt x="243" y="-11" on="0"/>
        <pt x="173" y="-11" on="1"/>
        <pt x="83" y="-11" on="0"/>
        <pt x="19" y="33" on="1"/>
      </contour>
      <contour>
        <pt x="272" y="844" on="1"/>
        <pt x="365" y="918" on="1"/>
        <pt x="381" y="918" on="1"/>
        <pt x="474" y="844" on="1"/>
        <pt x="458" y="832" on="1"/>
        <pt x="373" y="895" on="1"/>
        <pt x="288" y="832" on="1"/>
      </contour>
    </TTGlyph>
    <TTGlyph name="K" xMin="99" yMin="0" xMax="614" yMax="710">
      <contour>
        <pt x="99" y="0" on="1"/>
        <pt x="99" y="710" on="1"/>
        <pt x="119" y="710" on="1"/>
        <pt x="119" y="249" on="1"/>
        <pt x="571" y="710" on="1"/>
        <pt x="600" y="710" on="1"/>
        <pt x="297" y="400" on="1"/>
        <pt x="614" y="0" on="1"/>
        <pt x="588" y="0" on="1"/>
        <pt x="282" y="386" on="1"/>
        <pt x="119" y="221" on="1"/>
        <pt x="119" y="0" on="1"/>
      </contour>
    </TTGlyph>
    <TTGlyph name="K.sc" xMin="95" yMin="0" xMax="520" yMax="540">
      <contour>
        <pt x="95" y="0" on="1"/>
        <pt x="95" y="539" on="1"/>
        <pt x="115" y="539" on="1"/>
        <pt x="115" y="194" on="1"/>
        <pt x="481" y="540" on="1"/>
        <pt x="509" y="540" on="1"/>
        <pt x="261" y="304" on="1"/>
        <pt x="520" y="0" on="1"/>
        <pt x="495" y="0" on="1"/>
        <pt x="247" y="290" on="1"/>
        <pt x="115" y="168" on="1"/>
        <pt x="115" y="0" on="1"/>
      </contour>
    </TTGlyph>
    <TTGlyph name="Kcommaaccent" xMin="99" yMin="-167" xMax="614" yMax="710">
      <contour>
        <pt x="99" y="0" on="1"/>
        <pt x="99" y="710" on="1"/>
        <pt x="119" y="710" on="1"/>
        <pt x="119" y="249" on="1"/>
        <pt x="571" y="710" on="1"/>
        <pt x="600" y="710" on="1"/>
        <pt x="297" y="400" on="1"/>
        <pt x="614" y="0" on="1"/>
        <pt x="588" y="0" on="1"/>
        <pt x="282" y="386" on="1"/>
        <pt x="119" y="221" on="1"/>
        <pt x="119" y="0" on="1"/>
      </contour>
      <contour>
        <pt x="297" y="-167" on="1"/>
        <pt x="307" y="-109" on="1"/>
        <pt x="298" y="-109" on="1"/>
        <pt x="298" y="-50" on="1"/>
        <pt x="324" y="-50" on="1"/>
        <pt x="324" y="-109" on="1"/>
        <pt x="311" y="-167" on="1"/>
      </contour>
    </TTGlyph>
    <TTGlyph name="L" xMin="99" yMin="0" xMax="565" yMax="710">
      <contour>
        <pt x="99" y="0" on="1"/>
        <pt x="99" y="710" on="1"/>
        <pt x="119" y="710" on="1"/>
        <pt x="119" y="20" on="1"/>
        <pt x="565" y="20" on="1"/>
        <pt x="565" y="0" on="1"/>
      </contour>
    </TTGlyph>
    <TTGlyph name="L.sc" xMin="95" yMin="0" xMax="478" yMax="540">
      <contour>
        <pt x="95" y="0" on="1"/>
        <pt x="95" y="540" on="1"/>
        <pt x="115" y="540" on="1"/>
        <pt x="115" y="19" on="1"/>
        <pt x="478" y="19" on="1"/>
        <pt x="478" y="0" on="1"/>
      </contour>
    </TTGlyph>
    <TTGlyph name="Lacute" xMin="99" yMin="0" xMax="565" yMax="918">
      <contour>
        <pt x="99" y="0" on="1"/>
        <pt x="99" y="710" on="1"/>
        <pt x="119" y="710" on="1"/>
        <pt x="119" y="20" on="1"/>
        <pt x="565" y="20" on="1"/>
        <pt x="565" y="0" on="1"/>
      </contour>
      <contour>
        <pt x="317" y="833" on="1"/>
        <pt x="301" y="845" on="1"/>
        <pt x="365" y="918" on="1"/>
        <pt x="399" y="918" on="1"/>
      </contour>
    </TTGlyph>
    <TTGlyph name="Lcaron" xMin="99" yMin="0" xMax="565" yMax="730">
      <contour>
        <pt x="99" y="0" on="1"/>
        <pt x="99" y="710" on="1"/>
        <pt x="119" y="710" on="1"/>
        <pt x="119" y="20" on="1"/>
        <pt x="565" y="20" on="1"/>
        <pt x="565" y="0" on="1"/>
      </contour>
      <contour>
        <pt x="356" y="645" on="1"/>
        <pt x="340" y="657" on="1"/>
        <pt x="404" y="730" on="1"/>
        <pt x="438" y="730" on="1"/>
      </contour>
    </TTGlyph>
    <TTGlyph name="Lcommaaccent" xMin="99" yMin="-167" xMax="565" yMax="710">
      <contour>
        <pt x="99" y="0" on="1"/>
        <pt x="99" y="710" on="1"/>
        <pt x="119" y="710" on="1"/>
        <pt x="119" y="20" on="1"/>
        <pt x="565" y="20" on="1"/>
        <pt x="565" y="0" on="1"/>
      </contour>
      <contour>
        <pt x="314" y="-167" on="1"/>
        <pt x="324" y="-109" on="1"/>
        <pt x="315" y="-109" on="1"/>
        <pt x="315" y="-50" on="1"/>
        <pt x="341" y="-50" on="1"/>
        <pt x="341" y="-109" on="1"/>
        <pt x="328" y="-167" on="1"/>
      </contour>
    </TTGlyph>
    <TTGlyph name="Ldot" xMin="99" yMin="0" xMax="565" yMax="710">
      <contour>
        <pt x="99" y="0" on="1"/>
        <pt x="99" y="710" on="1"/>
        <pt x="119" y="710" on="1"/>
        <pt x="119" y="20" on="1"/>
        <pt x="565" y="20" on="1"/>
        <pt x="565" y="0" on="1"/>
      </contour>
      <contour>
        <pt x="366" y="360" on="1"/>
        <pt x="366" y="443" on="1"/>
        <pt x="386" y="443" on="1"/>
        <pt x="386" y="360" on="1"/>
      </contour>
    </TTGlyph>
    <TTGlyph name="Lslash" xMin="29" yMin="0" xMax="572" yMax="710">
      <contour>
        <pt x="106" y="0" on="1"/>
        <pt x="106" y="284" on="1"/>
        <pt x="43" y="221" on="1"/>
        <pt x="29" y="236" on="1"/>
        <pt x="106" y="313" on="1"/>
        <pt x="106" y="710" on="1"/>
        <pt x="126" y="710" on="1"/>
        <pt x="126" y="333" on="1"/>
        <pt x="314" y="521" on="1"/>
        <pt x="328" y="506" on="1"/>
        <pt x="126" y="304" on="1"/>
        <pt x="126" y="20" on="1"/>
        <pt x="572" y="20" on="1"/>
        <pt x="572" y="0" on="1"/>
      </contour>
    </TTGlyph>
    <TTGlyph name="M" xMin="99" yMin="0" xMax="785" yMax="710">
      <contour>
        <pt x="765" y="0" on="1"/>
        <pt x="765" y="666" on="1"/>
        <pt x="450" y="140" on="1"/>
        <pt x="434" y="140" on="1"/>
        <pt x="119" y="666" on="1"/>
        <pt x="119" y="0" on="1"/>
        <pt x="99" y="0" on="1"/>
        <pt x="99" y="710" on="1"/>
        <pt x="115" y="710" on="1"/>
        <pt x="442" y="164" on="1"/>
        <pt x="769" y="710" on="1"/>
        <pt x="785" y="710" on="1"/>
        <pt x="785" y="0" on="1"/>
      </contour>
    </TTGlyph>
    <TTGlyph name="M.sc" xMin="95" yMin="0" xMax="658" yMax="540">
      <contour>
        <pt x="638" y="0" on="1"/>
        <pt x="638" y="498" on="1"/>
        <pt x="384" y="106" on="1"/>
        <pt x="369" y="106" on="1"/>
        <pt x="115" y="498" on="1"/>
        <pt x="115" y="0" on="1"/>
        <pt x="95" y="0" on="1"/>
        <pt x="95" y="540" on="1"/>
        <pt x="112" y="540" on="1"/>
        <pt x="377" y="131" on="1"/>
        <pt x="641" y="540" on="1"/>
        <pt x="658" y="540" on="1"/>
        <pt x="658" y="0" on="1"/>
      </contour>
    </TTGlyph>
    <TTGlyph name="N" xMin="99" yMin="0" xMax="677" yMax="710">
      <contour>
        <pt x="119" y="671" on="1"/>
        <pt x="119" y="0" on="1"/>
        <pt x="99" y="0" on="1"/>
        <pt x="99" y="710" on="1"/>
        <pt x="114" y="710" on="1"/>
        <pt x="657" y="29" on="1"/>
        <pt x="657" y="710" on="1"/>
        <pt x="677" y="710" on="1"/>
        <pt x="677" y="0" on="1"/>
        <pt x="654" y="0" on="1"/>
      </contour>
    </TTGlyph>
    <TTGlyph name="N.sc" xMin="95" yMin="0" xMax="570" yMax="540">
      <contour>
        <pt x="115" y="501" on="1"/>
        <pt x="115" y="0" on="1"/>
        <pt x="95" y="0" on="1"/>
        <pt x="95" y="540" on="1"/>
        <pt x="110" y="540" on="1"/>
        <pt x="550" y="31" on="1"/>
        <pt x="550" y="539" on="1"/>
        <pt x="570" y="539" on="1"/>
        <pt x="570" y="0" on="1"/>
        <pt x="548" y="0" on="1"/>
      </contour>
    </TTGlyph>
    <TTGlyph name="Nacute" xMin="99" yMin="0" xMax="677" yMax="918">
      <contour>
        <pt x="119" y="671" on="1"/>
        <pt x="119" y="0" on="1"/>
        <pt x="99" y="0" on="1"/>
        <pt x="99" y="710" on="1"/>
        <pt x="114" y="710" on="1"/>
        <pt x="657" y="29" on="1"/>
        <pt x="657" y="710" on="1"/>
        <pt x="677" y="710" on="1"/>
        <pt x="677" y="0" on="1"/>
        <pt x="654" y="0" on="1"/>
      </contour>
      <contour>
        <pt x="379" y="833" on="1"/>
        <pt x="363" y="845" on="1"/>
        <pt x="427" y="918" on="1"/>
        <pt x="461" y="918" on="1"/>
      </contour>
    </TTGlyph>
    <TTGlyph name="Ncaron" xMin="99" yMin="0" xMax="677" yMax="918">
      <contour>
        <pt x="119" y="671" on="1"/>
        <pt x="119" y="0" on="1"/>
        <pt x="99" y="0" on="1"/>
        <pt x="99" y="710" on="1"/>
        <pt x="114" y="710" on="1"/>
        <pt x="657" y="29" on="1"/>
        <pt x="657" y="710" on="1"/>
        <pt x="677" y="710" on="1"/>
        <pt x="677" y="0" on="1"/>
        <pt x="654" y="0" on="1"/>
      </contour>
      <contour>
        <pt x="308" y="918" on="1"/>
        <pt x="393" y="855" on="1"/>
        <pt x="478" y="918" on="1"/>
        <pt x="494" y="906" on="1"/>
        <pt x="401" y="832" on="1"/>
        <pt x="385" y="832" on="1"/>
        <pt x="292" y="906" on="1"/>
      </contour>
    </TTGlyph>
    <TTGlyph name="Ncommaaccent" xMin="99" yMin="-167" xMax="677" yMax="710">
      <contour>
        <pt x="119" y="671" on="1"/>
        <pt x="119" y="0" on="1"/>
        <pt x="99" y="0" on="1"/>
        <pt x="99" y="710" on="1"/>
        <pt x="114" y="710" on="1"/>
        <pt x="657" y="29" on="1"/>
        <pt x="657" y="710" on="1"/>
        <pt x="677" y="710" on="1"/>
        <pt x="677" y="0" on="1"/>
        <pt x="654" y="0" on="1"/>
      </contour>
      <contour>
        <pt x="377" y="-167" on="1"/>
        <pt x="387" y="-109" on="1"/>
        <pt x="378" y="-109" on="1"/>
        <pt x="378" y="-50" on="1"/>
        <pt x="404" y="-50" on="1"/>
        <pt x="404" y="-109" on="1"/>
        <pt x="391" y="-167" on="1"/>
      </contour>
    </TTGlyph>
    <TTGlyph name="Ndotaccent" xMin="99" yMin="0" xMax="677" yMax="918">
      <contour>
        <pt x="119" y="671" on="1"/>
        <pt x="119" y="0" on="1"/>
        <pt x="99" y="0" on="1"/>
        <pt x="99" y="710" on="1"/>
        <pt x="114" y="710" on="1"/>
        <pt x="657" y="29" on="1"/>
        <pt x="657" y="710" on="1"/>
        <pt x="677" y="710" on="1"/>
        <pt x="677" y="0" on="1"/>
        <pt x="654" y="0" on="1"/>
      </contour>
      <contour>
        <pt x="383" y="841" on="1"/>
        <pt x="383" y="918" on="1"/>
        <pt x="403" y="918" on="1"/>
        <pt x="403" y="841" on="1"/>
      </contour>
    </TTGlyph>
    <TTGlyph name="Ntilde" xMin="99" yMin="0" xMax="677" yMax="918">
      <contour>
        <pt x="119" y="671" on="1"/>
        <pt x="119" y="0" on="1"/>
        <pt x="99" y="0" on="1"/>
        <pt x="99" y="710" on="1"/>
        <pt x="114" y="710" on="1"/>
        <pt x="657" y="29" on="1"/>
        <pt x="657" y="710" on="1"/>
        <pt x="677" y="710" on="1"/>
        <pt x="677" y="0" on="1"/>
        <pt x="654" y="0" on="1"/>
      </contour>
      <contour>
        <pt x="454" y="851" on="1"/>
        <pt x="432" y="851" on="0"/>
        <pt x="399" y="863" on="0"/>
        <pt x="371" y="877" on="0"/>
        <pt x="344" y="889" on="0"/>
        <pt x="329" y="889" on="1"/>
        <pt x="313" y="889" on="0"/>
        <pt x="293" y="876" on="0"/>
        <pt x="282" y="859" on="0"/>
        <pt x="278" y="843" on="0"/>
        <pt x="278" y="841" on="1"/>
        <pt x="258" y="841" on="1"/>
        <pt x="258" y="843" on="0"/>
        <pt x="262" y="865" on="0"/>
        <pt x="277" y="889" on="0"/>
        <pt x="306" y="908" on="0"/>
        <pt x="331" y="908" on="1"/>
        <pt x="350" y="908" on="0"/>
        <pt x="380" y="896" on="0"/>
        <pt x="408" y="882" on="0"/>
        <pt x="437" y="870" on="0"/>
        <pt x="456" y="870" on="1"/>
        <pt x="477" y="870" on="0"/>
        <pt x="500" y="884" on="0"/>
        <pt x="512" y="901" on="0"/>
        <pt x="515" y="916" on="0"/>
        <pt x="515" y="918" on="1"/>
        <pt x="535" y="918" on="1"/>
        <pt x="535" y="915" on="0"/>
        <pt x="530" y="893" on="0"/>
        <pt x="514" y="869" on="0"/>
        <pt x="481" y="851" on="0"/>
      </contour>
    </TTGlyph>
    <TTGlyph name="O" xMin="48" yMin="-5" xMax="709" yMax="715">
      <contour>
        <pt x="379" y="-5" on="1"/>
        <pt x="305" y="-5" on="0"/>
        <pt x="184" y="57" on="0"/>
        <pt x="96" y="157" on="0"/>
        <pt x="48" y="287" on="0"/>
        <pt x="48" y="355" on="1"/>
        <pt x="48" y="426" on="0"/>
        <pt x="99" y="556" on="0"/>
        <pt x="188" y="656" on="0"/>
        <pt x="309" y="715" on="0"/>
        <pt x="379" y="715" on="1"/>
        <pt x="452" y="715" on="0"/>
        <pt x="574" y="652" on="0"/>
        <pt x="661" y="550" on="0"/>
        <pt x="709" y="421" on="0"/>
        <pt x="709" y="355" on="1"/>
        <pt x="709" y="283" on="0"/>
        <pt x="658" y="153" on="0"/>
        <pt x="569" y="54" on="0"/>
        <pt x="449" y="-5" on="0"/>
      </contour>
      <contour>
        <pt x="68" y="355" on="1"/>
        <pt x="68" y="289" on="0"/>
        <pt x="115" y="166" on="0"/>
        <pt x="197" y="71" on="0"/>
        <pt x="311" y="15" on="0"/>
        <pt x="379" y="15" on="1"/>
        <pt x="448" y="15" on="0"/>
        <pt x="563" y="74" on="0"/>
        <pt x="644" y="170" on="0"/>
        <pt x="689" y="292" on="0"/>
        <pt x="689" y="355" on="1"/>
        <pt x="689" y="421" on="0"/>
        <pt x="642" y="544" on="0"/>
        <pt x="558" y="639" on="0"/>
        <pt x="445" y="695" on="0"/>
        <pt x="379" y="695" on="1"/>
        <pt x="310" y="695" on="0"/>
        <pt x="195" y="636" on="0"/>
        <pt x="113" y="540" on="0"/>
        <pt x="68" y="418" on="0"/>
      </contour>
    </TTGlyph>
    <TTGlyph name="O.sc" xMin="52" yMin="-4" xMax="594" yMax="543">
      <contour>
        <pt x="324" y="-4" on="1"/>
        <pt x="264" y="-4" on="0"/>
        <pt x="164" y="43" on="0"/>
        <pt x="92" y="119" on="0"/>
        <pt x="52" y="218" on="0"/>
        <pt x="52" y="270" on="1"/>
        <pt x="52" y="324" on="0"/>
        <pt x="94" y="422" on="0"/>
        <pt x="167" y="498" on="0"/>
        <pt x="266" y="543" on="0"/>
        <pt x="324" y="543" on="1"/>
        <pt x="384" y="543" on="0"/>
        <pt x="484" y="495" on="0"/>
        <pt x="555" y="418" on="0"/>
        <pt x="594" y="320" on="0"/>
        <pt x="594" y="270" on="1"/>
        <pt x="594" y="216" on="0"/>
        <pt x="553" y="116" on="0"/>
        <pt x="480" y="41" on="0"/>
        <pt x="381" y="-4" on="0"/>
      </contour>
      <contour>
        <pt x="72" y="270" on="1"/>
        <pt x="72" y="220" on="0"/>
        <pt x="110" y="129" on="0"/>
        <pt x="177" y="58" on="0"/>
        <pt x="269" y="16" on="0"/>
        <pt x="324" y="16" on="1"/>
        <pt x="380" y="16" on="0"/>
        <pt x="472" y="60" on="0"/>
        <pt x="538" y="132" on="0"/>
        <pt x="574" y="223" on="0"/>
        <pt x="574" y="270" on="1"/>
        <pt x="574" y="319" on="0"/>
        <pt x="536" y="411" on="0"/>
        <pt x="469" y="482" on="0"/>
        <pt x="377" y="524" on="0"/>
        <pt x="324" y="524" on="1"/>
        <pt x="268" y="524" on="0"/>
        <pt x="175" y="480" on="0"/>
        <pt x="109" y="408" on="0"/>
        <pt x="72" y="317" on="0"/>
      </contour>
    </TTGlyph>
    <TTGlyph name="OE" xMin="48" yMin="-5" xMax="1155" yMax="715">
      <contour>
        <pt x="1155" y="20" on="1"/>
        <pt x="1155" y="0" on="1"/>
        <pt x="689" y="0" on="1"/>
        <pt x="689" y="234" on="1"/>
        <pt x="672" y="184" on="0"/>
        <pt x="612" y="96" on="0"/>
        <pt x="532" y="32" on="0"/>
        <pt x="435" y="-5" on="0"/>
        <pt x="381" y="-5" on="1"/>
        <pt x="307" y="-5" on="0"/>
        <pt x="185" y="56" on="0"/>
        <pt x="97" y="157" on="0"/>
        <pt x="48" y="287" on="0"/>
        <pt x="48" y="355" on="1"/>
        <pt x="48" y="426" on="0"/>
        <pt x="99" y="556" on="0"/>
        <pt x="188" y="656" on="0"/>
        <pt x="309" y="715" on="0"/>
        <pt x="379" y="715" on="1"/>
        <pt x="436" y="715" on="0"/>
        <pt x="534" y="677" on="0"/>
        <pt x="614" y="611" on="0"/>
        <pt x="672" y="524" on="0"/>
        <pt x="689" y="475" on="1"/>
        <pt x="689" y="710" on="1"/>
        <pt x="1146" y="710" on="1"/>
        <pt x="1146" y="690" on="1"/>
        <pt x="709" y="690" on="1"/>
        <pt x="709" y="373" on="1"/>
        <pt x="1092" y="373" on="1"/>
        <pt x="1092" y="353" on="1"/>
        <pt x="709" y="353" on="1"/>
        <pt x="709" y="20" on="1"/>
      </contour>
      <contour>
        <pt x="379" y="15" on="1"/>
        <pt x="448" y="15" on="0"/>
        <pt x="563" y="74" on="0"/>
        <pt x="644" y="170" on="0"/>
        <pt x="689" y="293" on="0"/>
        <pt x="689" y="356" on="1"/>
        <pt x="689" y="422" on="0"/>
        <pt x="642" y="544" on="0"/>
        <pt x="558" y="639" on="0"/>
        <pt x="445" y="695" on="0"/>
        <pt x="379" y="695" on="1"/>
        <pt x="310" y="695" on="0"/>
        <pt x="195" y="636" on="0"/>
        <pt x="113" y="540" on="0"/>
        <pt x="68" y="418" on="0"/>
        <pt x="68" y="355" on="1"/>
        <pt x="68" y="289" on="0"/>
        <pt x="115" y="166" on="0"/>
        <pt x="197" y="71" on="0"/>
        <pt x="311" y="15" on="0"/>
      </contour>
    </TTGlyph>
    <TTGlyph name="Oacute" xMin="48" yMin="-5" xMax="709" yMax="918">
      <contour>
        <pt x="379" y="-5" on="1"/>
        <pt x="305" y="-5" on="0"/>
        <pt x="184" y="57" on="0"/>
        <pt x="96" y="157" on="0"/>
        <pt x="48" y="287" on="0"/>
        <pt x="48" y="355" on="1"/>
        <pt x="48" y="426" on="0"/>
        <pt x="99" y="556" on="0"/>
        <pt x="188" y="656" on="0"/>
        <pt x="309" y="715" on="0"/>
        <pt x="379" y="715" on="1"/>
        <pt x="452" y="715" on="0"/>
        <pt x="574" y="652" on="0"/>
        <pt x="661" y="550" on="0"/>
        <pt x="709" y="421" on="0"/>
        <pt x="709" y="355" on="1"/>
        <pt x="709" y="283" on="0"/>
        <pt x="658" y="153" on="0"/>
        <pt x="569" y="54" on="0"/>
        <pt x="449" y="-5" on="0"/>
      </contour>
      <contour>
        <pt x="68" y="355" on="1"/>
        <pt x="68" y="289" on="0"/>
        <pt x="115" y="166" on="0"/>
        <pt x="197" y="71" on="0"/>
        <pt x="311" y="15" on="0"/>
        <pt x="379" y="15" on="1"/>
        <pt x="448" y="15" on="0"/>
        <pt x="563" y="74" on="0"/>
        <pt x="644" y="170" on="0"/>
        <pt x="689" y="292" on="0"/>
        <pt x="689" y="355" on="1"/>
        <pt x="689" y="421" on="0"/>
        <pt x="642" y="544" on="0"/>
        <pt x="558" y="639" on="0"/>
        <pt x="445" y="695" on="0"/>
        <pt x="379" y="695" on="1"/>
        <pt x="310" y="695" on="0"/>
        <pt x="195" y="636" on="0"/>
        <pt x="113" y="540" on="0"/>
        <pt x="68" y="418" on="0"/>
      </contour>
      <contour>
        <pt x="365" y="833" on="1"/>
        <pt x="349" y="845" on="1"/>
        <pt x="413" y="918" on="1"/>
        <pt x="447" y="918" on="1"/>
      </contour>
    </TTGlyph>
    <TTGlyph name="Obreve" xMin="48" yMin="-5" xMax="709" yMax="918">
      <contour>
        <pt x="379" y="-5" on="1"/>
        <pt x="305" y="-5" on="0"/>
        <pt x="184" y="57" on="0"/>
        <pt x="96" y="157" on="0"/>
        <pt x="48" y="287" on="0"/>
        <pt x="48" y="355" on="1"/>
        <pt x="48" y="426" on="0"/>
        <pt x="99" y="556" on="0"/>
        <pt x="188" y="656" on="0"/>
        <pt x="309" y="715" on="0"/>
        <pt x="379" y="715" on="1"/>
        <pt x="452" y="715" on="0"/>
        <pt x="574" y="652" on="0"/>
        <pt x="661" y="550" on="0"/>
        <pt x="709" y="421" on="0"/>
        <pt x="709" y="355" on="1"/>
        <pt x="709" y="283" on="0"/>
        <pt x="658" y="153" on="0"/>
        <pt x="569" y="54" on="0"/>
        <pt x="449" y="-5" on="0"/>
      </contour>
      <contour>
        <pt x="68" y="355" on="1"/>
        <pt x="68" y="289" on="0"/>
        <pt x="115" y="166" on="0"/>
        <pt x="197" y="71" on="0"/>
        <pt x="311" y="15" on="0"/>
        <pt x="379" y="15" on="1"/>
        <pt x="448" y="15" on="0"/>
        <pt x="563" y="74" on="0"/>
        <pt x="644" y="170" on="0"/>
        <pt x="689" y="292" on="0"/>
        <pt x="689" y="355" on="1"/>
        <pt x="689" y="421" on="0"/>
        <pt x="642" y="544" on="0"/>
        <pt x="558" y="639" on="0"/>
        <pt x="445" y="695" on="0"/>
        <pt x="379" y="695" on="1"/>
        <pt x="310" y="695" on="0"/>
        <pt x="195" y="636" on="0"/>
        <pt x="113" y="540" on="0"/>
        <pt x="68" y="418" on="0"/>
      </contour>
      <contour>
        <pt x="379" y="858" on="1"/>
        <pt x="399" y="858" on="0"/>
        <pt x="432" y="893" on="0"/>
        <pt x="435" y="918" on="1"/>
        <pt x="453" y="918" on="1"/>
        <pt x="453" y="903" on="0"/>
        <pt x="441" y="875" on="0"/>
        <pt x="420" y="854" on="0"/>
        <pt x="394" y="841" on="0"/>
        <pt x="379" y="841" on="1"/>
        <pt x="364" y="841" on="0"/>
        <pt x="338" y="854" on="0"/>
        <pt x="317" y="875" on="0"/>
        <pt x="305" y="903" on="0"/>
        <pt x="305" y="918" on="1"/>
        <pt x="324" y="918" on="1"/>
        <pt x="324" y="895" on="0"/>
        <pt x="358" y="858" on="0"/>
      </contour>
    </TTGlyph>
    <TTGlyph name="Ocircumflex" xMin="48" yMin="-5" xMax="709" yMax="918">
      <contour>
        <pt x="379" y="-5" on="1"/>
        <pt x="305" y="-5" on="0"/>
        <pt x="184" y="57" on="0"/>
        <pt x="96" y="157" on="0"/>
        <pt x="48" y="287" on="0"/>
        <pt x="48" y="355" on="1"/>
        <pt x="48" y="426" on="0"/>
        <pt x="99" y="556" on="0"/>
        <pt x="188" y="656" on="0"/>
        <pt x="309" y="715" on="0"/>
        <pt x="379" y="715" on="1"/>
        <pt x="452" y="715" on="0"/>
        <pt x="574" y="652" on="0"/>
        <pt x="661" y="550" on="0"/>
        <pt x="709" y="421" on="0"/>
        <pt x="709" y="355" on="1"/>
        <pt x="709" y="283" on="0"/>
        <pt x="658" y="153" on="0"/>
        <pt x="569" y="54" on="0"/>
        <pt x="449" y="-5" on="0"/>
      </contour>
      <contour>
        <pt x="68" y="355" on="1"/>
        <pt x="68" y="289" on="0"/>
        <pt x="115" y="166" on="0"/>
        <pt x="197" y="71" on="0"/>
        <pt x="311" y="15" on="0"/>
        <pt x="379" y="15" on="1"/>
        <pt x="448" y="15" on="0"/>
        <pt x="563" y="74" on="0"/>
        <pt x="644" y="170" on="0"/>
        <pt x="689" y="292" on="0"/>
        <pt x="689" y="355" on="1"/>
        <pt x="689" y="421" on="0"/>
        <pt x="642" y="544" on="0"/>
        <pt x="558" y="639" on="0"/>
        <pt x="445" y="695" on="0"/>
        <pt x="379" y="695" on="1"/>
        <pt x="310" y="695" on="0"/>
        <pt x="195" y="636" on="0"/>
        <pt x="113" y="540" on="0"/>
        <pt x="68" y="418" on="0"/>
      </contour>
      <contour>
        <pt x="278" y="844" on="1"/>
        <pt x="371" y="918" on="1"/>
        <pt x="387" y="918" on="1"/>
        <pt x="480" y="844" on="1"/>
        <pt x="464" y="832" on="1"/>
        <pt x="379" y="895" on="1"/>
        <pt x="294" y="832" on="1"/>
      </contour>
    </TTGlyph>
    <TTGlyph name="Odblgrave" xMin="48" yMin="-5" xMax="709" yMax="918">
      <contour>
        <pt x="379" y="-5" on="1"/>
        <pt x="305" y="-5" on="0"/>
        <pt x="184" y="57" on="0"/>
        <pt x="96" y="157" on="0"/>
        <pt x="48" y="287" on="0"/>
        <pt x="48" y="355" on="1"/>
        <pt x="48" y="426" on="0"/>
        <pt x="99" y="556" on="0"/>
        <pt x="188" y="656" on="0"/>
        <pt x="309" y="715" on="0"/>
        <pt x="379" y="715" on="1"/>
        <pt x="452" y="715" on="0"/>
        <pt x="574" y="652" on="0"/>
        <pt x="661" y="550" on="0"/>
        <pt x="709" y="421" on="0"/>
        <pt x="709" y="355" on="1"/>
        <pt x="709" y="283" on="0"/>
        <pt x="658" y="153" on="0"/>
        <pt x="569" y="54" on="0"/>
        <pt x="449" y="-5" on="0"/>
      </contour>
      <contour>
        <pt x="68" y="355" on="1"/>
        <pt x="68" y="289" on="0"/>
        <pt x="115" y="166" on="0"/>
        <pt x="197" y="71" on="0"/>
        <pt x="311" y="15" on="0"/>
        <pt x="379" y="15" on="1"/>
        <pt x="448" y="15" on="0"/>
        <pt x="563" y="74" on="0"/>
        <pt x="644" y="170" on="0"/>
        <pt x="689" y="292" on="0"/>
        <pt x="689" y="355" on="1"/>
        <pt x="689" y="421" on="0"/>
        <pt x="642" y="544" on="0"/>
        <pt x="558" y="639" on="0"/>
        <pt x="445" y="695" on="0"/>
        <pt x="379" y="695" on="1"/>
        <pt x="310" y="695" on="0"/>
        <pt x="195" y="636" on="0"/>
        <pt x="113" y="540" on="0"/>
        <pt x="68" y="418" on="0"/>
      </contour>
      <contour>
        <pt x="352" y="918" on="1"/>
        <pt x="386" y="918" on="1"/>
        <pt x="450" y="845" on="1"/>
        <pt x="434" y="833" on="1"/>
      </contour>
      <contour>
        <pt x="252" y="918" on="1"/>
        <pt x="286" y="918" on="1"/>
        <pt x="350" y="845" on="1"/>
        <pt x="334" y="833" on="1"/>
      </contour>
    </TTGlyph>
    <TTGlyph name="Odieresis" xMin="48" yMin="-5" xMax="709" yMax="918">
      <contour>
        <pt x="379" y="-5" on="1"/>
        <pt x="305" y="-5" on="0"/>
        <pt x="184" y="57" on="0"/>
        <pt x="96" y="157" on="0"/>
        <pt x="48" y="287" on="0"/>
        <pt x="48" y="355" on="1"/>
        <pt x="48" y="426" on="0"/>
        <pt x="99" y="556" on="0"/>
        <pt x="188" y="656" on="0"/>
        <pt x="309" y="715" on="0"/>
        <pt x="379" y="715" on="1"/>
        <pt x="452" y="715" on="0"/>
        <pt x="574" y="652" on="0"/>
        <pt x="661" y="550" on="0"/>
        <pt x="709" y="421" on="0"/>
        <pt x="709" y="355" on="1"/>
        <pt x="709" y="283" on="0"/>
        <pt x="658" y="153" on="0"/>
        <pt x="569" y="54" on="0"/>
        <pt x="449" y="-5" on="0"/>
      </contour>
      <contour>
        <pt x="68" y="355" on="1"/>
        <pt x="68" y="289" on="0"/>
        <pt x="115" y="166" on="0"/>
        <pt x="197" y="71" on="0"/>
        <pt x="311" y="15" on="0"/>
        <pt x="379" y="15" on="1"/>
        <pt x="448" y="15" on="0"/>
        <pt x="563" y="74" on="0"/>
        <pt x="644" y="170" on="0"/>
        <pt x="689" y="292" on="0"/>
        <pt x="689" y="355" on="1"/>
        <pt x="689" y="421" on="0"/>
        <pt x="642" y="544" on="0"/>
        <pt x="558" y="639" on="0"/>
        <pt x="445" y="695" on="0"/>
        <pt x="379" y="695" on="1"/>
        <pt x="310" y="695" on="0"/>
        <pt x="195" y="636" on="0"/>
        <pt x="113" y="540" on="0"/>
        <pt x="68" y="418" on="0"/>
      </contour>
      <contour>
        <pt x="311" y="841" on="1"/>
        <pt x="311" y="918" on="1"/>
        <pt x="331" y="918" on="1"/>
        <pt x="331" y="841" on="1"/>
      </contour>
      <contour>
        <pt x="427" y="841" on="1"/>
        <pt x="427" y="918" on="1"/>
        <pt x="447" y="918" on="1"/>
        <pt x="447" y="841" on="1"/>
      </contour>
    </TTGlyph>
    <TTGlyph name="Odotbelow" xMin="48" yMin="-127" xMax="709" yMax="715">
      <contour>
        <pt x="379" y="-5" on="1"/>
        <pt x="305" y="-5" on="0"/>
        <pt x="184" y="57" on="0"/>
        <pt x="96" y="157" on="0"/>
        <pt x="48" y="287" on="0"/>
        <pt x="48" y="355" on="1"/>
        <pt x="48" y="426" on="0"/>
        <pt x="99" y="556" on="0"/>
        <pt x="188" y="656" on="0"/>
        <pt x="309" y="715" on="0"/>
        <pt x="379" y="715" on="1"/>
        <pt x="452" y="715" on="0"/>
        <pt x="574" y="652" on="0"/>
        <pt x="661" y="550" on="0"/>
        <pt x="709" y="421" on="0"/>
        <pt x="709" y="355" on="1"/>
        <pt x="709" y="283" on="0"/>
        <pt x="658" y="153" on="0"/>
        <pt x="569" y="54" on="0"/>
        <pt x="449" y="-5" on="0"/>
      </contour>
      <contour>
        <pt x="68" y="355" on="1"/>
        <pt x="68" y="289" on="0"/>
        <pt x="115" y="166" on="0"/>
        <pt x="197" y="71" on="0"/>
        <pt x="311" y="15" on="0"/>
        <pt x="379" y="15" on="1"/>
        <pt x="448" y="15" on="0"/>
        <pt x="563" y="74" on="0"/>
        <pt x="644" y="170" on="0"/>
        <pt x="689" y="292" on="0"/>
        <pt x="689" y="355" on="1"/>
        <pt x="689" y="421" on="0"/>
        <pt x="642" y="544" on="0"/>
        <pt x="558" y="639" on="0"/>
        <pt x="445" y="695" on="0"/>
        <pt x="379" y="695" on="1"/>
        <pt x="310" y="695" on="0"/>
        <pt x="195" y="636" on="0"/>
        <pt x="113" y="540" on="0"/>
        <pt x="68" y="418" on="0"/>
      </contour>
      <contour>
        <pt x="368" y="-127" on="1"/>
        <pt x="368" y="-50" on="1"/>
        <pt x="388" y="-50" on="1"/>
        <pt x="388" y="-127" on="1"/>
      </contour>
    </TTGlyph>
    <TTGlyph name="Ograve" xMin="48" yMin="-5" xMax="709" yMax="918">
      <contour>
        <pt x="379" y="-5" on="1"/>
        <pt x="305" y="-5" on="0"/>
        <pt x="184" y="57" on="0"/>
        <pt x="96" y="157" on="0"/>
        <pt x="48" y="287" on="0"/>
        <pt x="48" y="355" on="1"/>
        <pt x="48" y="426" on="0"/>
        <pt x="99" y="556" on="0"/>
        <pt x="188" y="656" on="0"/>
        <pt x="309" y="715" on="0"/>
        <pt x="379" y="715" on="1"/>
        <pt x="452" y="715" on="0"/>
        <pt x="574" y="652" on="0"/>
        <pt x="661" y="550" on="0"/>
        <pt x="709" y="421" on="0"/>
        <pt x="709" y="355" on="1"/>
        <pt x="709" y="283" on="0"/>
        <pt x="658" y="153" on="0"/>
        <pt x="569" y="54" on="0"/>
        <pt x="449" y="-5" on="0"/>
      </contour>
      <contour>
        <pt x="68" y="355" on="1"/>
        <pt x="68" y="289" on="0"/>
        <pt x="115" y="166" on="0"/>
        <pt x="197" y="71" on="0"/>
        <pt x="311" y="15" on="0"/>
        <pt x="379" y="15" on="1"/>
        <pt x="448" y="15" on="0"/>
        <pt x="563" y="74" on="0"/>
        <pt x="644" y="170" on="0"/>
        <pt x="689" y="292" on="0"/>
        <pt x="689" y="355" on="1"/>
        <pt x="689" y="421" on="0"/>
        <pt x="642" y="544" on="0"/>
        <pt x="558" y="639" on="0"/>
        <pt x="445" y="695" on="0"/>
        <pt x="379" y="695" on="1"/>
        <pt x="310" y="695" on="0"/>
        <pt x="195" y="636" on="0"/>
        <pt x="113" y="540" on="0"/>
        <pt x="68" y="418" on="0"/>
      </contour>
      <contour>
        <pt x="311" y="918" on="1"/>
        <pt x="344" y="918" on="1"/>
        <pt x="409" y="845" on="1"/>
        <pt x="393" y="833" on="1"/>
      </contour>
    </TTGlyph>
    <TTGlyph name="Ohungarumlaut" xMin="48" yMin="-5" xMax="709" yMax="918">
      <contour>
        <pt x="379" y="-5" on="1"/>
        <pt x="305" y="-5" on="0"/>
        <pt x="184" y="57" on="0"/>
        <pt x="96" y="157" on="0"/>
        <pt x="48" y="287" on="0"/>
        <pt x="48" y="355" on="1"/>
        <pt x="48" y="426" on="0"/>
        <pt x="99" y="556" on="0"/>
        <pt x="188" y="656" on="0"/>
        <pt x="309" y="715" on="0"/>
        <pt x="379" y="715" on="1"/>
        <pt x="452" y="715" on="0"/>
        <pt x="574" y="652" on="0"/>
        <pt x="661" y="550" on="0"/>
        <pt x="709" y="421" on="0"/>
        <pt x="709" y="355" on="1"/>
        <pt x="709" y="283" on="0"/>
        <pt x="658" y="153" on="0"/>
        <pt x="569" y="54" on="0"/>
        <pt x="449" y="-5" on="0"/>
      </contour>
      <contour>
        <pt x="68" y="355" on="1"/>
        <pt x="68" y="289" on="0"/>
        <pt x="115" y="166" on="0"/>
        <pt x="197" y="71" on="0"/>
        <pt x="311" y="15" on="0"/>
        <pt x="379" y="15" on="1"/>
        <pt x="448" y="15" on="0"/>
        <pt x="563" y="74" on="0"/>
        <pt x="644" y="170" on="0"/>
        <pt x="689" y="292" on="0"/>
        <pt x="689" y="355" on="1"/>
        <pt x="689" y="421" on="0"/>
        <pt x="642" y="544" on="0"/>
        <pt x="558" y="639" on="0"/>
        <pt x="445" y="695" on="0"/>
        <pt x="379" y="695" on="1"/>
        <pt x="310" y="695" on="0"/>
        <pt x="195" y="636" on="0"/>
        <pt x="113" y="540" on="0"/>
        <pt x="68" y="418" on="0"/>
      </contour>
      <contour>
        <pt x="315" y="833" on="1"/>
        <pt x="299" y="845" on="1"/>
        <pt x="363" y="918" on="1"/>
        <pt x="397" y="918" on="1"/>
      </contour>
      <contour>
        <pt x="415" y="833" on="1"/>
        <pt x="399" y="845" on="1"/>
        <pt x="463" y="918" on="1"/>
        <pt x="497" y="918" on="1"/>
      </contour>
    </TTGlyph>
    <TTGlyph name="Oinvertedbreve" xMin="48" yMin="-5" xMax="709" yMax="918">
      <contour>
        <pt x="379" y="-5" on="1"/>
        <pt x="305" y="-5" on="0"/>
        <pt x="184" y="57" on="0"/>
        <pt x="96" y="157" on="0"/>
        <pt x="48" y="287" on="0"/>
        <pt x="48" y="355" on="1"/>
        <pt x="48" y="426" on="0"/>
        <pt x="99" y="556" on="0"/>
        <pt x="188" y="656" on="0"/>
        <pt x="309" y="715" on="0"/>
        <pt x="379" y="715" on="1"/>
        <pt x="452" y="715" on="0"/>
        <pt x="574" y="652" on="0"/>
        <pt x="661" y="550" on="0"/>
        <pt x="709" y="421" on="0"/>
        <pt x="709" y="355" on="1"/>
        <pt x="709" y="283" on="0"/>
        <pt x="658" y="153" on="0"/>
        <pt x="569" y="54" on="0"/>
        <pt x="449" y="-5" on="0"/>
      </contour>
      <contour>
        <pt x="68" y="355" on="1"/>
        <pt x="68" y="289" on="0"/>
        <pt x="115" y="166" on="0"/>
        <pt x="197" y="71" on="0"/>
        <pt x="311" y="15" on="0"/>
        <pt x="379" y="15" on="1"/>
        <pt x="448" y="15" on="0"/>
        <pt x="563" y="74" on="0"/>
        <pt x="644" y="170" on="0"/>
        <pt x="689" y="292" on="0"/>
        <pt x="689" y="355" on="1"/>
        <pt x="689" y="421" on="0"/>
        <pt x="642" y="544" on="0"/>
        <pt x="558" y="639" on="0"/>
        <pt x="445" y="695" on="0"/>
        <pt x="379" y="695" on="1"/>
        <pt x="310" y="695" on="0"/>
        <pt x="195" y="636" on="0"/>
        <pt x="113" y="540" on="0"/>
        <pt x="68" y="418" on="0"/>
      </contour>
      <contour>
        <pt x="376" y="901" on="1"/>
        <pt x="355" y="901" on="0"/>
        <pt x="321" y="864" on="0"/>
        <pt x="321" y="841" on="1"/>
        <pt x="302" y="841" on="1"/>
        <pt x="302" y="856" on="0"/>
        <pt x="314" y="884" on="0"/>
        <pt x="335" y="905" on="0"/>
        <pt x="361" y="918" on="0"/>
        <pt x="376" y="918" on="1"/>
        <pt x="391" y="918" on="0"/>
        <pt x="417" y="905" on="0"/>
        <pt x="438" y="884" on="0"/>
        <pt x="450" y="856" on="0"/>
        <pt x="450" y="841" on="1"/>
        <pt x="432" y="841" on="1"/>
        <pt x="429" y="866" on="0"/>
        <pt x="396" y="901" on="0"/>
      </contour>
    </TTGlyph>
    <TTGlyph name="Omacron" xMin="48" yMin="-5" xMax="709" yMax="894">
      <contour>
        <pt x="379" y="-5" on="1"/>
        <pt x="305" y="-5" on="0"/>
        <pt x="184" y="57" on="0"/>
        <pt x="96" y="157" on="0"/>
        <pt x="48" y="287" on="0"/>
        <pt x="48" y="355" on="1"/>
        <pt x="48" y="426" on="0"/>
        <pt x="99" y="556" on="0"/>
        <pt x="188" y="656" on="0"/>
        <pt x="309" y="715" on="0"/>
        <pt x="379" y="715" on="1"/>
        <pt x="452" y="715" on="0"/>
        <pt x="574" y="652" on="0"/>
        <pt x="661" y="550" on="0"/>
        <pt x="709" y="421" on="0"/>
        <pt x="709" y="355" on="1"/>
        <pt x="709" y="283" on="0"/>
        <pt x="658" y="153" on="0"/>
        <pt x="569" y="54" on="0"/>
        <pt x="449" y="-5" on="0"/>
      </contour>
      <contour>
        <pt x="68" y="355" on="1"/>
        <pt x="68" y="289" on="0"/>
        <pt x="115" y="166" on="0"/>
        <pt x="197" y="71" on="0"/>
        <pt x="311" y="15" on="0"/>
        <pt x="379" y="15" on="1"/>
        <pt x="448" y="15" on="0"/>
        <pt x="563" y="74" on="0"/>
        <pt x="644" y="170" on="0"/>
        <pt x="689" y="292" on="0"/>
        <pt x="689" y="355" on="1"/>
        <pt x="689" y="421" on="0"/>
        <pt x="642" y="544" on="0"/>
        <pt x="558" y="639" on="0"/>
        <pt x="445" y="695" on="0"/>
        <pt x="379" y="695" on="1"/>
        <pt x="310" y="695" on="0"/>
        <pt x="195" y="636" on="0"/>
        <pt x="113" y="540" on="0"/>
        <pt x="68" y="418" on="0"/>
      </contour>
      <contour>
        <pt x="239" y="874" on="1"/>
        <pt x="239" y="894" on="1"/>
        <pt x="519" y="894" on="1"/>
        <pt x="519" y="874" on="1"/>
      </contour>
    </TTGlyph>
    <TTGlyph name="Omega" xMin="49" yMin="0" xMax="721" yMax="715">
      <contour>
        <pt x="49" y="21" on="1"/>
        <pt x="268" y="21" on="1"/>
        <pt x="218" y="43" on="0"/>
        <pt x="138" y="115" on="0"/>
        <pt x="83" y="205" on="0"/>
        <pt x="54" y="310" on="0"/>
        <pt x="54" y="365" on="1"/>
        <pt x="54" y="434" on="0"/>
        <pt x="104" y="561" on="0"/>
        <pt x="192" y="657" on="0"/>
        <pt x="313" y="715" on="0"/>
        <pt x="385" y="715" on="1"/>
        <pt x="457" y="715" on="0"/>
        <pt x="578" y="657" on="0"/>
        <pt x="666" y="561" on="0"/>
        <pt x="716" y="434" on="0"/>
        <pt x="716" y="365" on="1"/>
        <pt x="716" y="310" on="0"/>
        <pt x="687" y="205" on="0"/>
        <pt x="632" y="115" on="0"/>
        <pt x="552" y="43" on="0"/>
        <pt x="502" y="21" on="1"/>
        <pt x="721" y="21" on="1"/>
        <pt x="721" y="0" on="1"/>
        <pt x="432" y="0" on="1"/>
        <pt x="432" y="21" on="1"/>
        <pt x="496" y="34" on="0"/>
        <pt x="595" y="104" on="0"/>
        <pt x="661" y="200" on="0"/>
        <pt x="695" y="311" on="0"/>
        <pt x="695" y="365" on="1"/>
        <pt x="695" y="426" on="0"/>
        <pt x="652" y="544" on="0"/>
        <pt x="572" y="636" on="0"/>
        <pt x="457" y="693" on="0"/>
        <pt x="385" y="693" on="1"/>
        <pt x="313" y="693" on="0"/>
        <pt x="198" y="636" on="0"/>
        <pt x="118" y="544" on="0"/>
        <pt x="75" y="426" on="0"/>
        <pt x="75" y="365" on="1"/>
        <pt x="75" y="311" on="0"/>
        <pt x="109" y="200" on="0"/>
        <pt x="175" y="104" on="0"/>
        <pt x="273" y="34" on="0"/>
        <pt x="338" y="21" on="1"/>
        <pt x="338" y="0" on="1"/>
        <pt x="49" y="0" on="1"/>
      </contour>
    </TTGlyph>
    <TTGlyph name="Oogonek" xMin="48" yMin="-163" xMax="709" yMax="715">
      <contour>
        <pt x="349" y="-163" on="1"/>
        <pt x="324" y="-157" on="0"/>
        <pt x="297" y="-125" on="0"/>
        <pt x="297" y="-102" on="1"/>
        <pt x="297" y="-79" on="0"/>
        <pt x="329" y="-33" on="0"/>
        <pt x="366" y="-4" on="1"/>
        <pt x="295" y="-1" on="0"/>
        <pt x="178" y="62" on="0"/>
        <pt x="94" y="162" on="0"/>
        <pt x="48" y="288" on="0"/>
        <pt x="48" y="355" on="1"/>
        <pt x="48" y="426" on="0"/>
        <pt x="99" y="556" on="0"/>
        <pt x="188" y="656" on="0"/>
        <pt x="309" y="715" on="0"/>
        <pt x="379" y="715" on="1"/>
        <pt x="452" y="715" on="0"/>
        <pt x="574" y="652" on="0"/>
        <pt x="661" y="550" on="0"/>
        <pt x="709" y="421" on="0"/>
        <pt x="709" y="355" on="1"/>
        <pt x="709" y="286" on="0"/>
        <pt x="661" y="159" on="0"/>
        <pt x="577" y="61" on="0"/>
        <pt x="463" y="0" on="0"/>
        <pt x="397" y="-4" on="1"/>
        <pt x="352" y="-35" on="0"/>
        <pt x="317" y="-76" on="0"/>
        <pt x="317" y="-99" on="1"/>
        <pt x="317" y="-137" on="0"/>
        <pt x="361" y="-146" on="1"/>
      </contour>
      <contour>
        <pt x="68" y="355" on="1"/>
        <pt x="68" y="289" on="0"/>
        <pt x="115" y="166" on="0"/>
        <pt x="197" y="71" on="0"/>
        <pt x="311" y="15" on="0"/>
        <pt x="379" y="15" on="1"/>
        <pt x="448" y="15" on="0"/>
        <pt x="563" y="74" on="0"/>
        <pt x="644" y="170" on="0"/>
        <pt x="689" y="292" on="0"/>
        <pt x="689" y="355" on="1"/>
        <pt x="689" y="421" on="0"/>
        <pt x="642" y="544" on="0"/>
        <pt x="558" y="639" on="0"/>
        <pt x="445" y="695" on="0"/>
        <pt x="379" y="695" on="1"/>
        <pt x="310" y="695" on="0"/>
        <pt x="195" y="636" on="0"/>
        <pt x="113" y="540" on="0"/>
        <pt x="68" y="418" on="0"/>
      </contour>
    </TTGlyph>
    <TTGlyph name="Oslash" xMin="48" yMin="-5" xMax="709" yMax="715">
      <contour>
        <pt x="619" y="710" on="1"/>
        <pt x="576" y="642" on="1"/>
        <pt x="607" y="616" on="0"/>
        <pt x="656" y="550" on="0"/>
        <pt x="691" y="476" on="0"/>
        <pt x="709" y="395" on="0"/>
        <pt x="709" y="355" on="1"/>
        <pt x="709" y="283" on="0"/>
        <pt x="658" y="153" on="0"/>
        <pt x="569" y="54" on="0"/>
        <pt x="449" y="-5" on="0"/>
        <pt x="379" y="-5" on="1"/>
        <pt x="327" y="-4" on="0"/>
        <pt x="236" y="27" on="0"/>
        <pt x="198" y="54" on="1"/>
        <pt x="163" y="0" on="1"/>
        <pt x="138" y="0" on="1"/>
        <pt x="181" y="67" on="1"/>
        <pt x="118" y="118" on="0"/>
        <pt x="48" y="271" on="0"/>
        <pt x="48" y="355" on="1"/>
        <pt x="48" y="426" on="0"/>
        <pt x="99" y="556" on="0"/>
        <pt x="188" y="656" on="0"/>
        <pt x="309" y="715" on="0"/>
        <pt x="379" y="715" on="1"/>
        <pt x="430" y="715" on="0"/>
        <pt x="520" y="684" on="0"/>
        <pt x="558" y="656" on="1"/>
        <pt x="593" y="710" on="1"/>
      </contour>
      <contour>
        <pt x="689" y="355" on="1"/>
        <pt x="689" y="434" on="0"/>
        <pt x="622" y="577" on="0"/>
        <pt x="565" y="625" on="1"/>
        <pt x="208" y="71" on="1"/>
        <pt x="244" y="45" on="0"/>
        <pt x="330" y="15" on="0"/>
        <pt x="379" y="15" on="1"/>
        <pt x="448" y="15" on="0"/>
        <pt x="563" y="74" on="0"/>
        <pt x="644" y="170" on="0"/>
        <pt x="689" y="292" on="0"/>
      </contour>
      <contour>
        <pt x="68" y="355" on="1"/>
        <pt x="68" y="275" on="0"/>
        <pt x="134" y="132" on="0"/>
        <pt x="191" y="84" on="1"/>
        <pt x="547" y="639" on="1"/>
        <pt x="511" y="665" on="0"/>
        <pt x="427" y="695" on="0"/>
        <pt x="379" y="695" on="1"/>
        <pt x="310" y="695" on="0"/>
        <pt x="195" y="636" on="0"/>
        <pt x="113" y="540" on="0"/>
        <pt x="68" y="418" on="0"/>
      </contour>
    </TTGlyph>
    <TTGlyph name="Oslashacute" xMin="48" yMin="-5" xMax="709" yMax="918">
      <contour>
        <pt x="619" y="710" on="1"/>
        <pt x="576" y="642" on="1"/>
        <pt x="607" y="616" on="0"/>
        <pt x="656" y="550" on="0"/>
        <pt x="691" y="476" on="0"/>
        <pt x="709" y="395" on="0"/>
        <pt x="709" y="355" on="1"/>
        <pt x="709" y="283" on="0"/>
        <pt x="658" y="153" on="0"/>
        <pt x="569" y="54" on="0"/>
        <pt x="449" y="-5" on="0"/>
        <pt x="379" y="-5" on="1"/>
        <pt x="327" y="-4" on="0"/>
        <pt x="236" y="27" on="0"/>
        <pt x="198" y="54" on="1"/>
        <pt x="163" y="0" on="1"/>
        <pt x="138" y="0" on="1"/>
        <pt x="181" y="67" on="1"/>
        <pt x="118" y="118" on="0"/>
        <pt x="48" y="271" on="0"/>
        <pt x="48" y="355" on="1"/>
        <pt x="48" y="426" on="0"/>
        <pt x="99" y="556" on="0"/>
        <pt x="188" y="656" on="0"/>
        <pt x="309" y="715" on="0"/>
        <pt x="379" y="715" on="1"/>
        <pt x="430" y="715" on="0"/>
        <pt x="520" y="684" on="0"/>
        <pt x="558" y="656" on="1"/>
        <pt x="593" y="710" on="1"/>
      </contour>
      <contour>
        <pt x="689" y="355" on="1"/>
        <pt x="689" y="434" on="0"/>
        <pt x="622" y="577" on="0"/>
        <pt x="565" y="625" on="1"/>
        <pt x="208" y="71" on="1"/>
        <pt x="244" y="45" on="0"/>
        <pt x="330" y="15" on="0"/>
        <pt x="379" y="15" on="1"/>
        <pt x="448" y="15" on="0"/>
        <pt x="563" y="74" on="0"/>
        <pt x="644" y="170" on="0"/>
        <pt x="689" y="292" on="0"/>
      </contour>
      <contour>
        <pt x="68" y="355" on="1"/>
        <pt x="68" y="275" on="0"/>
        <pt x="134" y="132" on="0"/>
        <pt x="191" y="84" on="1"/>
        <pt x="547" y="639" on="1"/>
        <pt x="511" y="665" on="0"/>
        <pt x="427" y="695" on="0"/>
        <pt x="379" y="695" on="1"/>
        <pt x="310" y="695" on="0"/>
        <pt x="195" y="636" on="0"/>
        <pt x="113" y="540" on="0"/>
        <pt x="68" y="418" on="0"/>
      </contour>
      <contour>
        <pt x="365" y="833" on="1"/>
        <pt x="349" y="845" on="1"/>
        <pt x="413" y="918" on="1"/>
        <pt x="447" y="918" on="1"/>
      </contour>
    </TTGlyph>
    <TTGlyph name="Otilde" xMin="48" yMin="-5" xMax="709" yMax="918">
      <contour>
        <pt x="379" y="-5" on="1"/>
        <pt x="305" y="-5" on="0"/>
        <pt x="184" y="57" on="0"/>
        <pt x="96" y="157" on="0"/>
        <pt x="48" y="287" on="0"/>
        <pt x="48" y="355" on="1"/>
        <pt x="48" y="426" on="0"/>
        <pt x="99" y="556" on="0"/>
        <pt x="188" y="656" on="0"/>
        <pt x="309" y="715" on="0"/>
        <pt x="379" y="715" on="1"/>
        <pt x="452" y="715" on="0"/>
        <pt x="574" y="652" on="0"/>
        <pt x="661" y="550" on="0"/>
        <pt x="709" y="421" on="0"/>
        <pt x="709" y="355" on="1"/>
        <pt x="709" y="283" on="0"/>
        <pt x="658" y="153" on="0"/>
        <pt x="569" y="54" on="0"/>
        <pt x="449" y="-5" on="0"/>
      </contour>
      <contour>
        <pt x="68" y="355" on="1"/>
        <pt x="68" y="289" on="0"/>
        <pt x="115" y="166" on="0"/>
        <pt x="197" y="71" on="0"/>
        <pt x="311" y="15" on="0"/>
        <pt x="379" y="15" on="1"/>
        <pt x="448" y="15" on="0"/>
        <pt x="563" y="74" on="0"/>
        <pt x="644" y="170" on="0"/>
        <pt x="689" y="292" on="0"/>
        <pt x="689" y="355" on="1"/>
        <pt x="689" y="421" on="0"/>
        <pt x="642" y="544" on="0"/>
        <pt x="558" y="639" on="0"/>
        <pt x="445" y="695" on="0"/>
        <pt x="379" y="695" on="1"/>
        <pt x="310" y="695" on="0"/>
        <pt x="195" y="636" on="0"/>
        <pt x="113" y="540" on="0"/>
        <pt x="68" y="418" on="0"/>
      </contour>
      <contour>
        <pt x="440" y="851" on="1"/>
        <pt x="418" y="851" on="0"/>
        <pt x="385" y="863" on="0"/>
        <pt x="357" y="877" on="0"/>
        <pt x="330" y="889" on="0"/>
        <pt x="315" y="889" on="1"/>
        <pt x="299" y="889" on="0"/>
        <pt x="279" y="876" on="0"/>
        <pt x="268" y="859" on="0"/>
        <pt x="264" y="843" on="0"/>
        <pt x="264" y="841" on="1"/>
        <pt x="244" y="841" on="1"/>
        <pt x="244" y="843" on="0"/>
        <pt x="248" y="865" on="0"/>
        <pt x="263" y="889" on="0"/>
        <pt x="292" y="908" on="0"/>
        <pt x="317" y="908" on="1"/>
        <pt x="336" y="908" on="0"/>
        <pt x="366" y="896" on="0"/>
        <pt x="394" y="882" on="0"/>
        <pt x="423" y="870" on="0"/>
        <pt x="442" y="870" on="1"/>
        <pt x="463" y="870" on="0"/>
        <pt x="486" y="884" on="0"/>
        <pt x="498" y="901" on="0"/>
        <pt x="501" y="916" on="0"/>
        <pt x="501" y="918" on="1"/>
        <pt x="521" y="918" on="1"/>
        <pt x="521" y="915" on="0"/>
        <pt x="516" y="893" on="0"/>
        <pt x="500" y="869" on="0"/>
        <pt x="467" y="851" on="0"/>
      </contour>
    </TTGlyph>
    <TTGlyph name="P" xMin="99" yMin="0" xMax="588" yMax="710">
      <contour>
        <pt x="99" y="0" on="1"/>
        <pt x="99" y="710" on="1"/>
        <pt x="388" y="710" on="1"/>
        <pt x="431" y="710" on="0"/>
        <pt x="505" y="673" on="0"/>
        <pt x="558" y="612" on="0"/>
        <pt x="588" y="535" on="0"/>
        <pt x="588" y="495" on="1"/>
        <pt x="588" y="453" on="0"/>
        <pt x="560" y="375" on="0"/>
        <pt x="509" y="315" on="0"/>
        <pt x="438" y="279" on="0"/>
        <pt x="395" y="279" on="1"/>
        <pt x="119" y="279" on="1"/>
        <pt x="119" y="0" on="1"/>
      </contour>
      <contour>
        <pt x="119" y="299" on="1"/>
        <pt x="395" y="299" on="1"/>
        <pt x="435" y="299" on="0"/>
        <pt x="500" y="333" on="0"/>
        <pt x="544" y="389" on="0"/>
        <pt x="568" y="459" on="0"/>
        <pt x="568" y="495" on="1"/>
        <pt x="568" y="533" on="0"/>
        <pt x="540" y="603" on="0"/>
        <pt x="491" y="657" on="0"/>
        <pt x="425" y="690" on="0"/>
        <pt x="388" y="690" on="1"/>
        <pt x="119" y="690" on="1"/>
      </contour>
    </TTGlyph>
    <TTGlyph name="P.sc" xMin="95" yMin="0" xMax="497" yMax="540">
      <contour>
        <pt x="95" y="0" on="1"/>
        <pt x="95" y="540" on="1"/>
        <pt x="332" y="540" on="1"/>
        <pt x="368" y="540" on="0"/>
        <pt x="429" y="511" on="0"/>
        <pt x="472" y="465" on="0"/>
        <pt x="497" y="405" on="0"/>
        <pt x="497" y="375" on="1"/>
        <pt x="497" y="343" on="0"/>
        <pt x="474" y="284" on="0"/>
        <pt x="432" y="238" on="0"/>
        <pt x="374" y="210" on="0"/>
        <pt x="338" y="210" on="1"/>
        <pt x="115" y="210" on="1"/>
        <pt x="115" y="0" on="1"/>
      </contour>
      <contour>
        <pt x="115" y="230" on="1"/>
        <pt x="338" y="230" on="1"/>
        <pt x="371" y="230" on="0"/>
        <pt x="422" y="255" on="0"/>
        <pt x="458" y="296" on="0"/>
        <pt x="477" y="348" on="0"/>
        <pt x="477" y="375" on="1"/>
        <pt x="477" y="403" on="0"/>
        <pt x="454" y="455" on="0"/>
        <pt x="415" y="496" on="0"/>
        <pt x="362" y="520" on="0"/>
        <pt x="332" y="520" on="1"/>
        <pt x="115" y="520" on="1"/>
      </contour>
    </TTGlyph>
    <TTGlyph name="Q" xMin="48" yMin="-5" xMax="709" yMax="715">
      <contour>
        <pt x="586" y="76" on="1"/>
        <pt x="544" y="38" on="0"/>
        <pt x="439" y="-5" on="0"/>
        <pt x="379" y="-5" on="1"/>
        <pt x="305" y="-5" on="0"/>
        <pt x="184" y="57" on="0"/>
        <pt x="96" y="157" on="0"/>
        <pt x="48" y="287" on="0"/>
        <pt x="48" y="355" on="1"/>
        <pt x="48" y="426" on="0"/>
        <pt x="99" y="556" on="0"/>
        <pt x="188" y="656" on="0"/>
        <pt x="309" y="715" on="0"/>
        <pt x="379" y="715" on="1"/>
        <pt x="452" y="715" on="0"/>
        <pt x="574" y="652" on="0"/>
        <pt x="661" y="550" on="0"/>
        <pt x="709" y="421" on="0"/>
        <pt x="709" y="355" on="1"/>
        <pt x="709" y="277" on="0"/>
        <pt x="651" y="140" on="0"/>
        <pt x="600" y="89" on="1"/>
        <pt x="672" y="0" on="1"/>
        <pt x="647" y="0" on="1"/>
      </contour>
      <contour>
        <pt x="379" y="15" on="1"/>
        <pt x="437" y="15" on="0"/>
        <pt x="535" y="57" on="0"/>
        <pt x="574" y="92" on="1"/>
        <pt x="499" y="186" on="1"/>
        <pt x="524" y="186" on="1"/>
        <pt x="588" y="105" on="1"/>
        <pt x="636" y="155" on="0"/>
        <pt x="689" y="286" on="0"/>
        <pt x="689" y="355" on="1"/>
        <pt x="689" y="421" on="0"/>
        <pt x="642" y="544" on="0"/>
        <pt x="558" y="639" on="0"/>
        <pt x="445" y="695" on="0"/>
        <pt x="379" y="695" on="1"/>
        <pt x="310" y="695" on="0"/>
        <pt x="195" y="636" on="0"/>
        <pt x="113" y="540" on="0"/>
        <pt x="68" y="418" on="0"/>
        <pt x="68" y="355" on="1"/>
        <pt x="68" y="289" on="0"/>
        <pt x="115" y="166" on="0"/>
        <pt x="197" y="71" on="0"/>
        <pt x="311" y="15" on="0"/>
      </contour>
    </TTGlyph>
    <TTGlyph name="Q.sc" xMin="52" yMin="-4" xMax="594" yMax="543">
      <contour>
        <pt x="493" y="57" on="1"/>
        <pt x="458" y="28" on="0"/>
        <pt x="373" y="-4" on="0"/>
        <pt x="324" y="-4" on="1"/>
        <pt x="264" y="-4" on="0"/>
        <pt x="164" y="43" on="0"/>
        <pt x="92" y="119" on="0"/>
        <pt x="52" y="218" on="0"/>
        <pt x="52" y="270" on="1"/>
        <pt x="52" y="324" on="0"/>
        <pt x="94" y="422" on="0"/>
        <pt x="167" y="498" on="0"/>
        <pt x="266" y="543" on="0"/>
        <pt x="324" y="543" on="1"/>
        <pt x="384" y="543" on="0"/>
        <pt x="484" y="495" on="0"/>
        <pt x="555" y="418" on="0"/>
        <pt x="594" y="320" on="0"/>
        <pt x="594" y="270" on="1"/>
        <pt x="594" y="212" on="0"/>
        <pt x="548" y="107" on="0"/>
        <pt x="507" y="69" on="1"/>
        <pt x="566" y="0" on="1"/>
        <pt x="542" y="0" on="1"/>
      </contour>
      <contour>
        <pt x="324" y="16" on="1"/>
        <pt x="370" y="16" on="0"/>
        <pt x="449" y="46" on="0"/>
        <pt x="480" y="72" on="1"/>
        <pt x="418" y="145" on="1"/>
        <pt x="442" y="145" on="1"/>
        <pt x="494" y="84" on="1"/>
        <pt x="532" y="121" on="0"/>
        <pt x="574" y="219" on="0"/>
        <pt x="574" y="270" on="1"/>
        <pt x="574" y="319" on="0"/>
        <pt x="536" y="411" on="0"/>
        <pt x="469" y="482" on="0"/>
        <pt x="377" y="524" on="0"/>
        <pt x="324" y="524" on="1"/>
        <pt x="268" y="524" on="0"/>
        <pt x="175" y="480" on="0"/>
        <pt x="109" y="408" on="0"/>
        <pt x="72" y="317" on="0"/>
        <pt x="72" y="270" on="1"/>
        <pt x="72" y="220" on="0"/>
        <pt x="110" y="129" on="0"/>
        <pt x="177" y="58" on="0"/>
        <pt x="269" y="16" on="0"/>
      </contour>
    </TTGlyph>
    <TTGlyph name="R" xMin="99" yMin="0" xMax="588" yMax="710">
      <contour>
        <pt x="99" y="0" on="1"/>
        <pt x="99" y="710" on="1"/>
        <pt x="388" y="710" on="1"/>
        <pt x="431" y="710" on="0"/>
        <pt x="505" y="673" on="0"/>
        <pt x="558" y="612" on="0"/>
        <pt x="588" y="535" on="0"/>
        <pt x="588" y="495" on="1"/>
        <pt x="588" y="454" on="0"/>
        <pt x="562" y="378" on="0"/>
        <pt x="514" y="319" on="0"/>
        <pt x="447" y="282" on="0"/>
        <pt x="407" y="279" on="1"/>
        <pt x="587" y="0" on="1"/>
        <pt x="563" y="0" on="1"/>
        <pt x="383" y="279" on="1"/>
        <pt x="119" y="279" on="1"/>
        <pt x="119" y="0" on="1"/>
      </contour>
      <contour>
        <pt x="119" y="299" on="1"/>
        <pt x="395" y="299" on="1"/>
        <pt x="435" y="299" on="0"/>
        <pt x="499" y="333" on="0"/>
        <pt x="544" y="388" on="0"/>
        <pt x="568" y="458" on="0"/>
        <pt x="568" y="495" on="1"/>
        <pt x="568" y="533" on="0"/>
        <pt x="540" y="603" on="0"/>
        <pt x="491" y="657" on="0"/>
        <pt x="425" y="690" on="0"/>
        <pt x="388" y="690" on="1"/>
        <pt x="119" y="690" on="1"/>
      </contour>
    </TTGlyph>
    <TTGlyph name="R.sc" xMin="95" yMin="0" xMax="498" yMax="540">
      <contour>
        <pt x="95" y="0" on="1"/>
        <pt x="95" y="540" on="1"/>
        <pt x="333" y="540" on="1"/>
        <pt x="369" y="540" on="0"/>
        <pt x="429" y="511" on="0"/>
        <pt x="473" y="465" on="0"/>
        <pt x="498" y="405" on="0"/>
        <pt x="498" y="375" on="1"/>
        <pt x="498" y="344" on="0"/>
        <pt x="477" y="288" on="0"/>
        <pt x="438" y="243" on="0"/>
        <pt x="384" y="215" on="0"/>
        <pt x="351" y="212" on="1"/>
        <pt x="498" y="0" on="1"/>
        <pt x="474" y="0" on="1"/>
        <pt x="328" y="210" on="1"/>
        <pt x="115" y="210" on="1"/>
        <pt x="115" y="0" on="1"/>
      </contour>
      <contour>
        <pt x="115" y="230" on="1"/>
        <pt x="338" y="230" on="1"/>
        <pt x="370" y="230" on="0"/>
        <pt x="421" y="255" on="0"/>
        <pt x="457" y="295" on="0"/>
        <pt x="477" y="348" on="0"/>
        <pt x="477" y="375" on="1"/>
        <pt x="477" y="403" on="0"/>
        <pt x="455" y="455" on="0"/>
        <pt x="416" y="496" on="0"/>
        <pt x="363" y="520" on="0"/>
        <pt x="332" y="520" on="1"/>
        <pt x="115" y="520" on="1"/>
      </contour>
    </TTGlyph>
    <TTGlyph name="Racute" xMin="99" yMin="0" xMax="588" yMax="921">
      <contour>
        <pt x="99" y="0" on="1"/>
        <pt x="99" y="710" on="1"/>
        <pt x="388" y="710" on="1"/>
        <pt x="431" y="710" on="0"/>
        <pt x="505" y="673" on="0"/>
        <pt x="558" y="612" on="0"/>
        <pt x="588" y="535" on="0"/>
        <pt x="588" y="495" on="1"/>
        <pt x="588" y="454" on="0"/>
        <pt x="562" y="378" on="0"/>
        <pt x="514" y="319" on="0"/>
        <pt x="447" y="282" on="0"/>
        <pt x="407" y="279" on="1"/>
        <pt x="587" y="0" on="1"/>
        <pt x="563" y="0" on="1"/>
        <pt x="383" y="279" on="1"/>
        <pt x="119" y="279" on="1"/>
        <pt x="119" y="0" on="1"/>
      </contour>
      <contour>
        <pt x="119" y="299" on="1"/>
        <pt x="395" y="299" on="1"/>
        <pt x="435" y="299" on="0"/>
        <pt x="499" y="333" on="0"/>
        <pt x="544" y="388" on="0"/>
        <pt x="568" y="458" on="0"/>
        <pt x="568" y="495" on="1"/>
        <pt x="568" y="533" on="0"/>
        <pt x="540" y="603" on="0"/>
        <pt x="491" y="657" on="0"/>
        <pt x="425" y="690" on="0"/>
        <pt x="388" y="690" on="1"/>
        <pt x="119" y="690" on="1"/>
      </contour>
      <contour>
        <pt x="302" y="836" on="1"/>
        <pt x="286" y="848" on="1"/>
        <pt x="350" y="921" on="1"/>
        <pt x="384" y="921" on="1"/>
      </contour>
    </TTGlyph>
    <TTGlyph name="Rcaron" xMin="99" yMin="0" xMax="588" yMax="921">
      <contour>
        <pt x="99" y="0" on="1"/>
        <pt x="99" y="710" on="1"/>
        <pt x="388" y="710" on="1"/>
        <pt x="431" y="710" on="0"/>
        <pt x="505" y="673" on="0"/>
        <pt x="558" y="612" on="0"/>
        <pt x="588" y="535" on="0"/>
        <pt x="588" y="495" on="1"/>
        <pt x="588" y="454" on="0"/>
        <pt x="562" y="378" on="0"/>
        <pt x="514" y="319" on="0"/>
        <pt x="447" y="282" on="0"/>
        <pt x="407" y="279" on="1"/>
        <pt x="587" y="0" on="1"/>
        <pt x="563" y="0" on="1"/>
        <pt x="383" y="279" on="1"/>
        <pt x="119" y="279" on="1"/>
        <pt x="119" y="0" on="1"/>
      </contour>
      <contour>
        <pt x="119" y="299" on="1"/>
        <pt x="395" y="299" on="1"/>
        <pt x="435" y="299" on="0"/>
        <pt x="499" y="333" on="0"/>
        <pt x="544" y="388" on="0"/>
        <pt x="568" y="458" on="0"/>
        <pt x="568" y="495" on="1"/>
        <pt x="568" y="533" on="0"/>
        <pt x="540" y="603" on="0"/>
        <pt x="491" y="657" on="0"/>
        <pt x="425" y="690" on="0"/>
        <pt x="388" y="690" on="1"/>
        <pt x="119" y="690" on="1"/>
      </contour>
      <contour>
        <pt x="231" y="921" on="1"/>
        <pt x="316" y="858" on="1"/>
        <pt x="401" y="921" on="1"/>
        <pt x="417" y="909" on="1"/>
        <pt x="324" y="835" on="1"/>
        <pt x="308" y="835" on="1"/>
        <pt x="215" y="909" on="1"/>
      </contour>
    </TTGlyph>
    <TTGlyph name="Rcommaaccent" xMin="99" yMin="-167" xMax="588" yMax="710">
      <contour>
        <pt x="99" y="0" on="1"/>
        <pt x="99" y="710" on="1"/>
        <pt x="388" y="710" on="1"/>
        <pt x="431" y="710" on="0"/>
        <pt x="505" y="673" on="0"/>
        <pt x="558" y="612" on="0"/>
        <pt x="588" y="535" on="0"/>
        <pt x="588" y="495" on="1"/>
        <pt x="588" y="454" on="0"/>
        <pt x="562" y="378" on="0"/>
        <pt x="514" y="319" on="0"/>
        <pt x="447" y="282" on="0"/>
        <pt x="407" y="279" on="1"/>
        <pt x="587" y="0" on="1"/>
        <pt x="563" y="0" on="1"/>
        <pt x="383" y="279" on="1"/>
        <pt x="119" y="279" on="1"/>
        <pt x="119" y="0" on="1"/>
      </contour>
      <contour>
        <pt x="119" y="299" on="1"/>
        <pt x="395" y="299" on="1"/>
        <pt x="435" y="299" on="0"/>
        <pt x="499" y="333" on="0"/>
        <pt x="544" y="388" on="0"/>
        <pt x="568" y="458" on="0"/>
        <pt x="568" y="495" on="1"/>
        <pt x="568" y="533" on="0"/>
        <pt x="540" y="603" on="0"/>
        <pt x="491" y="657" on="0"/>
        <pt x="425" y="690" on="0"/>
        <pt x="388" y="690" on="1"/>
        <pt x="119" y="690" on="1"/>
      </contour>
      <contour>
        <pt x="299" y="-167" on="1"/>
        <pt x="309" y="-109" on="1"/>
        <pt x="300" y="-109" on="1"/>
        <pt x="300" y="-50" on="1"/>
        <pt x="326" y="-50" on="1"/>
        <pt x="326" y="-109" on="1"/>
        <pt x="313" y="-167" on="1"/>
      </contour>
    </TTGlyph>
    <TTGlyph name="Rdblgrave" xMin="99" yMin="0" xMax="588" yMax="918">
      <contour>
        <pt x="99" y="0" on="1"/>
        <pt x="99" y="710" on="1"/>
        <pt x="388" y="710" on="1"/>
        <pt x="431" y="710" on="0"/>
        <pt x="505" y="673" on="0"/>
        <pt x="558" y="612" on="0"/>
        <pt x="588" y="535" on="0"/>
        <pt x="588" y="495" on="1"/>
        <pt x="588" y="454" on="0"/>
        <pt x="562" y="378" on="0"/>
        <pt x="514" y="319" on="0"/>
        <pt x="447" y="282" on="0"/>
        <pt x="407" y="279" on="1"/>
        <pt x="587" y="0" on="1"/>
        <pt x="563" y="0" on="1"/>
        <pt x="383" y="279" on="1"/>
        <pt x="119" y="279" on="1"/>
        <pt x="119" y="0" on="1"/>
      </contour>
      <contour>
        <pt x="119" y="299" on="1"/>
        <pt x="395" y="299" on="1"/>
        <pt x="435" y="299" on="0"/>
        <pt x="499" y="333" on="0"/>
        <pt x="544" y="388" on="0"/>
        <pt x="568" y="458" on="0"/>
        <pt x="568" y="495" on="1"/>
        <pt x="568" y="533" on="0"/>
        <pt x="540" y="603" on="0"/>
        <pt x="491" y="657" on="0"/>
        <pt x="425" y="690" on="0"/>
        <pt x="388" y="690" on="1"/>
        <pt x="119" y="690" on="1"/>
      </contour>
      <contour>
        <pt x="298" y="918" on="1"/>
        <pt x="332" y="918" on="1"/>
        <pt x="396" y="845" on="1"/>
        <pt x="380" y="833" on="1"/>
      </contour>
      <contour>
        <pt x="198" y="918" on="1"/>
        <pt x="232" y="918" on="1"/>
        <pt x="296" y="845" on="1"/>
        <pt x="280" y="833" on="1"/>
      </contour>
    </TTGlyph>
    <TTGlyph name="Rdotbelow" xMin="99" yMin="-127" xMax="588" yMax="710">
      <contour>
        <pt x="99" y="0" on="1"/>
        <pt x="99" y="710" on="1"/>
        <pt x="388" y="710" on="1"/>
        <pt x="431" y="710" on="0"/>
        <pt x="505" y="673" on="0"/>
        <pt x="558" y="612" on="0"/>
        <pt x="588" y="535" on="0"/>
        <pt x="588" y="495" on="1"/>
        <pt x="588" y="454" on="0"/>
        <pt x="562" y="378" on="0"/>
        <pt x="514" y="319" on="0"/>
        <pt x="447" y="282" on="0"/>
        <pt x="407" y="279" on="1"/>
        <pt x="587" y="0" on="1"/>
        <pt x="563" y="0" on="1"/>
        <pt x="383" y="279" on="1"/>
        <pt x="119" y="279" on="1"/>
        <pt x="119" y="0" on="1"/>
      </contour>
      <contour>
        <pt x="119" y="299" on="1"/>
        <pt x="395" y="299" on="1"/>
        <pt x="435" y="299" on="0"/>
        <pt x="499" y="333" on="0"/>
        <pt x="544" y="388" on="0"/>
        <pt x="568" y="458" on="0"/>
        <pt x="568" y="495" on="1"/>
        <pt x="568" y="533" on="0"/>
        <pt x="540" y="603" on="0"/>
        <pt x="491" y="657" on="0"/>
        <pt x="425" y="690" on="0"/>
        <pt x="388" y="690" on="1"/>
        <pt x="119" y="690" on="1"/>
      </contour>
      <contour>
        <pt x="314" y="-127" on="1"/>
        <pt x="314" y="-50" on="1"/>
        <pt x="334" y="-50" on="1"/>
        <pt x="334" y="-127" on="1"/>
      </contour>
    </TTGlyph>
    <TTGlyph name="Rinvertedbreve" xMin="99" yMin="0" xMax="588" yMax="918">
      <contour>
        <pt x="99" y="0" on="1"/>
        <pt x="99" y="710" on="1"/>
        <pt x="388" y="710" on="1"/>
        <pt x="431" y="710" on="0"/>
        <pt x="505" y="673" on="0"/>
        <pt x="558" y="612" on="0"/>
        <pt x="588" y="535" on="0"/>
        <pt x="588" y="495" on="1"/>
        <pt x="588" y="454" on="0"/>
        <pt x="562" y="378" on="0"/>
        <pt x="514" y="319" on="0"/>
        <pt x="447" y="282" on="0"/>
        <pt x="407" y="279" on="1"/>
        <pt x="587" y="0" on="1"/>
        <pt x="563" y="0" on="1"/>
        <pt x="383" y="279" on="1"/>
        <pt x="119" y="279" on="1"/>
        <pt x="119" y="0" on="1"/>
      </contour>
      <contour>
        <pt x="119" y="299" on="1"/>
        <pt x="395" y="299" on="1"/>
        <pt x="435" y="299" on="0"/>
        <pt x="499" y="333" on="0"/>
        <pt x="544" y="388" on="0"/>
        <pt x="568" y="458" on="0"/>
        <pt x="568" y="495" on="1"/>
        <pt x="568" y="533" on="0"/>
        <pt x="540" y="603" on="0"/>
        <pt x="491" y="657" on="0"/>
        <pt x="425" y="690" on="0"/>
        <pt x="388" y="690" on="1"/>
        <pt x="119" y="690" on="1"/>
      </contour>
      <contour>
        <pt x="320" y="901" on="1"/>
        <pt x="299" y="901" on="0"/>
        <pt x="265" y="864" on="0"/>
        <pt x="265" y="841" on="1"/>
        <pt x="246" y="841" on="1"/>
        <pt x="246" y="856" on="0"/>
        <pt x="258" y="884" on="0"/>
        <pt x="279" y="905" on="0"/>
        <pt x="305" y="918" on="0"/>
        <pt x="320" y="918" on="1"/>
        <pt x="335" y="918" on="0"/>
        <pt x="361" y="905" on="0"/>
        <pt x="382" y="884" on="0"/>
        <pt x="394" y="856" on="0"/>
        <pt x="394" y="841" on="1"/>
        <pt x="376" y="841" on="1"/>
        <pt x="373" y="866" on="0"/>
        <pt x="340" y="901" on="0"/>
      </contour>
    </TTGlyph>
    <TTGlyph name="S" xMin="39" yMin="-5" xMax="565" yMax="715">
      <contour>
        <pt x="509" y="616" on="1"/>
        <pt x="467" y="662" on="0"/>
        <pt x="376" y="696" on="0"/>
        <pt x="313" y="696" on="1"/>
        <pt x="252" y="696" on="0"/>
        <pt x="165" y="672" on="0"/>
        <pt x="109" y="627" on="0"/>
        <pt x="83" y="565" on="0"/>
        <pt x="83" y="526" on="1"/>
        <pt x="83" y="488" on="0"/>
        <pt x="109" y="437" on="0"/>
        <pt x="163" y="402" on="0"/>
        <pt x="248" y="377" on="0"/>
        <pt x="307" y="365" on="1"/>
        <pt x="366" y="353" on="0"/>
        <pt x="462" y="325" on="0"/>
        <pt x="529" y="283" on="0"/>
        <pt x="565" y="221" on="0"/>
        <pt x="565" y="174" on="1"/>
        <pt x="565" y="87" on="0"/>
        <pt x="432" y="-5" on="0"/>
        <pt x="315" y="-5" on="1"/>
        <pt x="229" y="-5" on="0"/>
        <pt x="96" y="48" on="0"/>
        <pt x="39" y="105" on="1"/>
        <pt x="54" y="118" on="1"/>
        <pt x="108" y="62" on="0"/>
        <pt x="235" y="12" on="0"/>
        <pt x="316" y="12" on="1"/>
        <pt x="422" y="12" on="0"/>
        <pt x="545" y="91" on="0"/>
        <pt x="545" y="171" on="1"/>
        <pt x="545" y="211" on="0"/>
        <pt x="517" y="266" on="0"/>
        <pt x="459" y="306" on="0"/>
        <pt x="369" y="334" on="0"/>
        <pt x="308" y="346" on="1"/>
        <pt x="249" y="357" on="0"/>
        <pt x="158" y="382" on="0"/>
        <pt x="95" y="421" on="0"/>
        <pt x="63" y="480" on="0"/>
        <pt x="63" y="524" on="1"/>
        <pt x="63" y="570" on="0"/>
        <pt x="98" y="641" on="0"/>
        <pt x="163" y="690" on="0"/>
        <pt x="254" y="715" on="0"/>
        <pt x="311" y="715" on="1"/>
        <pt x="379" y="715" on="0"/>
        <pt x="480" y="676" on="0"/>
        <pt x="522" y="630" on="1"/>
      </contour>
    </TTGlyph>
    <TTGlyph name="S.sc" xMin="47" yMin="-4" xMax="479" yMax="543">
      <contour>
        <pt x="433" y="464" on="1"/>
        <pt x="399" y="499" on="0"/>
        <pt x="324" y="525" on="0"/>
        <pt x="272" y="525" on="1"/>
        <pt x="174" y="525" on="0"/>
        <pt x="87" y="457" on="0"/>
        <pt x="87" y="399" on="1"/>
        <pt x="87" y="371" on="0"/>
        <pt x="108" y="333" on="0"/>
        <pt x="152" y="307" on="0"/>
        <pt x="221" y="288" on="0"/>
        <pt x="269" y="279" on="1"/>
        <pt x="317" y="270" on="0"/>
        <pt x="395" y="249" on="0"/>
        <pt x="450" y="217" on="0"/>
        <pt x="479" y="169" on="0"/>
        <pt x="479" y="133" on="1"/>
        <pt x="479" y="66" on="0"/>
        <pt x="370" y="-4" on="0"/>
        <pt x="274" y="-4" on="1"/>
        <pt x="204" y="-4" on="0"/>
        <pt x="95" y="37" on="0"/>
        <pt x="47" y="79" on="1"/>
        <pt x="61" y="93" on="1"/>
        <pt x="104" y="52" on="0"/>
        <pt x="208" y="13" on="0"/>
        <pt x="275" y="13" on="1"/>
        <pt x="358" y="13" on="0"/>
        <pt x="459" y="71" on="0"/>
        <pt x="459" y="131" on="1"/>
        <pt x="459" y="160" on="0"/>
        <pt x="436" y="201" on="0"/>
        <pt x="389" y="231" on="0"/>
        <pt x="316" y="252" on="0"/>
        <pt x="266" y="261" on="1"/>
        <pt x="218" y="270" on="0"/>
        <pt x="143" y="289" on="0"/>
        <pt x="93" y="320" on="0"/>
        <pt x="67" y="365" on="0"/>
        <pt x="67" y="399" on="1"/>
        <pt x="67" y="469" on="0"/>
        <pt x="178" y="543" on="0"/>
        <pt x="271" y="543" on="1"/>
        <pt x="327" y="543" on="0"/>
        <pt x="410" y="514" on="0"/>
        <pt x="445" y="479" on="1"/>
      </contour>
    </TTGlyph>
    <TTGlyph name="Sacute" xMin="39" yMin="-5" xMax="565" yMax="940">
      <contour>
        <pt x="509" y="616" on="1"/>
        <pt x="467" y="662" on="0"/>
        <pt x="376" y="696" on="0"/>
        <pt x="313" y="696" on="1"/>
        <pt x="252" y="696" on="0"/>
        <pt x="165" y="672" on="0"/>
        <pt x="109" y="627" on="0"/>
        <pt x="83" y="565" on="0"/>
        <pt x="83" y="526" on="1"/>
        <pt x="83" y="488" on="0"/>
        <pt x="109" y="437" on="0"/>
        <pt x="163" y="402" on="0"/>
        <pt x="248" y="377" on="0"/>
        <pt x="307" y="365" on="1"/>
        <pt x="366" y="353" on="0"/>
        <pt x="462" y="325" on="0"/>
        <pt x="529" y="283" on="0"/>
        <pt x="565" y="221" on="0"/>
        <pt x="565" y="174" on="1"/>
        <pt x="565" y="87" on="0"/>
        <pt x="432" y="-5" on="0"/>
        <pt x="315" y="-5" on="1"/>
        <pt x="229" y="-5" on="0"/>
        <pt x="96" y="48" on="0"/>
        <pt x="39" y="105" on="1"/>
        <pt x="54" y="118" on="1"/>
        <pt x="108" y="62" on="0"/>
        <pt x="235" y="12" on="0"/>
        <pt x="316" y="12" on="1"/>
        <pt x="422" y="12" on="0"/>
        <pt x="545" y="91" on="0"/>
        <pt x="545" y="171" on="1"/>
        <pt x="545" y="211" on="0"/>
        <pt x="517" y="266" on="0"/>
        <pt x="459" y="306" on="0"/>
        <pt x="369" y="334" on="0"/>
        <pt x="308" y="346" on="1"/>
        <pt x="249" y="357" on="0"/>
        <pt x="158" y="382" on="0"/>
        <pt x="95" y="421" on="0"/>
        <pt x="63" y="480" on="0"/>
        <pt x="63" y="524" on="1"/>
        <pt x="63" y="570" on="0"/>
        <pt x="98" y="641" on="0"/>
        <pt x="163" y="690" on="0"/>
        <pt x="254" y="715" on="0"/>
        <pt x="311" y="715" on="1"/>
        <pt x="379" y="715" on="0"/>
        <pt x="480" y="676" on="0"/>
        <pt x="522" y="630" on="1"/>
      </contour>
      <contour>
        <pt x="294" y="855" on="1"/>
        <pt x="278" y="867" on="1"/>
        <pt x="342" y="940" on="1"/>
        <pt x="376" y="940" on="1"/>
      </contour>
    </TTGlyph>
    <TTGlyph name="Scaron" xMin="39" yMin="-5" xMax="565" yMax="940">
      <contour>
        <pt x="509" y="616" on="1"/>
        <pt x="467" y="662" on="0"/>
        <pt x="376" y="696" on="0"/>
        <pt x="313" y="696" on="1"/>
        <pt x="252" y="696" on="0"/>
        <pt x="165" y="672" on="0"/>
        <pt x="109" y="627" on="0"/>
        <pt x="83" y="565" on="0"/>
        <pt x="83" y="526" on="1"/>
        <pt x="83" y="488" on="0"/>
        <pt x="109" y="437" on="0"/>
        <pt x="163" y="402" on="0"/>
        <pt x="248" y="377" on="0"/>
        <pt x="307" y="365" on="1"/>
        <pt x="366" y="353" on="0"/>
        <pt x="462" y="325" on="0"/>
        <pt x="529" y="283" on="0"/>
        <pt x="565" y="221" on="0"/>
        <pt x="565" y="174" on="1"/>
        <pt x="565" y="87" on="0"/>
        <pt x="432" y="-5" on="0"/>
        <pt x="315" y="-5" on="1"/>
        <pt x="229" y="-5" on="0"/>
        <pt x="96" y="48" on="0"/>
        <pt x="39" y="105" on="1"/>
        <pt x="54" y="118" on="1"/>
        <pt x="108" y="62" on="0"/>
        <pt x="235" y="12" on="0"/>
        <pt x="316" y="12" on="1"/>
        <pt x="422" y="12" on="0"/>
        <pt x="545" y="91" on="0"/>
        <pt x="545" y="171" on="1"/>
        <pt x="545" y="211" on="0"/>
        <pt x="517" y="266" on="0"/>
        <pt x="459" y="306" on="0"/>
        <pt x="369" y="334" on="0"/>
        <pt x="308" y="346" on="1"/>
        <pt x="249" y="357" on="0"/>
        <pt x="158" y="382" on="0"/>
        <pt x="95" y="421" on="0"/>
        <pt x="63" y="480" on="0"/>
        <pt x="63" y="524" on="1"/>
        <pt x="63" y="570" on="0"/>
        <pt x="98" y="641" on="0"/>
        <pt x="163" y="690" on="0"/>
        <pt x="254" y="715" on="0"/>
        <pt x="311" y="715" on="1"/>
        <pt x="379" y="715" on="0"/>
        <pt x="480" y="676" on="0"/>
        <pt x="522" y="630" on="1"/>
      </contour>
      <contour>
        <pt x="223" y="940" on="1"/>
        <pt x="308" y="877" on="1"/>
        <pt x="393" y="940" on="1"/>
        <pt x="409" y="928" on="1"/>
        <pt x="316" y="854" on="1"/>
        <pt x="300" y="854" on="1"/>
        <pt x="207" y="928" on="1"/>
      </contour>
    </TTGlyph>
    <TTGlyph name="Schwa" xMin="33" yMin="-10" xMax="691" yMax="715">
      <contour>
        <pt x="366" y="-10" on="1"/>
        <pt x="295" y="-10" on="0"/>
        <pt x="174" y="47" on="0"/>
        <pt x="84" y="145" on="0"/>
        <pt x="33" y="277" on="0"/>
        <pt x="33" y="352" on="1"/>
        <pt x="33" y="362" on="1"/>
        <pt x="669" y="362" on="1"/>
        <pt x="664" y="433" on="0"/>
        <pt x="612" y="555" on="0"/>
        <pt x="528" y="644" on="0"/>
        <pt x="418" y="694" on="0"/>
        <pt x="357" y="694" on="1"/>
        <pt x="317" y="694" on="0"/>
        <pt x="240" y="672" on="0"/>
        <pt x="172" y="631" on="0"/>
        <pt x="120" y="574" on="0"/>
        <pt x="106" y="539" on="1"/>
        <pt x="86" y="548" on="1"/>
        <pt x="100" y="584" on="0"/>
        <pt x="155" y="645" on="0"/>
        <pt x="228" y="690" on="0"/>
        <pt x="314" y="715" on="0"/>
        <pt x="359" y="715" on="1"/>
        <pt x="427" y="715" on="0"/>
        <pt x="548" y="656" on="0"/>
        <pt x="638" y="556" on="0"/>
        <pt x="691" y="422" on="0"/>
        <pt x="691" y="346" on="1"/>
        <pt x="691" y="272" on="0"/>
        <pt x="640" y="142" on="0"/>
        <pt x="552" y="46" on="0"/>
        <pt x="433" y="-10" on="0"/>
      </contour>
      <contour>
        <pt x="364" y="12" on="1"/>
        <pt x="426" y="12" on="0"/>
        <pt x="535" y="62" on="0"/>
        <pt x="616" y="149" on="0"/>
        <pt x="666" y="269" on="0"/>
        <pt x="669" y="340" on="1"/>
        <pt x="56" y="340" on="1"/>
        <pt x="61" y="268" on="0"/>
        <pt x="111" y="148" on="0"/>
        <pt x="193" y="61" on="0"/>
        <pt x="301" y="12" on="0"/>
      </contour>
    </TTGlyph>
    <TTGlyph name="Scircumflex" xMin="39" yMin="-5" xMax="565" yMax="940">
      <contour>
        <pt x="509" y="616" on="1"/>
        <pt x="467" y="662" on="0"/>
        <pt x="376" y="696" on="0"/>
        <pt x="313" y="696" on="1"/>
        <pt x="252" y="696" on="0"/>
        <pt x="165" y="672" on="0"/>
        <pt x="109" y="627" on="0"/>
        <pt x="83" y="565" on="0"/>
        <pt x="83" y="526" on="1"/>
        <pt x="83" y="488" on="0"/>
        <pt x="109" y="437" on="0"/>
        <pt x="163" y="402" on="0"/>
        <pt x="248" y="377" on="0"/>
        <pt x="307" y="365" on="1"/>
        <pt x="366" y="353" on="0"/>
        <pt x="462" y="325" on="0"/>
        <pt x="529" y="283" on="0"/>
        <pt x="565" y="221" on="0"/>
        <pt x="565" y="174" on="1"/>
        <pt x="565" y="87" on="0"/>
        <pt x="432" y="-5" on="0"/>
        <pt x="315" y="-5" on="1"/>
        <pt x="229" y="-5" on="0"/>
        <pt x="96" y="48" on="0"/>
        <pt x="39" y="105" on="1"/>
        <pt x="54" y="118" on="1"/>
        <pt x="108" y="62" on="0"/>
        <pt x="235" y="12" on="0"/>
        <pt x="316" y="12" on="1"/>
        <pt x="422" y="12" on="0"/>
        <pt x="545" y="91" on="0"/>
        <pt x="545" y="171" on="1"/>
        <pt x="545" y="211" on="0"/>
        <pt x="517" y="266" on="0"/>
        <pt x="459" y="306" on="0"/>
        <pt x="369" y="334" on="0"/>
        <pt x="308" y="346" on="1"/>
        <pt x="249" y="357" on="0"/>
        <pt x="158" y="382" on="0"/>
        <pt x="95" y="421" on="0"/>
        <pt x="63" y="480" on="0"/>
        <pt x="63" y="524" on="1"/>
        <pt x="63" y="570" on="0"/>
        <pt x="98" y="641" on="0"/>
        <pt x="163" y="690" on="0"/>
        <pt x="254" y="715" on="0"/>
        <pt x="311" y="715" on="1"/>
        <pt x="379" y="715" on="0"/>
        <pt x="480" y="676" on="0"/>
        <pt x="522" y="630" on="1"/>
      </contour>
      <contour>
        <pt x="207" y="866" on="1"/>
        <pt x="300" y="940" on="1"/>
        <pt x="316" y="940" on="1"/>
        <pt x="409" y="866" on="1"/>
        <pt x="393" y="854" on="1"/>
        <pt x="308" y="917" on="1"/>
        <pt x="223" y="854" on="1"/>
      </contour>
    </TTGlyph>
    <TTGlyph name="Sdotbelow" xMin="39" yMin="-127" xMax="565" yMax="715">
      <contour>
        <pt x="509" y="616" on="1"/>
        <pt x="467" y="662" on="0"/>
        <pt x="376" y="696" on="0"/>
        <pt x="313" y="696" on="1"/>
        <pt x="252" y="696" on="0"/>
        <pt x="165" y="672" on="0"/>
        <pt x="109" y="627" on="0"/>
        <pt x="83" y="565" on="0"/>
        <pt x="83" y="526" on="1"/>
        <pt x="83" y="488" on="0"/>
        <pt x="109" y="437" on="0"/>
        <pt x="163" y="402" on="0"/>
        <pt x="248" y="377" on="0"/>
        <pt x="307" y="365" on="1"/>
        <pt x="366" y="353" on="0"/>
        <pt x="462" y="325" on="0"/>
        <pt x="529" y="283" on="0"/>
        <pt x="565" y="221" on="0"/>
        <pt x="565" y="174" on="1"/>
        <pt x="565" y="87" on="0"/>
        <pt x="432" y="-5" on="0"/>
        <pt x="315" y="-5" on="1"/>
        <pt x="229" y="-5" on="0"/>
        <pt x="96" y="48" on="0"/>
        <pt x="39" y="105" on="1"/>
        <pt x="54" y="118" on="1"/>
        <pt x="108" y="62" on="0"/>
        <pt x="235" y="12" on="0"/>
        <pt x="316" y="12" on="1"/>
        <pt x="422" y="12" on="0"/>
        <pt x="545" y="91" on="0"/>
        <pt x="545" y="171" on="1"/>
        <pt x="545" y="211" on="0"/>
        <pt x="517" y="266" on="0"/>
        <pt x="459" y="306" on="0"/>
        <pt x="369" y="334" on="0"/>
        <pt x="308" y="346" on="1"/>
        <pt x="249" y="357" on="0"/>
        <pt x="158" y="382" on="0"/>
        <pt x="95" y="421" on="0"/>
        <pt x="63" y="480" on="0"/>
        <pt x="63" y="524" on="1"/>
        <pt x="63" y="570" on="0"/>
        <pt x="98" y="641" on="0"/>
        <pt x="163" y="690" on="0"/>
        <pt x="254" y="715" on="0"/>
        <pt x="311" y="715" on="1"/>
        <pt x="379" y="715" on="0"/>
        <pt x="480" y="676" on="0"/>
        <pt x="522" y="630" on="1"/>
      </contour>
      <contour>
        <pt x="304" y="-127" on="1"/>
        <pt x="304" y="-50" on="1"/>
        <pt x="324" y="-50" on="1"/>
        <pt x="324" y="-127" on="1"/>
      </contour>
    </TTGlyph>
    <TTGlyph name="T" xMin="18" yMin="0" xMax="582" yMax="710">
      <contour>
        <pt x="582" y="690" on="1"/>
        <pt x="310" y="690" on="1"/>
        <pt x="310" y="0" on="1"/>
        <pt x="290" y="0" on="1"/>
        <pt x="290" y="690" on="1"/>
        <pt x="18" y="690" on="1"/>
        <pt x="18" y="710" on="1"/>
        <pt x="582" y="710" on="1"/>
      </contour>
    </TTGlyph>
    <TTGlyph name="T.sc" xMin="26" yMin="0" xMax="489" yMax="540">
      <contour>
        <pt x="489" y="520" on="1"/>
        <pt x="268" y="520" on="1"/>
        <pt x="268" y="0" on="1"/>
        <pt x="248" y="0" on="1"/>
        <pt x="248" y="520" on="1"/>
        <pt x="26" y="520" on="1"/>
        <pt x="26" y="540" on="1"/>
        <pt x="489" y="540" on="1"/>
      </contour>
    </TTGlyph>
    <TTGlyph name="Tbar" xMin="38" yMin="0" xMax="602" yMax="710">
      <contour>
        <pt x="602" y="690" on="1"/>
        <pt x="330" y="690" on="1"/>
        <pt x="330" y="424" on="1"/>
        <pt x="572" y="424" on="1"/>
        <pt x="572" y="404" on="1"/>
        <pt x="330" y="404" on="1"/>
        <pt x="330" y="0" on="1"/>
        <pt x="310" y="0" on="1"/>
        <pt x="310" y="404" on="1"/>
        <pt x="68" y="404" on="1"/>
        <pt x="68" y="424" on="1"/>
        <pt x="310" y="424" on="1"/>
        <pt x="310" y="690" on="1"/>
        <pt x="38" y="690" on="1"/>
        <pt x="38" y="710" on="1"/>
        <pt x="602" y="710" on="1"/>
      </contour>
    </TTGlyph>
    <TTGlyph name="Tcaron" xMin="18" yMin="0" xMax="582" yMax="918">
      <contour>
        <pt x="582" y="690" on="1"/>
        <pt x="310" y="690" on="1"/>
        <pt x="310" y="0" on="1"/>
        <pt x="290" y="0" on="1"/>
        <pt x="290" y="690" on="1"/>
        <pt x="18" y="690" on="1"/>
        <pt x="18" y="710" on="1"/>
        <pt x="582" y="710" on="1"/>
      </contour>
      <contour>
        <pt x="215" y="918" on="1"/>
        <pt x="300" y="855" on="1"/>
        <pt x="385" y="918" on="1"/>
        <pt x="401" y="906" on="1"/>
        <pt x="308" y="832" on="1"/>
        <pt x="292" y="832" on="1"/>
        <pt x="199" y="906" on="1"/>
      </contour>
    </TTGlyph>
    <TTGlyph name="Tdotbelow" xMin="18" yMin="-127" xMax="582" yMax="710">
      <contour>
        <pt x="582" y="690" on="1"/>
        <pt x="310" y="690" on="1"/>
        <pt x="310" y="0" on="1"/>
        <pt x="290" y="0" on="1"/>
        <pt x="290" y="690" on="1"/>
        <pt x="18" y="690" on="1"/>
        <pt x="18" y="710" on="1"/>
        <pt x="582" y="710" on="1"/>
      </contour>
      <contour>
        <pt x="290" y="-127" on="1"/>
        <pt x="290" y="-50" on="1"/>
        <pt x="310" y="-50" on="1"/>
        <pt x="310" y="-127" on="1"/>
      </contour>
    </TTGlyph>
    <TTGlyph name="Thorn" xMin="99" yMin="0" xMax="568" yMax="710">
      <contour>
        <pt x="368" y="560" on="1"/>
        <pt x="411" y="560" on="0"/>
        <pt x="485" y="523" on="0"/>
        <pt x="538" y="462" on="0"/>
        <pt x="568" y="385" on="0"/>
        <pt x="568" y="345" on="1"/>
        <pt x="568" y="303" on="0"/>
        <pt x="540" y="225" on="0"/>
        <pt x="489" y="165" on="0"/>
        <pt x="418" y="129" on="0"/>
        <pt x="375" y="129" on="1"/>
        <pt x="119" y="129" on="1"/>
        <pt x="119" y="0" on="1"/>
        <pt x="99" y="0" on="1"/>
        <pt x="99" y="710" on="1"/>
        <pt x="119" y="710" on="1"/>
        <pt x="119" y="560" on="1"/>
      </contour>
      <contour>
        <pt x="375" y="149" on="1"/>
        <pt x="415" y="149" on="0"/>
        <pt x="480" y="183" on="0"/>
        <pt x="524" y="239" on="0"/>
        <pt x="548" y="309" on="0"/>
        <pt x="548" y="345" on="1"/>
        <pt x="548" y="383" on="0"/>
        <pt x="520" y="453" on="0"/>
        <pt x="471" y="507" on="0"/>
        <pt x="405" y="540" on="0"/>
        <pt x="368" y="540" on="1"/>
        <pt x="119" y="540" on="1"/>
        <pt x="119" y="149" on="1"/>
      </contour>
    </TTGlyph>
    <TTGlyph name="U" xMin="88" yMin="-5" xMax="669" yMax="710">
      <contour>
        <pt x="378" y="15" on="1"/>
        <pt x="458" y="15" on="0"/>
        <pt x="563" y="75" on="0"/>
        <pt x="624" y="171" on="0"/>
        <pt x="649" y="293" on="0"/>
        <pt x="649" y="355" on="1"/>
        <pt x="649" y="710" on="1"/>
        <pt x="669" y="710" on="1"/>
        <pt x="669" y="355" on="1"/>
        <pt x="669" y="284" on="0"/>
        <pt x="640" y="154" on="0"/>
        <pt x="572" y="55" on="0"/>
        <pt x="461" y="-5" on="0"/>
        <pt x="379" y="-5" on="1"/>
        <pt x="295" y="-5" on="0"/>
        <pt x="183" y="57" on="0"/>
        <pt x="116" y="159" on="0"/>
        <pt x="88" y="288" on="0"/>
        <pt x="88" y="355" on="1"/>
        <pt x="88" y="710" on="1"/>
        <pt x="108" y="710" on="1"/>
        <pt x="108" y="355" on="1"/>
        <pt x="108" y="291" on="0"/>
        <pt x="133" y="169" on="0"/>
        <pt x="195" y="73" on="0"/>
        <pt x="299" y="15" on="0"/>
      </contour>
    </TTGlyph>
    <TTGlyph name="U.sc" xMin="85" yMin="-4" xMax="563" yMax="540">
      <contour>
        <pt x="323" y="16" on="1"/>
        <pt x="388" y="16" on="0"/>
        <pt x="473" y="60" on="0"/>
        <pt x="523" y="132" on="0"/>
        <pt x="543" y="223" on="0"/>
        <pt x="543" y="270" on="1"/>
        <pt x="543" y="540" on="1"/>
        <pt x="563" y="540" on="1"/>
        <pt x="563" y="270" on="1"/>
        <pt x="563" y="216" on="0"/>
        <pt x="539" y="117" on="0"/>
        <pt x="483" y="41" on="0"/>
        <pt x="391" y="-4" on="0"/>
        <pt x="324" y="-4" on="1"/>
        <pt x="255" y="-4" on="0"/>
        <pt x="163" y="43" on="0"/>
        <pt x="108" y="121" on="0"/>
        <pt x="85" y="219" on="0"/>
        <pt x="85" y="270" on="1"/>
        <pt x="85" y="540" on="1"/>
        <pt x="105" y="540" on="1"/>
        <pt x="105" y="270" on="1"/>
        <pt x="105" y="222" on="0"/>
        <pt x="126" y="131" on="0"/>
        <pt x="176" y="59" on="0"/>
        <pt x="260" y="16" on="0"/>
      </contour>
    </TTGlyph>
    <TTGlyph name="Uacute" xMin="88" yMin="-5" xMax="669" yMax="918">
      <contour>
        <pt x="378" y="15" on="1"/>
        <pt x="458" y="15" on="0"/>
        <pt x="563" y="75" on="0"/>
        <pt x="624" y="171" on="0"/>
        <pt x="649" y="293" on="0"/>
        <pt x="649" y="355" on="1"/>
        <pt x="649" y="710" on="1"/>
        <pt x="669" y="710" on="1"/>
        <pt x="669" y="355" on="1"/>
        <pt x="669" y="284" on="0"/>
        <pt x="640" y="154" on="0"/>
        <pt x="572" y="55" on="0"/>
        <pt x="461" y="-5" on="0"/>
        <pt x="379" y="-5" on="1"/>
        <pt x="295" y="-5" on="0"/>
        <pt x="183" y="57" on="0"/>
        <pt x="116" y="159" on="0"/>
        <pt x="88" y="288" on="0"/>
        <pt x="88" y="355" on="1"/>
        <pt x="88" y="710" on="1"/>
        <pt x="108" y="710" on="1"/>
        <pt x="108" y="355" on="1"/>
        <pt x="108" y="291" on="0"/>
        <pt x="133" y="169" on="0"/>
        <pt x="195" y="73" on="0"/>
        <pt x="299" y="15" on="0"/>
      </contour>
      <contour>
        <pt x="365" y="833" on="1"/>
        <pt x="349" y="845" on="1"/>
        <pt x="413" y="918" on="1"/>
        <pt x="447" y="918" on="1"/>
      </contour>
    </TTGlyph>
    <TTGlyph name="Ubreve" xMin="88" yMin="-5" xMax="669" yMax="918">
      <contour>
        <pt x="378" y="15" on="1"/>
        <pt x="458" y="15" on="0"/>
        <pt x="563" y="75" on="0"/>
        <pt x="624" y="171" on="0"/>
        <pt x="649" y="293" on="0"/>
        <pt x="649" y="355" on="1"/>
        <pt x="649" y="710" on="1"/>
        <pt x="669" y="710" on="1"/>
        <pt x="669" y="355" on="1"/>
        <pt x="669" y="284" on="0"/>
        <pt x="640" y="154" on="0"/>
        <pt x="572" y="55" on="0"/>
        <pt x="461" y="-5" on="0"/>
        <pt x="379" y="-5" on="1"/>
        <pt x="295" y="-5" on="0"/>
        <pt x="183" y="57" on="0"/>
        <pt x="116" y="159" on="0"/>
        <pt x="88" y="288" on="0"/>
        <pt x="88" y="355" on="1"/>
        <pt x="88" y="710" on="1"/>
        <pt x="108" y="710" on="1"/>
        <pt x="108" y="355" on="1"/>
        <pt x="108" y="291" on="0"/>
        <pt x="133" y="169" on="0"/>
        <pt x="195" y="73" on="0"/>
        <pt x="299" y="15" on="0"/>
      </contour>
      <contour>
        <pt x="379" y="858" on="1"/>
        <pt x="399" y="858" on="0"/>
        <pt x="432" y="893" on="0"/>
        <pt x="435" y="918" on="1"/>
        <pt x="453" y="918" on="1"/>
        <pt x="453" y="903" on="0"/>
        <pt x="441" y="875" on="0"/>
        <pt x="420" y="854" on="0"/>
        <pt x="394" y="841" on="0"/>
        <pt x="379" y="841" on="1"/>
        <pt x="364" y="841" on="0"/>
        <pt x="338" y="854" on="0"/>
        <pt x="317" y="875" on="0"/>
        <pt x="305" y="903" on="0"/>
        <pt x="305" y="918" on="1"/>
        <pt x="324" y="918" on="1"/>
        <pt x="324" y="895" on="0"/>
        <pt x="358" y="858" on="0"/>
      </contour>
    </TTGlyph>
    <TTGlyph name="Ucircumflex" xMin="88" yMin="-5" xMax="669" yMax="918">
      <contour>
        <pt x="378" y="15" on="1"/>
        <pt x="458" y="15" on="0"/>
        <pt x="563" y="75" on="0"/>
        <pt x="624" y="171" on="0"/>
        <pt x="649" y="293" on="0"/>
        <pt x="649" y="355" on="1"/>
        <pt x="649" y="710" on="1"/>
        <pt x="669" y="710" on="1"/>
        <pt x="669" y="355" on="1"/>
        <pt x="669" y="284" on="0"/>
        <pt x="640" y="154" on="0"/>
        <pt x="572" y="55" on="0"/>
        <pt x="461" y="-5" on="0"/>
        <pt x="379" y="-5" on="1"/>
        <pt x="295" y="-5" on="0"/>
        <pt x="183" y="57" on="0"/>
        <pt x="116" y="159" on="0"/>
        <pt x="88" y="288" on="0"/>
        <pt x="88" y="355" on="1"/>
        <pt x="88" y="710" on="1"/>
        <pt x="108" y="710" on="1"/>
        <pt x="108" y="355" on="1"/>
        <pt x="108" y="291" on="0"/>
        <pt x="133" y="169" on="0"/>
        <pt x="195" y="73" on="0"/>
        <pt x="299" y="15" on="0"/>
      </contour>
      <contour>
        <pt x="278" y="844" on="1"/>
        <pt x="371" y="918" on="1"/>
        <pt x="387" y="918" on="1"/>
        <pt x="480" y="844" on="1"/>
        <pt x="464" y="832" on="1"/>
        <pt x="379" y="895" on="1"/>
        <pt x="294" y="832" on="1"/>
      </contour>
    </TTGlyph>
    <TTGlyph name="Udblgrave" xMin="88" yMin="-5" xMax="669" yMax="918">
      <contour>
        <pt x="378" y="15" on="1"/>
        <pt x="458" y="15" on="0"/>
        <pt x="563" y="75" on="0"/>
        <pt x="624" y="171" on="0"/>
        <pt x="649" y="293" on="0"/>
        <pt x="649" y="355" on="1"/>
        <pt x="649" y="710" on="1"/>
        <pt x="669" y="710" on="1"/>
        <pt x="669" y="355" on="1"/>
        <pt x="669" y="284" on="0"/>
        <pt x="640" y="154" on="0"/>
        <pt x="572" y="55" on="0"/>
        <pt x="461" y="-5" on="0"/>
        <pt x="379" y="-5" on="1"/>
        <pt x="295" y="-5" on="0"/>
        <pt x="183" y="57" on="0"/>
        <pt x="116" y="159" on="0"/>
        <pt x="88" y="288" on="0"/>
        <pt x="88" y="355" on="1"/>
        <pt x="88" y="710" on="1"/>
        <pt x="108" y="710" on="1"/>
        <pt x="108" y="355" on="1"/>
        <pt x="108" y="291" on="0"/>
        <pt x="133" y="169" on="0"/>
        <pt x="195" y="73" on="0"/>
        <pt x="299" y="15" on="0"/>
      </contour>
      <contour>
        <pt x="360" y="918" on="1"/>
        <pt x="394" y="918" on="1"/>
        <pt x="458" y="845" on="1"/>
        <pt x="442" y="833" on="1"/>
      </contour>
      <contour>
        <pt x="260" y="918" on="1"/>
        <pt x="294" y="918" on="1"/>
        <pt x="358" y="845" on="1"/>
        <pt x="342" y="833" on="1"/>
      </contour>
    </TTGlyph>
    <TTGlyph name="Udieresis" xMin="88" yMin="-5" xMax="669" yMax="918">
      <contour>
        <pt x="378" y="15" on="1"/>
        <pt x="458" y="15" on="0"/>
        <pt x="563" y="75" on="0"/>
        <pt x="624" y="171" on="0"/>
        <pt x="649" y="293" on="0"/>
        <pt x="649" y="355" on="1"/>
        <pt x="649" y="710" on="1"/>
        <pt x="669" y="710" on="1"/>
        <pt x="669" y="355" on="1"/>
        <pt x="669" y="284" on="0"/>
        <pt x="640" y="154" on="0"/>
        <pt x="572" y="55" on="0"/>
        <pt x="461" y="-5" on="0"/>
        <pt x="379" y="-5" on="1"/>
        <pt x="295" y="-5" on="0"/>
        <pt x="183" y="57" on="0"/>
        <pt x="116" y="159" on="0"/>
        <pt x="88" y="288" on="0"/>
        <pt x="88" y="355" on="1"/>
        <pt x="88" y="710" on="1"/>
        <pt x="108" y="710" on="1"/>
        <pt x="108" y="355" on="1"/>
        <pt x="108" y="291" on="0"/>
        <pt x="133" y="169" on="0"/>
        <pt x="195" y="73" on="0"/>
        <pt x="299" y="15" on="0"/>
      </contour>
      <contour>
        <pt x="311" y="841" on="1"/>
        <pt x="311" y="918" on="1"/>
        <pt x="331" y="918" on="1"/>
        <pt x="331" y="841" on="1"/>
      </contour>
      <contour>
        <pt x="427" y="841" on="1"/>
        <pt x="427" y="918" on="1"/>
        <pt x="447" y="918" on="1"/>
        <pt x="447" y="841" on="1"/>
      </contour>
    </TTGlyph>
    <TTGlyph name="Udotbelow" xMin="88" yMin="-127" xMax="669" yMax="710">
      <contour>
        <pt x="378" y="15" on="1"/>
        <pt x="458" y="15" on="0"/>
        <pt x="563" y="75" on="0"/>
        <pt x="624" y="171" on="0"/>
        <pt x="649" y="293" on="0"/>
        <pt x="649" y="355" on="1"/>
        <pt x="649" y="710" on="1"/>
        <pt x="669" y="710" on="1"/>
        <pt x="669" y="355" on="1"/>
        <pt x="669" y="284" on="0"/>
        <pt x="640" y="154" on="0"/>
        <pt x="572" y="55" on="0"/>
        <pt x="461" y="-5" on="0"/>
        <pt x="379" y="-5" on="1"/>
        <pt x="295" y="-5" on="0"/>
        <pt x="183" y="57" on="0"/>
        <pt x="116" y="159" on="0"/>
        <pt x="88" y="288" on="0"/>
        <pt x="88" y="355" on="1"/>
        <pt x="88" y="710" on="1"/>
        <pt x="108" y="710" on="1"/>
        <pt x="108" y="355" on="1"/>
        <pt x="108" y="291" on="0"/>
        <pt x="133" y="169" on="0"/>
        <pt x="195" y="73" on="0"/>
        <pt x="299" y="15" on="0"/>
      </contour>
      <contour>
        <pt x="373" y="-127" on="1"/>
        <pt x="373" y="-50" on="1"/>
        <pt x="393" y="-50" on="1"/>
        <pt x="393" y="-127" on="1"/>
      </contour>
    </TTGlyph>
    <TTGlyph name="Ugrave" xMin="88" yMin="-5" xMax="669" yMax="918">
      <contour>
        <pt x="378" y="15" on="1"/>
        <pt x="458" y="15" on="0"/>
        <pt x="563" y="75" on="0"/>
        <pt x="624" y="171" on="0"/>
        <pt x="649" y="293" on="0"/>
        <pt x="649" y="355" on="1"/>
        <pt x="649" y="710" on="1"/>
        <pt x="669" y="710" on="1"/>
        <pt x="669" y="355" on="1"/>
        <pt x="669" y="284" on="0"/>
        <pt x="640" y="154" on="0"/>
        <pt x="572" y="55" on="0"/>
        <pt x="461" y="-5" on="0"/>
        <pt x="379" y="-5" on="1"/>
        <pt x="295" y="-5" on="0"/>
        <pt x="183" y="57" on="0"/>
        <pt x="116" y="159" on="0"/>
        <pt x="88" y="288" on="0"/>
        <pt x="88" y="355" on="1"/>
        <pt x="88" y="710" on="1"/>
        <pt x="108" y="710" on="1"/>
        <pt x="108" y="355" on="1"/>
        <pt x="108" y="291" on="0"/>
        <pt x="133" y="169" on="0"/>
        <pt x="195" y="73" on="0"/>
        <pt x="299" y="15" on="0"/>
      </contour>
      <contour>
        <pt x="311" y="918" on="1"/>
        <pt x="344" y="918" on="1"/>
        <pt x="409" y="845" on="1"/>
        <pt x="393" y="833" on="1"/>
      </contour>
    </TTGlyph>
    <TTGlyph name="Uhungarumlaut" xMin="88" yMin="-5" xMax="669" yMax="918">
      <contour>
        <pt x="378" y="15" on="1"/>
        <pt x="458" y="15" on="0"/>
        <pt x="563" y="75" on="0"/>
        <pt x="624" y="171" on="0"/>
        <pt x="649" y="293" on="0"/>
        <pt x="649" y="355" on="1"/>
        <pt x="649" y="710" on="1"/>
        <pt x="669" y="710" on="1"/>
        <pt x="669" y="355" on="1"/>
        <pt x="669" y="284" on="0"/>
        <pt x="640" y="154" on="0"/>
        <pt x="572" y="55" on="0"/>
        <pt x="461" y="-5" on="0"/>
        <pt x="379" y="-5" on="1"/>
        <pt x="295" y="-5" on="0"/>
        <pt x="183" y="57" on="0"/>
        <pt x="116" y="159" on="0"/>
        <pt x="88" y="288" on="0"/>
        <pt x="88" y="355" on="1"/>
        <pt x="88" y="710" on="1"/>
        <pt x="108" y="710" on="1"/>
        <pt x="108" y="355" on="1"/>
        <pt x="108" y="291" on="0"/>
        <pt x="133" y="169" on="0"/>
        <pt x="195" y="73" on="0"/>
        <pt x="299" y="15" on="0"/>
      </contour>
      <contour>
        <pt x="315" y="833" on="1"/>
        <pt x="299" y="845" on="1"/>
        <pt x="363" y="918" on="1"/>
        <pt x="397" y="918" on="1"/>
      </contour>
      <contour>
        <pt x="415" y="833" on="1"/>
        <pt x="399" y="845" on="1"/>
        <pt x="463" y="918" on="1"/>
        <pt x="497" y="918" on="1"/>
      </contour>
    </TTGlyph>
    <TTGlyph name="Uinvertedbreve" xMin="88" yMin="-5" xMax="669" yMax="918">
      <contour>
        <pt x="378" y="15" on="1"/>
        <pt x="458" y="15" on="0"/>
        <pt x="563" y="75" on="0"/>
        <pt x="624" y="171" on="0"/>
        <pt x="649" y="293" on="0"/>
        <pt x="649" y="355" on="1"/>
        <pt x="649" y="710" on="1"/>
        <pt x="669" y="710" on="1"/>
        <pt x="669" y="355" on="1"/>
        <pt x="669" y="284" on="0"/>
        <pt x="640" y="154" on="0"/>
        <pt x="572" y="55" on="0"/>
        <pt x="461" y="-5" on="0"/>
        <pt x="379" y="-5" on="1"/>
        <pt x="295" y="-5" on="0"/>
        <pt x="183" y="57" on="0"/>
        <pt x="116" y="159" on="0"/>
        <pt x="88" y="288" on="0"/>
        <pt x="88" y="355" on="1"/>
        <pt x="88" y="710" on="1"/>
        <pt x="108" y="710" on="1"/>
        <pt x="108" y="355" on="1"/>
        <pt x="108" y="291" on="0"/>
        <pt x="133" y="169" on="0"/>
        <pt x="195" y="73" on="0"/>
        <pt x="299" y="15" on="0"/>
      </contour>
      <contour>
        <pt x="378" y="901" on="1"/>
        <pt x="357" y="901" on="0"/>
        <pt x="323" y="864" on="0"/>
        <pt x="323" y="841" on="1"/>
        <pt x="304" y="841" on="1"/>
        <pt x="304" y="856" on="0"/>
        <pt x="316" y="884" on="0"/>
        <pt x="337" y="905" on="0"/>
        <pt x="363" y="918" on="0"/>
        <pt x="378" y="918" on="1"/>
        <pt x="393" y="918" on="0"/>
        <pt x="419" y="905" on="0"/>
        <pt x="440" y="884" on="0"/>
        <pt x="452" y="856" on="0"/>
        <pt x="452" y="841" on="1"/>
        <pt x="434" y="841" on="1"/>
        <pt x="431" y="866" on="0"/>
        <pt x="398" y="901" on="0"/>
      </contour>
    </TTGlyph>
    <TTGlyph name="Umacron" xMin="88" yMin="-5" xMax="669" yMax="894">
      <contour>
        <pt x="378" y="15" on="1"/>
        <pt x="458" y="15" on="0"/>
        <pt x="563" y="75" on="0"/>
        <pt x="624" y="171" on="0"/>
        <pt x="649" y="293" on="0"/>
        <pt x="649" y="355" on="1"/>
        <pt x="649" y="710" on="1"/>
        <pt x="669" y="710" on="1"/>
        <pt x="669" y="355" on="1"/>
        <pt x="669" y="284" on="0"/>
        <pt x="640" y="154" on="0"/>
        <pt x="572" y="55" on="0"/>
        <pt x="461" y="-5" on="0"/>
        <pt x="379" y="-5" on="1"/>
        <pt x="295" y="-5" on="0"/>
        <pt x="183" y="57" on="0"/>
        <pt x="116" y="159" on="0"/>
        <pt x="88" y="288" on="0"/>
        <pt x="88" y="355" on="1"/>
        <pt x="88" y="710" on="1"/>
        <pt x="108" y="710" on="1"/>
        <pt x="108" y="355" on="1"/>
        <pt x="108" y="291" on="0"/>
        <pt x="133" y="169" on="0"/>
        <pt x="195" y="73" on="0"/>
        <pt x="299" y="15" on="0"/>
      </contour>
      <contour>
        <pt x="239" y="874" on="1"/>
        <pt x="239" y="894" on="1"/>
        <pt x="519" y="894" on="1"/>
        <pt x="519" y="874" on="1"/>
      </contour>
    </TTGlyph>
    <TTGlyph name="Uogonek" xMin="88" yMin="-163" xMax="669" yMax="710">
      <contour>
        <pt x="354" y="-163" on="1"/>
        <pt x="329" y="-157" on="0"/>
        <pt x="302" y="-125" on="0"/>
        <pt x="302" y="-102" on="1"/>
        <pt x="302" y="-79" on="0"/>
        <pt x="334" y="-34" on="0"/>
        <pt x="371" y="-5" on="1"/>
        <pt x="289" y="-4" on="0"/>
        <pt x="180" y="60" on="0"/>
        <pt x="115" y="161" on="0"/>
        <pt x="88" y="289" on="0"/>
        <pt x="88" y="355" on="1"/>
        <pt x="88" y="710" on="1"/>
        <pt x="108" y="710" on="1"/>
        <pt x="108" y="355" on="1"/>
        <pt x="108" y="291" on="0"/>
        <pt x="133" y="169" on="0"/>
        <pt x="195" y="73" on="0"/>
        <pt x="299" y="15" on="0"/>
        <pt x="378" y="15" on="1"/>
        <pt x="458" y="15" on="0"/>
        <pt x="563" y="75" on="0"/>
        <pt x="624" y="171" on="0"/>
        <pt x="649" y="293" on="0"/>
        <pt x="649" y="355" on="1"/>
        <pt x="649" y="710" on="1"/>
        <pt x="669" y="710" on="1"/>
        <pt x="669" y="355" on="1"/>
        <pt x="669" y="287" on="0"/>
        <pt x="642" y="161" on="0"/>
        <pt x="579" y="63" on="0"/>
        <pt x="478" y="0" on="0"/>
        <pt x="403" y="-4" on="1"/>
        <pt x="358" y="-35" on="0"/>
        <pt x="322" y="-76" on="0"/>
        <pt x="322" y="-99" on="1"/>
        <pt x="322" y="-137" on="0"/>
        <pt x="366" y="-146" on="1"/>
        <pt x="354" y="-163" on="1"/>
      </contour>
    </TTGlyph>
    <TTGlyph name="Uring" xMin="88" yMin="-5" xMax="669" yMax="918">
      <contour>
        <pt x="378" y="15" on="1"/>
        <pt x="458" y="15" on="0"/>
        <pt x="563" y="75" on="0"/>
        <pt x="624" y="171" on="0"/>
        <pt x="649" y="293" on="0"/>
        <pt x="649" y="355" on="1"/>
        <pt x="649" y="710" on="1"/>
        <pt x="669" y="710" on="1"/>
        <pt x="669" y="355" on="1"/>
        <pt x="669" y="284" on="0"/>
        <pt x="640" y="154" on="0"/>
        <pt x="572" y="55" on="0"/>
        <pt x="461" y="-5" on="0"/>
        <pt x="379" y="-5" on="1"/>
        <pt x="295" y="-5" on="0"/>
        <pt x="183" y="57" on="0"/>
        <pt x="116" y="159" on="0"/>
        <pt x="88" y="288" on="0"/>
        <pt x="88" y="355" on="1"/>
        <pt x="88" y="710" on="1"/>
        <pt x="108" y="710" on="1"/>
        <pt x="108" y="355" on="1"/>
        <pt x="108" y="291" on="0"/>
        <pt x="133" y="169" on="0"/>
        <pt x="195" y="73" on="0"/>
        <pt x="299" y="15" on="0"/>
      </contour>
      <contour>
        <pt x="322" y="861" on="1"/>
        <pt x="322" y="885" on="0"/>
        <pt x="355" y="918" on="0"/>
        <pt x="379" y="918" on="1"/>
        <pt x="403" y="918" on="0"/>
        <pt x="436" y="885" on="0"/>
        <pt x="436" y="861" on="1"/>
        <pt x="436" y="837" on="0"/>
        <pt x="403" y="804" on="0"/>
        <pt x="379" y="804" on="1"/>
        <pt x="355" y="804" on="0"/>
        <pt x="322" y="837" on="0"/>
      </contour>
      <contour>
        <pt x="379" y="902" on="1"/>
        <pt x="362" y="902" on="0"/>
        <pt x="338" y="880" on="0"/>
        <pt x="338" y="861" on="1"/>
        <pt x="338" y="844" on="0"/>
        <pt x="362" y="820" on="0"/>
        <pt x="379" y="820" on="1"/>
        <pt x="394" y="820" on="0"/>
        <pt x="420" y="843" on="0"/>
        <pt x="420" y="861" on="1"/>
        <pt x="420" y="880" on="0"/>
        <pt x="396" y="902" on="0"/>
      </contour>
    </TTGlyph>
    <TTGlyph name="Utilde" xMin="88" yMin="-5" xMax="669" yMax="918">
      <contour>
        <pt x="378" y="15" on="1"/>
        <pt x="458" y="15" on="0"/>
        <pt x="563" y="75" on="0"/>
        <pt x="624" y="171" on="0"/>
        <pt x="649" y="293" on="0"/>
        <pt x="649" y="355" on="1"/>
        <pt x="649" y="710" on="1"/>
        <pt x="669" y="710" on="1"/>
        <pt x="669" y="355" on="1"/>
        <pt x="669" y="284" on="0"/>
        <pt x="640" y="154" on="0"/>
        <pt x="572" y="55" on="0"/>
        <pt x="461" y="-5" on="0"/>
        <pt x="379" y="-5" on="1"/>
        <pt x="295" y="-5" on="0"/>
        <pt x="183" y="57" on="0"/>
        <pt x="116" y="159" on="0"/>
        <pt x="88" y="288" on="0"/>
        <pt x="88" y="355" on="1"/>
        <pt x="88" y="710" on="1"/>
        <pt x="108" y="710" on="1"/>
        <pt x="108" y="355" on="1"/>
        <pt x="108" y="291" on="0"/>
        <pt x="133" y="169" on="0"/>
        <pt x="195" y="73" on="0"/>
        <pt x="299" y="15" on="0"/>
      </contour>
      <contour>
        <pt x="440" y="851" on="1"/>
        <pt x="418" y="851" on="0"/>
        <pt x="385" y="863" on="0"/>
        <pt x="357" y="877" on="0"/>
        <pt x="330" y="889" on="0"/>
        <pt x="315" y="889" on="1"/>
        <pt x="299" y="889" on="0"/>
        <pt x="279" y="876" on="0"/>
        <pt x="268" y="859" on="0"/>
        <pt x="264" y="843" on="0"/>
        <pt x="264" y="841" on="1"/>
        <pt x="244" y="841" on="1"/>
        <pt x="244" y="843" on="0"/>
        <pt x="248" y="865" on="0"/>
        <pt x="263" y="889" on="0"/>
        <pt x="292" y="908" on="0"/>
        <pt x="317" y="908" on="1"/>
        <pt x="336" y="908" on="0"/>
        <pt x="366" y="896" on="0"/>
        <pt x="394" y="882" on="0"/>
        <pt x="423" y="870" on="0"/>
        <pt x="442" y="870" on="1"/>
        <pt x="463" y="870" on="0"/>
        <pt x="486" y="884" on="0"/>
        <pt x="498" y="901" on="0"/>
        <pt x="501" y="916" on="0"/>
        <pt x="501" y="918" on="1"/>
        <pt x="521" y="918" on="1"/>
        <pt x="521" y="915" on="0"/>
        <pt x="516" y="893" on="0"/>
        <pt x="500" y="869" on="0"/>
        <pt x="467" y="851" on="0"/>
      </contour>
    </TTGlyph>
    <TTGlyph name="V" xMin="19" yMin="0" xMax="659" yMax="710">
      <contour>
        <pt x="40" y="710" on="1"/>
        <pt x="339" y="25" on="1"/>
        <pt x="637" y="710" on="1"/>
        <pt x="659" y="710" on="1"/>
        <pt x="350" y="0" on="1"/>
        <pt x="328" y="0" on="1"/>
        <pt x="19" y="710" on="1"/>
      </contour>
    </TTGlyph>
    <TTGlyph name="V.sc" xMin="28" yMin="0" xMax="554" yMax="540">
      <contour>
        <pt x="49" y="540" on="1"/>
        <pt x="291" y="26" on="1"/>
        <pt x="532" y="540" on="1"/>
        <pt x="554" y="540" on="1"/>
        <pt x="301" y="0" on="1"/>
        <pt x="280" y="0" on="1"/>
        <pt x="28" y="540" on="1"/>
      </contour>
    </TTGlyph>
    <TTGlyph name="W" xMin="19" yMin="0" xMax="1019" yMax="710">
      <contour>
        <pt x="381" y="704" on="1"/>
        <pt x="403" y="704" on="1"/>
        <pt x="518" y="438" on="1"/>
        <pt x="634" y="704" on="1"/>
        <pt x="656" y="704" on="1"/>
        <pt x="529" y="414" on="1"/>
        <pt x="699" y="25" on="1"/>
        <pt x="997" y="710" on="1"/>
        <pt x="1019" y="710" on="1"/>
        <pt x="710" y="0" on="1"/>
        <pt x="688" y="0" on="1"/>
        <pt x="519" y="389" on="1"/>
        <pt x="350" y="0" on="1"/>
        <pt x="328" y="0" on="1"/>
        <pt x="19" y="710" on="1"/>
        <pt x="41" y="710" on="1"/>
        <pt x="339" y="25" on="1"/>
        <pt x="508" y="414" on="1"/>
      </contour>
    </TTGlyph>
    <TTGlyph name="W.alt" xMin="29" yMin="0" xMax="998" yMax="710">
      <contour>
        <pt x="998" y="710" on="1"/>
        <pt x="769" y="0" on="1"/>
        <pt x="747" y="0" on="1"/>
        <pt x="509" y="678" on="1"/>
        <pt x="280" y="0" on="1"/>
        <pt x="258" y="0" on="1"/>
        <pt x="29" y="710" on="1"/>
        <pt x="50" y="710" on="1"/>
        <pt x="269" y="25" on="1"/>
        <pt x="497" y="710" on="1"/>
        <pt x="519" y="710" on="1"/>
        <pt x="758" y="25" on="1"/>
        <pt x="976" y="710" on="1"/>
      </contour>
    </TTGlyph>
    <TTGlyph name="W.sc" xMin="29" yMin="0" xMax="851" yMax="540">
      <contour>
        <pt x="325" y="535" on="1"/>
        <pt x="346" y="535" on="1"/>
        <pt x="439" y="334" on="1"/>
        <pt x="533" y="535" on="1"/>
        <pt x="554" y="535" on="1"/>
        <pt x="450" y="313" on="1"/>
        <pt x="587" y="25" on="1"/>
        <pt x="829" y="540" on="1"/>
        <pt x="851" y="540" on="1"/>
        <pt x="598" y="0" on="1"/>
        <pt x="577" y="0" on="1"/>
        <pt x="440" y="292" on="1"/>
        <pt x="303" y="0" on="1"/>
        <pt x="282" y="0" on="1"/>
        <pt x="29" y="540" on="1"/>
        <pt x="51" y="540" on="1"/>
        <pt x="293" y="25" on="1"/>
        <pt x="428" y="313" on="1"/>
      </contour>
    </TTGlyph>
</ttFont>
